<svg version="1.1" xmlns="http://www.w3.org/2000/svg" xmlns:xlink="http://www.w3.org/1999/xlink" width="910.34716796875" height="370"><defs/><g><text fill="#eeeeee" stroke="none" font-family="Arial" font-size="24px" font-style="normal" font-weight="normal" text-decoration="none" x="0" y="0">UNREGISTERED</text><text fill="#eeeeee" stroke="none" font-family="Arial" font-size="24px" font-style="normal" font-weight="normal" text-decoration="none" x="0" y="30">UNREGISTERED</text><text fill="#eeeeee" stroke="none" font-family="Arial" font-size="24px" font-style="normal" font-weight="normal" text-decoration="none" x="0" y="60">UNREGISTERED</text><text fill="#eeeeee" stroke="none" font-family="Arial" font-size="24px" font-style="normal" font-weight="normal" text-decoration="none" x="0" y="90">UNREGISTERED</text><text fill="#eeeeee" stroke="none" font-family="Arial" font-size="24px" font-style="normal" font-weight="normal" text-decoration="none" x="0" y="120">UNREGISTERED</text><text fill="#eeeeee" stroke="none" font-family="Arial" font-size="24px" font-style="normal" font-weight="normal" text-decoration="none" x="0" y="150">UNREGISTERED</text><text fill="#eeeeee" stroke="none" font-family="Arial" font-size="24px" font-style="normal" font-weight="normal" text-decoration="none" x="0" y="180">UNREGISTERED</text><text fill="#eeeeee" stroke="none" font-family="Arial" font-size="24px" font-style="normal" font-weight="normal" text-decoration="none" x="0" y="210">UNREGISTERED</text><text fill="#eeeeee" stroke="none" font-family="Arial" font-size="24px" font-style="normal" font-weight="normal" text-decoration="none" x="0" y="240">UNREGISTERED</text><text fill="#eeeeee" stroke="none" font-family="Arial" font-size="24px" font-style="normal" font-weight="normal" text-decoration="none" x="0" y="270">UNREGISTERED</text><text fill="#eeeeee" stroke="none" font-family="Arial" font-size="24px" font-style="normal" font-weight="normal" text-decoration="none" x="0" y="300">UNREGISTERED</text><text fill="#eeeeee" stroke="none" font-family="Arial" font-size="24px" font-style="normal" font-weight="normal" text-decoration="none" x="0" y="330">UNREGISTERED</text><text fill="#eeeeee" stroke="none" font-family="Arial" font-size="24px" font-style="normal" font-weight="normal" text-decoration="none" x="0" y="360">UNREGISTERED</text><text fill="#eeeeee" stroke="none" font-family="Arial" font-size="24px" font-style="normal" font-weight="normal" text-decoration="none" x="200" y="0">UNREGISTERED</text><text fill="#eeeeee" stroke="none" font-family="Arial" font-size="24px" font-style="normal" font-weight="normal" text-decoration="none" x="200" y="30">UNREGISTERED</text><text fill="#eeeeee" stroke="none" font-family="Arial" font-size="24px" font-style="normal" font-weight="normal" text-decoration="none" x="200" y="60">UNREGISTERED</text><text fill="#eeeeee" stroke="none" font-family="Arial" font-size="24px" font-style="normal" font-weight="normal" text-decoration="none" x="200" y="90">UNREGISTERED</text><text fill="#eeeeee" stroke="none" font-family="Arial" font-size="24px" font-style="normal" font-weight="normal" text-decoration="none" x="200" y="120">UNREGISTERED</text><text fill="#eeeeee" stroke="none" font-family="Arial" font-size="24px" font-style="normal" font-weight="normal" text-decoration="none" x="200" y="150">UNREGISTERED</text><text fill="#eeeeee" stroke="none" font-family="Arial" font-size="24px" font-style="normal" font-weight="normal" text-decoration="none" x="200" y="180">UNREGISTERED</text><text fill="#eeeeee" stroke="none" font-family="Arial" font-size="24px" font-style="normal" font-weight="normal" text-decoration="none" x="200" y="210">UNREGISTERED</text><text fill="#eeeeee" stroke="none" font-family="Arial" font-size="24px" font-style="normal" font-weight="normal" text-decoration="none" x="200" y="240">UNREGISTERED</text><text fill="#eeeeee" stroke="none" font-family="Arial" font-size="24px" font-style="normal" font-weight="normal" text-decoration="none" x="200" y="270">UNREGISTERED</text><text fill="#eeeeee" stroke="none" font-family="Arial" font-size="24px" font-style="normal" font-weight="normal" text-decoration="none" x="200" y="300">UNREGISTERED</text><text fill="#eeeeee" stroke="none" font-family="Arial" font-size="24px" font-style="normal" font-weight="normal" text-decoration="none" x="200" y="330">UNREGISTERED</text><text fill="#eeeeee" stroke="none" font-family="Arial" font-size="24px" font-style="normal" font-weight="normal" text-decoration="none" x="200" y="360">UNREGISTERED</text><text fill="#eeeeee" stroke="none" font-family="Arial" font-size="24px" font-style="normal" font-weight="normal" text-decoration="none" x="400" y="0">UNREGISTERED</text><text fill="#eeeeee" stroke="none" font-family="Arial" font-size="24px" font-style="normal" font-weight="normal" text-decoration="none" x="400" y="30">UNREGISTERED</text><text fill="#eeeeee" stroke="none" font-family="Arial" font-size="24px" font-style="normal" font-weight="normal" text-decoration="none" x="400" y="60">UNREGISTERED</text><text fill="#eeeeee" stroke="none" font-family="Arial" font-size="24px" font-style="normal" font-weight="normal" text-decoration="none" x="400" y="90">UNREGISTERED</text><text fill="#eeeeee" stroke="none" font-family="Arial" font-size="24px" font-style="normal" font-weight="normal" text-decoration="none" x="400" y="120">UNREGISTERED</text><text fill="#eeeeee" stroke="none" font-family="Arial" font-size="24px" font-style="normal" font-weight="normal" text-decoration="none" x="400" y="150">UNREGISTERED</text><text fill="#eeeeee" stroke="none" font-family="Arial" font-size="24px" font-style="normal" font-weight="normal" text-decoration="none" x="400" y="180">UNREGISTERED</text><text fill="#eeeeee" stroke="none" font-family="Arial" font-size="24px" font-style="normal" font-weight="normal" text-decoration="none" x="400" y="210">UNREGISTERED</text><text fill="#eeeeee" stroke="none" font-family="Arial" font-size="24px" font-style="normal" font-weight="normal" text-decoration="none" x="400" y="240">UNREGISTERED</text><text fill="#eeeeee" stroke="none" font-family="Arial" font-size="24px" font-style="normal" font-weight="normal" text-decoration="none" x="400" y="270">UNREGISTERED</text><text fill="#eeeeee" stroke="none" font-family="Arial" font-size="24px" font-style="normal" font-weight="normal" text-decoration="none" x="400" y="300">UNREGISTERED</text><text fill="#eeeeee" stroke="none" font-family="Arial" font-size="24px" font-style="normal" font-weight="normal" text-decoration="none" x="400" y="330">UNREGISTERED</text><text fill="#eeeeee" stroke="none" font-family="Arial" font-size="24px" font-style="normal" font-weight="normal" text-decoration="none" x="400" y="360">UNREGISTERED</text><text fill="#eeeeee" stroke="none" font-family="Arial" font-size="24px" font-style="normal" font-weight="normal" text-decoration="none" x="600" y="0">UNREGISTERED</text><text fill="#eeeeee" stroke="none" font-family="Arial" font-size="24px" font-style="normal" font-weight="normal" text-decoration="none" x="600" y="30">UNREGISTERED</text><text fill="#eeeeee" stroke="none" font-family="Arial" font-size="24px" font-style="normal" font-weight="normal" text-decoration="none" x="600" y="60">UNREGISTERED</text><text fill="#eeeeee" stroke="none" font-family="Arial" font-size="24px" font-style="normal" font-weight="normal" text-decoration="none" x="600" y="90">UNREGISTERED</text><text fill="#eeeeee" stroke="none" font-family="Arial" font-size="24px" font-style="normal" font-weight="normal" text-decoration="none" x="600" y="120">UNREGISTERED</text><text fill="#eeeeee" stroke="none" font-family="Arial" font-size="24px" font-style="normal" font-weight="normal" text-decoration="none" x="600" y="150">UNREGISTERED</text><text fill="#eeeeee" stroke="none" font-family="Arial" font-size="24px" font-style="normal" font-weight="normal" text-decoration="none" x="600" y="180">UNREGISTERED</text><text fill="#eeeeee" stroke="none" font-family="Arial" font-size="24px" font-style="normal" font-weight="normal" text-decoration="none" x="600" y="210">UNREGISTERED</text><text fill="#eeeeee" stroke="none" font-family="Arial" font-size="24px" font-style="normal" font-weight="normal" text-decoration="none" x="600" y="240">UNREGISTERED</text><text fill="#eeeeee" stroke="none" font-family="Arial" font-size="24px" font-style="normal" font-weight="normal" text-decoration="none" x="600" y="270">UNREGISTERED</text><text fill="#eeeeee" stroke="none" font-family="Arial" font-size="24px" font-style="normal" font-weight="normal" text-decoration="none" x="600" y="300">UNREGISTERED</text><text fill="#eeeeee" stroke="none" font-family="Arial" font-size="24px" font-style="normal" font-weight="normal" text-decoration="none" x="600" y="330">UNREGISTERED</text><text fill="#eeeeee" stroke="none" font-family="Arial" font-size="24px" font-style="normal" font-weight="normal" text-decoration="none" x="600" y="360">UNREGISTERED</text><text fill="#eeeeee" stroke="none" font-family="Arial" font-size="24px" font-style="normal" font-weight="normal" text-decoration="none" x="800" y="0">UNREGISTERED</text><text fill="#eeeeee" stroke="none" font-family="Arial" font-size="24px" font-style="normal" font-weight="normal" text-decoration="none" x="800" y="30">UNREGISTERED</text><text fill="#eeeeee" stroke="none" font-family="Arial" font-size="24px" font-style="normal" font-weight="normal" text-decoration="none" x="800" y="60">UNREGISTERED</text><text fill="#eeeeee" stroke="none" font-family="Arial" font-size="24px" font-style="normal" font-weight="normal" text-decoration="none" x="800" y="90">UNREGISTERED</text><text fill="#eeeeee" stroke="none" font-family="Arial" font-size="24px" font-style="normal" font-weight="normal" text-decoration="none" x="800" y="120">UNREGISTERED</text><text fill="#eeeeee" stroke="none" font-family="Arial" font-size="24px" font-style="normal" font-weight="normal" text-decoration="none" x="800" y="150">UNREGISTERED</text><text fill="#eeeeee" stroke="none" font-family="Arial" font-size="24px" font-style="normal" font-weight="normal" text-decoration="none" x="800" y="180">UNREGISTERED</text><text fill="#eeeeee" stroke="none" font-family="Arial" font-size="24px" font-style="normal" font-weight="normal" text-decoration="none" x="800" y="210">UNREGISTERED</text><text fill="#eeeeee" stroke="none" font-family="Arial" font-size="24px" font-style="normal" font-weight="normal" text-decoration="none" x="800" y="240">UNREGISTERED</text><text fill="#eeeeee" stroke="none" font-family="Arial" font-size="24px" font-style="normal" font-weight="normal" text-decoration="none" x="800" y="270">UNREGISTERED</text><text fill="#eeeeee" stroke="none" font-family="Arial" font-size="24px" font-style="normal" font-weight="normal" text-decoration="none" x="800" y="300">UNREGISTERED</text><text fill="#eeeeee" stroke="none" font-family="Arial" font-size="24px" font-style="normal" font-weight="normal" text-decoration="none" x="800" y="330">UNREGISTERED</text><text fill="#eeeeee" stroke="none" font-family="Arial" font-size="24px" font-style="normal" font-weight="normal" text-decoration="none" x="800" y="360">UNREGISTERED</text><g transform="translate(-6,-126) scale(1,1)"><rect fill="#C0C0C0" stroke="none" x="279" y="143" width="174.10888671875" height="132" opacity="0.2"/></g><g transform="translate(-6,-126) scale(1,1)"><rect fill="#ffffff" stroke="none" x="272" y="136" width="174.10888671875" height="132"/></g><g transform="translate(-6,-126) scale(1,1)"><path fill="none" stroke="#000000" d="M 272 136 L 446.10888671875 136 L 446.10888671875 268 L 272 268 L 272 136 Z Z" stroke-miterlimit="10"/></g><g transform="translate(-6,-126) scale(1,1)"><path fill="none" stroke="#000000" d="M 272 161 L 446.10888671875 161" stroke-miterlimit="10"/></g><g transform="translate(-6,-126) scale(1,1)"><path fill="none" stroke="#000000" d="M 272 259 L 446.10888671875 259" stroke-miterlimit="10"/></g><g transform="translate(-6,-126) scale(1,1)"><g><path fill="none" stroke="none"/><text fill="#000000" stroke="none" font-family="Arial" font-size="13px" font-style="normal" font-weight="bold" text-decoration="none" x="334.85400390625" y="153.7099609375">Usuario</text></g></g><g transform="translate(-6,-126) scale(1,1)"><g><path fill="none" stroke="none"/><text fill="#000000" stroke="none" font-family="Arial" font-size="13px" font-style="normal" font-weight="normal" text-decoration="none" x="277" y="176.7099609375">+id</text></g></g><g transform="translate(-6,-126) scale(1,1)"><g><path fill="none" stroke="none"/><text fill="#000000" stroke="none" font-family="Arial" font-size="13px" font-style="normal" font-weight="normal" text-decoration="none" x="277" y="190.75146484375">+correo</text></g></g><g transform="translate(-6,-126) scale(1,1)"><g><path fill="none" stroke="none"/><text fill="#000000" stroke="none" font-family="Arial" font-size="13px" font-style="normal" font-weight="normal" text-decoration="none" x="277" y="206.662353515625">+contraseña</text></g></g><g transform="translate(-6,-126) scale(1,1)"><g><path fill="none" stroke="none"/><text fill="#000000" stroke="none" font-family="Arial" font-size="13px" font-style="normal" font-weight="normal" text-decoration="none" x="277" y="221.7099609375">+historicoEnviados: Envio[*]</text></g></g><g transform="translate(-6,-126) scale(1,1)"><g><path fill="none" stroke="none"/><text fill="#000000" stroke="none" font-family="Arial" font-size="13px" font-style="normal" font-weight="normal" text-decoration="none" x="277" y="236.7099609375">+historicoRecibidos: Envio[*]</text></g></g><g transform="translate(-6,-126) scale(1,1)"><g><path fill="none" stroke="none"/><text fill="#000000" stroke="none" font-family="Arial" font-size="13px" font-style="normal" font-weight="normal" text-decoration="none" x="277" y="251.7099609375">+envioActual: Envio</text></g></g><g transform="translate(-6,-126) scale(1,1)"><rect fill="#C0C0C0" stroke="none" x="39" y="183" width="103.61181640625" height="44" opacity="0.2"/></g><g transform="translate(-6,-126) scale(1,1)"><rect fill="#ffffff" stroke="none" x="32" y="176" width="103.61181640625" height="44"/></g><g transform="translate(-6,-126) scale(1,1)"><path fill="none" stroke="#000000" d="M 32 176 L 135.61181640625 176 L 135.61181640625 220 L 32 220 L 32 176 Z Z" stroke-miterlimit="10"/></g><g transform="translate(-6,-126) scale(1,1)"><path fill="none" stroke="#000000" d="M 32 201 L 135.61181640625 201" stroke-miterlimit="10"/></g><g transform="translate(-6,-126) scale(1,1)"><path fill="none" stroke="#000000" d="M 32 211 L 135.61181640625 211" stroke-miterlimit="10"/></g><g transform="translate(-6,-126) scale(1,1)"><g><path fill="none" stroke="none"/><text fill="#000000" stroke="none" font-family="Arial" font-size="13px" font-style="normal" font-weight="bold" text-decoration="none" x="36.5" y="193.7099609375">MetodoDePago</text></g></g><g transform="translate(-6,-126) scale(1,1)"><path fill="none" stroke="#000000" d="M 272 201 L 136 201" stroke-miterlimit="10"/></g><g transform="translate(-6,-126) scale(1,1)"><path fill="none" stroke="#000000" d="M 146.16267485762415 196.790482243984 L 136 201 L 146.16267485762415 205.209517756016" stroke-miterlimit="10"/></g><g transform="translate(-6,-126) scale(1,1)"><path fill="#000000" stroke="none" d="M 261.83732514237585 205.209517756016 L 272 201 L 261.83732514237585 196.790482243984 L 250 201"/></g><g transform="translate(-6,-126) scale(1,1)"><path fill="none" stroke="#000000" d="M 261.83732514237585 205.209517756016 L 272 201 L 261.83732514237585 196.790482243984 L 250 201 L 261.83732514237585 205.209517756016" stroke-miterlimit="10"/></g><g transform="translate(-6,-126) scale(1,1)"><g><path fill="none" stroke="none"/><text fill="#000000" stroke="none" font-family="Arial" font-size="13px" font-style="normal" font-weight="normal" text-decoration="none" x="142.5" y="220.7099609375">+metodosPago</text></g></g><g transform="translate(-6,-126) scale(1,1)"><g><path fill="none" stroke="none"/><text fill="#000000" stroke="none" font-family="Arial" font-size="13px" font-style="normal" font-weight="normal" text-decoration="none" x="154.5" y="192.471923828125">*</text></g></g><g transform="translate(-6,-126) scale(1,1)"><rect fill="#C0C0C0" stroke="none" x="319" y="359" width="82.34716796875" height="132" opacity="0.2"/></g><g transform="translate(-6,-126) scale(1,1)"><rect fill="#ffffff" stroke="none" x="312" y="352" width="82.34716796875" height="132"/></g><g transform="translate(-6,-126) scale(1,1)"><path fill="none" stroke="#000000" d="M 312 352 L 394.34716796875 352 L 394.34716796875 484 L 312 484 L 312 352 Z Z" stroke-miterlimit="10"/></g><g transform="translate(-6,-126) scale(1,1)"><path fill="none" stroke="#000000" d="M 312 377 L 394.34716796875 377" stroke-miterlimit="10"/></g><g transform="translate(-6,-126) scale(1,1)"><path fill="none" stroke="#000000" d="M 312 475 L 394.34716796875 475" stroke-miterlimit="10"/></g><g transform="translate(-6,-126) scale(1,1)"><g><path fill="none" stroke="none"/><text fill="#000000" stroke="none" font-family="Arial" font-size="13px" font-style="normal" font-weight="bold" text-decoration="none" x="335.476318359375" y="369.7099609375">Envio</text></g></g><g transform="translate(-6,-126) scale(1,1)"><g><path fill="none" stroke="none"/><text fill="#000000" stroke="none" font-family="Arial" font-size="13px" font-style="normal" font-weight="normal" text-decoration="none" x="317" y="392.7099609375">+id</text></g></g><g transform="translate(-6,-126) scale(1,1)"><g><path fill="none" stroke="none"/><text fill="#000000" stroke="none" font-family="Arial" font-size="13px" font-style="normal" font-weight="normal" text-decoration="none" x="317" y="407.7099609375">+descripcion</text></g></g><g transform="translate(-6,-126) scale(1,1)"><g><path fill="none" stroke="none"/><text fill="#000000" stroke="none" font-family="Arial" font-size="13px" font-style="normal" font-weight="normal" text-decoration="none" x="317" y="422.2021484375">+urgente</text></g></g><g transform="translate(-6,-126) scale(1,1)"><g><path fill="none" stroke="none"/><text fill="#000000" stroke="none" font-family="Arial" font-size="13px" font-style="normal" font-weight="normal" text-decoration="none" x="317" y="437.7099609375">+fragil</text></g></g><g transform="translate(-6,-126) scale(1,1)"><g><path fill="none" stroke="none"/><text fill="#000000" stroke="none" font-family="Arial" font-size="13px" font-style="normal" font-weight="normal" text-decoration="none" x="317" y="452.7099609375">+importe</text></g></g><g transform="translate(-6,-126) scale(1,1)"><g><path fill="none" stroke="none"/><text fill="#000000" stroke="none" font-family="Arial" font-size="13px" font-style="normal" font-weight="normal" text-decoration="none" x="317" y="467.7099609375">+fecha</text></g></g><g transform="translate(-6,-126) scale(1,1)"><rect fill="#C0C0C0" stroke="none" x="655" y="191" width="94.2236328125" height="44" opacity="0.2"/></g><g transform="translate(-6,-126) scale(1,1)"><rect fill="#ffffff" stroke="none" x="648" y="184" width="94.2236328125" height="44"/></g><g transform="translate(-6,-126) scale(1,1)"><path fill="none" stroke="#000000" d="M 648 184 L 742.2236328125 184 L 742.2236328125 228 L 648 228 L 648 184 Z Z" stroke-miterlimit="10"/></g><g transform="translate(-6,-126) scale(1,1)"><path fill="none" stroke="#000000" d="M 648 209 L 742.2236328125 209" stroke-miterlimit="10"/></g><g transform="translate(-6,-126) scale(1,1)"><path fill="none" stroke="#000000" d="M 648 219 L 742.2236328125 219" stroke-miterlimit="10"/></g><g transform="translate(-6,-126) scale(1,1)"><g><path fill="none" stroke="none"/><text fill="#000000" stroke="none" font-family="Arial" font-size="13px" font-style="normal" font-weight="bold" text-decoration="none" x="652.5" y="201.7099609375">LogroUsuario</text></g></g><g transform="translate(-6,-126) scale(1,1)"><rect fill="#C0C0C0" stroke="none" x="831" y="175" width="82.34716796875" height="87" opacity="0.2"/></g><g transform="translate(-6,-126) scale(1,1)"><rect fill="#ffffff" stroke="none" x="824" y="168" width="82.34716796875" height="87"/></g><g transform="translate(-6,-126) scale(1,1)"><path fill="none" stroke="#000000" d="M 824 168 L 906.34716796875 168 L 906.34716796875 255 L 824 255 L 824 168 Z Z" stroke-miterlimit="10"/></g><g transform="translate(-6,-126) scale(1,1)"><path fill="none" stroke="#000000" d="M 824 193 L 906.34716796875 193" stroke-miterlimit="10"/></g><g transform="translate(-6,-126) scale(1,1)"><path fill="none" stroke="#000000" d="M 824 246 L 906.34716796875 246" stroke-miterlimit="10"/></g><g transform="translate(-6,-126) scale(1,1)"><g><path fill="none" stroke="none"/><text fill="#000000" stroke="none" font-family="Arial" font-size="13px" font-style="normal" font-weight="bold" text-decoration="none" x="846.76220703125" y="185.471923828125">Logro</text></g></g><g transform="translate(-6,-126) scale(1,1)"><g><path fill="none" stroke="none"/><text fill="#000000" stroke="none" font-family="Arial" font-size="13px" font-style="normal" font-weight="normal" text-decoration="none" x="829" y="208.7099609375">+id</text></g></g><g transform="translate(-6,-126) scale(1,1)"><g><path fill="none" stroke="none"/><text fill="#000000" stroke="none" font-family="Arial" font-size="13px" font-style="normal" font-weight="normal" text-decoration="none" x="829" y="223.7099609375">+descripcion</text></g></g><g transform="translate(-6,-126) scale(1,1)"><g><path fill="none" stroke="none"/><text fill="#000000" stroke="none" font-family="Arial" font-size="13px" font-style="normal" font-weight="normal" text-decoration="none" x="829" y="238.7099609375">+descuento</text></g></g><g transform="translate(-6,-126) scale(1,1)"><rect fill="#C0C0C0" stroke="none" x="71" y="439" width="103.63720703125" height="44" opacity="0.2"/></g><g transform="translate(-6,-126) scale(1,1)"><rect fill="#ffffff" stroke="none" x="64" y="432" width="103.63720703125" height="44"/></g><g transform="translate(-6,-126) scale(1,1)"><path fill="none" stroke="#000000" d="M 64 432 L 167.63720703125 432 L 167.63720703125 476 L 64 476 L 64 432 Z Z" stroke-miterlimit="10"/></g><g transform="translate(-6,-126) scale(1,1)"><path fill="none" stroke="#000000" d="M 64 457 L 167.63720703125 457" stroke-miterlimit="10"/></g><g transform="translate(-6,-126) scale(1,1)"><path fill="none" stroke="#000000" d="M 64 467 L 167.63720703125 467" stroke-miterlimit="10"/></g><g transform="translate(-6,-126) scale(1,1)"><g><path fill="none" stroke="none"/><text fill="#000000" stroke="none" font-family="Arial" font-size="13px" font-style="normal" font-weight="bold" text-decoration="none" x="68.5" y="449.7099609375">Punto EcoPack</text></g></g><g transform="translate(-6,-126) scale(1,1)"><rect fill="#C0C0C0" stroke="none" x="567" y="399" width="82.34716796875" height="87" opacity="0.2"/></g><g transform="translate(-6,-126) scale(1,1)"><rect fill="#ffffff" stroke="none" x="560" y="392" width="82.34716796875" height="87"/></g><g transform="translate(-6,-126) scale(1,1)"><path fill="none" stroke="#000000" d="M 560 392 L 642.34716796875 392 L 642.34716796875 479 L 560 479 L 560 392 Z Z" stroke-miterlimit="10"/></g><g transform="translate(-6,-126) scale(1,1)"><path fill="none" stroke="#000000" d="M 560 417 L 642.34716796875 417" stroke-miterlimit="10"/></g><g transform="translate(-6,-126) scale(1,1)"><path fill="none" stroke="#000000" d="M 560 470 L 642.34716796875 470" stroke-miterlimit="10"/></g><g transform="translate(-6,-126) scale(1,1)"><g><path fill="none" stroke="none"/><text fill="#000000" stroke="none" font-family="Arial" font-size="13px" font-style="normal" font-weight="bold" text-decoration="none" x="575.8876953125" y="409.471923828125">Paquete</text></g></g><g transform="translate(-6,-126) scale(1,1)"><g><path fill="none" stroke="none"/><text fill="#000000" stroke="none" font-family="Arial" font-size="13px" font-style="normal" font-weight="normal" text-decoration="none" x="565" y="432.7099609375">+id</text></g></g><g transform="translate(-6,-126) scale(1,1)"><g><path fill="none" stroke="none"/><text fill="#000000" stroke="none" font-family="Arial" font-size="13px" font-style="normal" font-weight="normal" text-decoration="none" x="565" y="447.7099609375">+descripcion</text></g></g><g transform="translate(-6,-126) scale(1,1)"><g><path fill="none" stroke="none"/><text fill="#000000" stroke="none" font-family="Arial" font-size="13px" font-style="normal" font-weight="normal" text-decoration="none" x="565" y="461.75146484375">+peso</text></g></g><g transform="translate(-6,-126) scale(1,1)"><rect fill="#C0C0C0" stroke="none" x="743" y="399" width="131.12255859375" height="90" opacity="0.2"/></g><g transform="translate(-6,-126) scale(1,1)"><rect fill="#ffffff" stroke="none" x="736" y="392" width="131.12255859375" height="90"/></g><g transform="translate(-6,-126) scale(1,1)"><path fill="none" stroke="#000000" d="M 736 392 L 867.12255859375 392 L 867.12255859375 482 L 736 482 L 736 392 Z Z" stroke-miterlimit="10"/></g><g transform="translate(-6,-126) scale(1,1)"><path fill="none" stroke="#000000" d="M 736 430 L 867.12255859375 430" stroke-miterlimit="10"/></g><g transform="translate(-6,-126) scale(1,1)"><g><path fill="none" stroke="none"/><text fill="#000000" stroke="none" font-family="Arial" font-size="13px" font-style="normal" font-weight="normal" text-decoration="none" x="758.197265625" y="407.7099609375">«enumeration»</text></g></g><g transform="translate(-6,-126) scale(1,1)"><g><path fill="none" stroke="none"/><text fill="#000000" stroke="none" font-family="Arial" font-size="13px" font-style="normal" font-weight="bold" text-decoration="none" x="762.675537109375" y="422.7099609375">TipoPaquete</text></g></g><g transform="translate(-6,-126) scale(1,1)"><g><path fill="none" stroke="none"/><text fill="#000000" stroke="none" font-family="Arial" font-size="13px" font-style="normal" font-weight="normal" text-decoration="none" x="741" y="445.7099609375">sobre</text></g></g><g transform="translate(-6,-126) scale(1,1)"><g><path fill="none" stroke="none"/><text fill="#000000" stroke="none" font-family="Arial" font-size="13px" font-style="normal" font-weight="normal" text-decoration="none" x="741" y="460.7099609375">caja</text></g></g><g transform="translate(-6,-126) scale(1,1)"><g><path fill="none" stroke="none"/><text fill="#000000" stroke="none" font-family="Arial" font-size="13px" font-style="normal" font-weight="normal" text-decoration="none" x="741" y="475.7099609375">grandesDimensiones</text></g></g><g transform="translate(-6,-126) scale(1,1)"><rect fill="#C0C0C0" stroke="none" x="79" y="311" width="50.919921875" height="44" opacity="0.2"/></g><g transform="translate(-6,-126) scale(1,1)"><rect fill="#ffffff" stroke="none" x="72" y="304" width="50.919921875" height="44"/></g><g transform="translate(-6,-126) scale(1,1)"><path fill="none" stroke="#000000" d="M 72 304 L 122.919921875 304 L 122.919921875 348 L 72 348 L 72 304 Z Z" stroke-miterlimit="10"/></g><g transform="translate(-6,-126) scale(1,1)"><path fill="none" stroke="#000000" d="M 72 329 L 122.919921875 329" stroke-miterlimit="10"/></g><g transform="translate(-6,-126) scale(1,1)"><path fill="none" stroke="#000000" d="M 72 339 L 122.919921875 339" stroke-miterlimit="10"/></g><g transform="translate(-6,-126) scale(1,1)"><g><path fill="none" stroke="none"/><text fill="#000000" stroke="none" font-family="Arial" font-size="13px" font-style="normal" font-weight="bold" text-decoration="none" x="78.79150390625" y="321.7099609375">Ticket</text></g></g><g transform="translate(-6,-126) scale(1,1)"><path fill="none" stroke="#000000" d="M 742 210 L 824 210" stroke-miterlimit="10"/></g><g transform="translate(-6,-126) scale(1,1)"><path fill="none" stroke="#000000" d="M 813.8373251423759 214.209517756016 L 824 210 L 813.8373251423758 205.790482243984" stroke-miterlimit="10"/></g><g transform="translate(-6,-126) scale(1,1)"><g><path fill="none" stroke="none"/><text fill="#000000" stroke="none" font-family="Arial" font-size="13px" font-style="normal" font-weight="normal" text-decoration="none" x="775.5" y="199.7099609375">+logro</text></g></g><g transform="translate(-6,-126) scale(1,1)"><path fill="none" stroke="#000000" d="M 446 205 L 648 205" stroke-miterlimit="10"/></g><g transform="translate(-6,-126) scale(1,1)"><path fill="none" stroke="#000000" d="M 637.8373251423759 209.209517756016 L 648 205 L 637.8373251423758 200.790482243984" stroke-miterlimit="10"/></g><g transform="translate(-6,-126) scale(1,1)"><g><path fill="none" stroke="none"/><text fill="#000000" stroke="none" font-family="Arial" font-size="13px" font-style="normal" font-weight="normal" text-decoration="none" x="502.5" y="188.7099609375">+logrosConseguidos</text></g></g><g transform="translate(-6,-126) scale(1,1)"><g><path fill="none" stroke="none"/><text fill="#000000" stroke="none" font-family="Arial" font-size="13px" font-style="normal" font-weight="normal" text-decoration="none" x="623.220458984375" y="221.471923828125">*</text></g></g><g transform="translate(-6,-126) scale(1,1)"><path fill="none" stroke="#000000" d="M 345 352 L 345 268" stroke-miterlimit="10"/></g><g transform="translate(-6,-126) scale(1,1)"><path fill="none" stroke="#000000" d="M 349.209517756016 278.16267485762415 L 345 268 L 340.790482243984 278.16267485762415" stroke-miterlimit="10"/></g><g transform="translate(-6,-126) scale(1,1)"><g><path fill="none" stroke="none"/><text fill="#000000" stroke="none" font-family="Arial" font-size="13px" font-style="normal" font-weight="normal" text-decoration="none" x="271.5" y="295.7099609375">+remitente</text></g></g><g transform="translate(-6,-126) scale(1,1)"><path fill="none" stroke="#000000" d="M 360 352 L 360 268" stroke-miterlimit="10"/></g><g transform="translate(-6,-126) scale(1,1)"><path fill="none" stroke="#000000" d="M 364.209517756016 278.16267485762415 L 360 268 L 355.790482243984 278.16267485762415" stroke-miterlimit="10"/></g><g transform="translate(-6,-126) scale(1,1)"><g><path fill="none" stroke="none"/><text fill="#000000" stroke="none" font-family="Arial" font-size="13px" font-style="normal" font-weight="normal" text-decoration="none" x="366.5" y="294.7099609375">+destinatario</text></g></g><g transform="translate(-6,-126) scale(1,1)"><path fill="none" stroke="#000000" d="M 642 436 L 736 436" stroke-miterlimit="10"/></g><g transform="translate(-6,-126) scale(1,1)"><path fill="none" stroke="#000000" d="M 725.8373251423759 440.209517756016 L 736 436 L 725.8373251423758 431.790482243984" stroke-miterlimit="10"/></g><g transform="translate(-6,-126) scale(1,1)"><g><path fill="none" stroke="none"/><text fill="#000000" stroke="none" font-family="Arial" font-size="13px" font-style="normal" font-weight="normal" text-decoration="none" x="704.5" y="419.7099609375">+tipo</text></g></g><g transform="translate(-6,-126) scale(1,1)"><path fill="none" stroke="#000000" d="M 312 416 L 123 416 M 123 416 A 8 8 0 0 0 115 424 L 115 432" stroke-miterlimit="10"/></g><g transform="translate(-6,-126) scale(1,1)"><path fill="none" stroke="#000000" d="M 110.79048224398402 421.83732514237585 L 115 432 L 119.20951775601598 421.83732514237585" stroke-miterlimit="10"/></g><g transform="translate(-6,-126) scale(1,1)"><g><path fill="none" stroke="none"/><text fill="#000000" stroke="none" font-family="Arial" font-size="13px" font-style="normal" font-weight="normal" text-decoration="none" x="118.5" y="409.7099609375">+destino</text></g></g><g transform="translate(-6,-126) scale(1,1)"><path fill="none" stroke="#000000" d="M 312 440 L 168 440" stroke-miterlimit="10"/></g><g transform="translate(-6,-126) scale(1,1)"><path fill="none" stroke="#000000" d="M 178.16267485762415 435.790482243984 L 168 440 L 178.16267485762415 444.209517756016" stroke-miterlimit="10"/></g><g transform="translate(-6,-126) scale(1,1)"><g><path fill="none" stroke="none"/><text fill="#000000" stroke="none" font-family="Arial" font-size="13px" font-style="normal" font-weight="normal" text-decoration="none" x="228.5" y="433.7099609375">+origen</text></g></g><g transform="translate(-6,-126) scale(1,1)"><path fill="none" stroke="#000000" d="M 168 468 L 312 468" stroke-miterlimit="10"/></g><g transform="translate(-6,-126) scale(1,1)"><path fill="none" stroke="#000000" d="M 301.83732514237585 472.209517756016 L 312 468 L 301.83732514237585 463.790482243984" stroke-miterlimit="10"/></g><g transform="translate(-6,-126) scale(1,1)"><g><path fill="none" stroke="none"/><text fill="#000000" stroke="none" font-family="Arial" font-size="13px" font-style="normal" font-weight="normal" text-decoration="none" x="263.5" y="457.7099609375">+envios</text></g></g><g transform="translate(-6,-126) scale(1,1)"><g><path fill="none" stroke="none"/><text fill="#000000" stroke="none" font-family="Arial" font-size="13px" font-style="normal" font-weight="normal" text-decoration="none" x="287.5" y="484.471923828125">*</text></g></g><g transform="translate(-6,-126) scale(1,1)"><path fill="none" stroke="#000000" d="M 394 368 L 647 368 M 647 368 A 8 8 0 0 0 655 360 L 655 228" stroke-miterlimit="10"/></g><g transform="translate(-6,-126) scale(1,1)"><path fill="none" stroke="#000000" d="M 659.209517756016 238.16267485762415 L 655 228 L 650.790482243984 238.16267485762415" stroke-miterlimit="10"/></g><g transform="translate(-6,-126) scale(1,1)"><g><path fill="none" stroke="none"/><text fill="#000000" stroke="none" font-family="Arial" font-size="13px" font-style="normal" font-weight="normal" text-decoration="none" x="575.5" y="250.7099609375">+descuento</text></g></g><g transform="translate(-6,-126) scale(1,1)"><g><path fill="none" stroke="none"/><text fill="#000000" stroke="none" font-family="Arial" font-size="13px" font-style="normal" font-weight="normal" text-decoration="none" x="663.5" y="249.53857421875">0..1</text></g></g><g transform="translate(-6,-126) scale(1,1)"><path fill="none" stroke="#000000" d="M 394 432 L 560 432" stroke-miterlimit="10"/></g><g transform="translate(-6,-126) scale(1,1)"><g><path fill="none" stroke="none"/><text fill="#000000" stroke="none" font-family="Arial" font-size="13px" font-style="normal" font-weight="normal" text-decoration="none" x="402.5" y="448.7099609375">+envio</text></g></g><g transform="translate(-6,-126) scale(1,1)"><g><path fill="none" stroke="none"/><text fill="#000000" stroke="none" font-family="Arial" font-size="13px" font-style="normal" font-weight="normal" text-decoration="none" x="488.5" y="414.2021484375">+paquetes</text></g></g><g transform="translate(-6,-126) scale(1,1)"><g><path fill="none" stroke="none"/><text fill="#000000" stroke="none" font-family="Arial" font-size="13px" font-style="normal" font-weight="normal" text-decoration="none" x="524.5" y="457.471923828125">1..*</text></g></g><g transform="translate(-6,-126) scale(1,1)"><path fill="none" stroke="#000000" d="M 312 368 L 105 368 M 105 368 A 8 8 0 0 1 97 360 L 97 348" stroke-miterlimit="10"/></g><g transform="translate(-6,-126) scale(1,1)"><g><path fill="none" stroke="none"/><text fill="#000000" stroke="none" font-family="Arial" font-size="13px" font-style="normal" font-weight="normal" text-decoration="none" x="267.5" y="398.7099609375">+envio</text></g></g><g transform="translate(-6,-126) scale(1,1)"><g><path fill="none" stroke="none"/><text fill="#000000" stroke="none" font-family="Arial" font-size="13px" font-style="normal" font-weight="normal" text-decoration="none" x="101.5" y="386.7099609375">+tickets</text></g></g><g transform="translate(-6,-126) scale(1,1)"><g><path fill="none" stroke="none"/><text fill="#000000" stroke="none" font-family="Arial" font-size="13px" font-style="normal" font-weight="normal" text-decoration="none" x="126.5" y="362.53857421875">2</text></g></g><g transform="translate(-6,-126) scale(1,1)"><path fill="none" stroke="#000000" d="M 124 313 L 271 244" stroke-miterlimit="10"/></g><g transform="translate(-6,-126) scale(1,1)"><g><path fill="none" stroke="none"/><text fill="#000000" stroke="none" font-family="Arial" font-size="13px" font-style="normal" font-weight="normal" text-decoration="none" x="118.5" y="292.7099609375">+tickets</text></g></g><g transform="translate(-6,-126) scale(1,1)"><g><path fill="none" stroke="none"/><text fill="#000000" stroke="none" font-family="Arial" font-size="13px" font-style="normal" font-weight="normal" text-decoration="none" x="145.5" y="319.471923828125">*</text></g></g><g transform="translate(-6,-126) scale(1,1)"><g><path fill="none" stroke="none"/><text fill="#000000" stroke="none" font-family="Arial" font-size="13px" font-style="normal" font-weight="normal" text-decoration="none" x="215.5" y="245.7099609375">+usuario</text></g></g><g transform="translate(-6,-126) scale(1,1)"><path fill="none" stroke="#000000" d="M 72 336 L 24 336 M 24 336 A 8 8 0 0 0 16 344 L 16 446 M 16 446 A 8 8 0 0 0 24 454 L 64 454" stroke-miterlimit="10"/></g><g transform="translate(-6,-126) scale(1,1)"><g><path fill="none" stroke="none"/><text fill="#000000" stroke="none" font-family="Arial" font-size="13px" font-style="normal" font-weight="normal" text-decoration="none" x="23.5" y="354.7099609375">+tickets</text></g></g><g transform="translate(-6,-126) scale(1,1)"><g><path fill="none" stroke="none"/><text fill="#000000" stroke="none" font-family="Arial" font-size="13px" font-style="normal" font-weight="normal" text-decoration="none" x="47.5" y="327.471923828125">*</text></g></g><g transform="translate(-6,-126) scale(1,1)"><g><path fill="none" stroke="none"/><text fill="#000000" stroke="none" font-family="Arial" font-size="13px" font-style="normal" font-weight="normal" text-decoration="none" x="17.5" y="443.2021484375">+punto</text></g></g></g></svg>