<svg version="1.1" xmlns="http://www.w3.org/2000/svg" xmlns:xlink="http://www.w3.org/1999/xlink" width="654" height="294"><defs/><g><text fill="#eeeeee" stroke="none" font-family="Arial" font-size="24px" font-style="normal" font-weight="normal" text-decoration="none" x="0" y="0">UNREGISTERED</text><text fill="#eeeeee" stroke="none" font-family="Arial" font-size="24px" font-style="normal" font-weight="normal" text-decoration="none" x="0" y="30">UNREGISTERED</text><text fill="#eeeeee" stroke="none" font-family="Arial" font-size="24px" font-style="normal" font-weight="normal" text-decoration="none" x="0" y="60">UNREGISTERED</text><text fill="#eeeeee" stroke="none" font-family="Arial" font-size="24px" font-style="normal" font-weight="normal" text-decoration="none" x="0" y="90">UNREGISTERED</text><text fill="#eeeeee" stroke="none" font-family="Arial" font-size="24px" font-style="normal" font-weight="normal" text-decoration="none" x="0" y="120">UNREGISTERED</text><text fill="#eeeeee" stroke="none" font-family="Arial" font-size="24px" font-style="normal" font-weight="normal" text-decoration="none" x="0" y="150">UNREGISTERED</text><text fill="#eeeeee" stroke="none" font-family="Arial" font-size="24px" font-style="normal" font-weight="normal" text-decoration="none" x="0" y="180">UNREGISTERED</text><text fill="#eeeeee" stroke="none" font-family="Arial" font-size="24px" font-style="normal" font-weight="normal" text-decoration="none" x="0" y="210">UNREGISTERED</text><text fill="#eeeeee" stroke="none" font-family="Arial" font-size="24px" font-style="normal" font-weight="normal" text-decoration="none" x="0" y="240">UNREGISTERED</text><text fill="#eeeeee" stroke="none" font-family="Arial" font-size="24px" font-style="normal" font-weight="normal" text-decoration="none" x="0" y="270">UNREGISTERED</text><text fill="#eeeeee" stroke="none" font-family="Arial" font-size="24px" font-style="normal" font-weight="normal" text-decoration="none" x="200" y="0">UNREGISTERED</text><text fill="#eeeeee" stroke="none" font-family="Arial" font-size="24px" font-style="normal" font-weight="normal" text-decoration="none" x="200" y="30">UNREGISTERED</text><text fill="#eeeeee" stroke="none" font-family="Arial" font-size="24px" font-style="normal" font-weight="normal" text-decoration="none" x="200" y="60">UNREGISTERED</text><text fill="#eeeeee" stroke="none" font-family="Arial" font-size="24px" font-style="normal" font-weight="normal" text-decoration="none" x="200" y="90">UNREGISTERED</text><text fill="#eeeeee" stroke="none" font-family="Arial" font-size="24px" font-style="normal" font-weight="normal" text-decoration="none" x="200" y="120">UNREGISTERED</text><text fill="#eeeeee" stroke="none" font-family="Arial" font-size="24px" font-style="normal" font-weight="normal" text-decoration="none" x="200" y="150">UNREGISTERED</text><text fill="#eeeeee" stroke="none" font-family="Arial" font-size="24px" font-style="normal" font-weight="normal" text-decoration="none" x="200" y="180">UNREGISTERED</text><text fill="#eeeeee" stroke="none" font-family="Arial" font-size="24px" font-style="normal" font-weight="normal" text-decoration="none" x="200" y="210">UNREGISTERED</text><text fill="#eeeeee" stroke="none" font-family="Arial" font-size="24px" font-style="normal" font-weight="normal" text-decoration="none" x="200" y="240">UNREGISTERED</text><text fill="#eeeeee" stroke="none" font-family="Arial" font-size="24px" font-style="normal" font-weight="normal" text-decoration="none" x="200" y="270">UNREGISTERED</text><text fill="#eeeeee" stroke="none" font-family="Arial" font-size="24px" font-style="normal" font-weight="normal" text-decoration="none" x="400" y="0">UNREGISTERED</text><text fill="#eeeeee" stroke="none" font-family="Arial" font-size="24px" font-style="normal" font-weight="normal" text-decoration="none" x="400" y="30">UNREGISTERED</text><text fill="#eeeeee" stroke="none" font-family="Arial" font-size="24px" font-style="normal" font-weight="normal" text-decoration="none" x="400" y="60">UNREGISTERED</text><text fill="#eeeeee" stroke="none" font-family="Arial" font-size="24px" font-style="normal" font-weight="normal" text-decoration="none" x="400" y="90">UNREGISTERED</text><text fill="#eeeeee" stroke="none" font-family="Arial" font-size="24px" font-style="normal" font-weight="normal" text-decoration="none" x="400" y="120">UNREGISTERED</text><text fill="#eeeeee" stroke="none" font-family="Arial" font-size="24px" font-style="normal" font-weight="normal" text-decoration="none" x="400" y="150">UNREGISTERED</text><text fill="#eeeeee" stroke="none" font-family="Arial" font-size="24px" font-style="normal" font-weight="normal" text-decoration="none" x="400" y="180">UNREGISTERED</text><text fill="#eeeeee" stroke="none" font-family="Arial" font-size="24px" font-style="normal" font-weight="normal" text-decoration="none" x="400" y="210">UNREGISTERED</text><text fill="#eeeeee" stroke="none" font-family="Arial" font-size="24px" font-style="normal" font-weight="normal" text-decoration="none" x="400" y="240">UNREGISTERED</text><text fill="#eeeeee" stroke="none" font-family="Arial" font-size="24px" font-style="normal" font-weight="normal" text-decoration="none" x="400" y="270">UNREGISTERED</text><text fill="#eeeeee" stroke="none" font-family="Arial" font-size="24px" font-style="normal" font-weight="normal" text-decoration="none" x="600" y="0">UNREGISTERED</text><text fill="#eeeeee" stroke="none" font-family="Arial" font-size="24px" font-style="normal" font-weight="normal" text-decoration="none" x="600" y="30">UNREGISTERED</text><text fill="#eeeeee" stroke="none" font-family="Arial" font-size="24px" font-style="normal" font-weight="normal" text-decoration="none" x="600" y="60">UNREGISTERED</text><text fill="#eeeeee" stroke="none" font-family="Arial" font-size="24px" font-style="normal" font-weight="normal" text-decoration="none" x="600" y="90">UNREGISTERED</text><text fill="#eeeeee" stroke="none" font-family="Arial" font-size="24px" font-style="normal" font-weight="normal" text-decoration="none" x="600" y="120">UNREGISTERED</text><text fill="#eeeeee" stroke="none" font-family="Arial" font-size="24px" font-style="normal" font-weight="normal" text-decoration="none" x="600" y="150">UNREGISTERED</text><text fill="#eeeeee" stroke="none" font-family="Arial" font-size="24px" font-style="normal" font-weight="normal" text-decoration="none" x="600" y="180">UNREGISTERED</text><text fill="#eeeeee" stroke="none" font-family="Arial" font-size="24px" font-style="normal" font-weight="normal" text-decoration="none" x="600" y="210">UNREGISTERED</text><text fill="#eeeeee" stroke="none" font-family="Arial" font-size="24px" font-style="normal" font-weight="normal" text-decoration="none" x="600" y="240">UNREGISTERED</text><text fill="#eeeeee" stroke="none" font-family="Arial" font-size="24px" font-style="normal" font-weight="normal" text-decoration="none" x="600" y="270">UNREGISTERED</text><g transform="translate(-46,-46) scale(1,1)"><path fill="#ffffff" stroke="none" d="M 79.98210422585227 65.68 C 79.98210422585227 60.88616793600001 83.86794655079773 57 88.661376953125 57 C 93.45480735545227 57 97.34064968039773 60.88616793600001 97.34064968039773 65.68 C 97.34064968039773 70.473832064 93.45480735545227 74.36 88.661376953125 74.36 C 83.86794655079773 74.36 79.98210422585227 70.473832064 79.98210422585227 65.68 Z"/></g><g transform="translate(-46,-46) scale(1,1)"><path fill="none" stroke="#000000" d="M 79.98210422585227 65.68 C 79.98210422585227 60.88616793600001 83.86794655079773 57 88.661376953125 57 C 93.45480735545227 57 97.34064968039773 60.88616793600001 97.34064968039773 65.68 C 97.34064968039773 70.473832064 93.45480735545227 74.36 88.661376953125 74.36 C 83.86794655079773 74.36 79.98210422585227 70.473832064 79.98210422585227 65.68 Z" stroke-miterlimit="10"/></g><g transform="translate(-46,-46) scale(1,1)"><path fill="none" stroke="#000000" d="M 88.661376953125 74.36 L 88.661376953125 91.64" stroke-miterlimit="10"/></g><g transform="translate(-46,-46) scale(1,1)"><path fill="none" stroke="#000000" d="M 79.47155877130682 80.84 L 97.85119513494318 80.84" stroke-miterlimit="10"/></g><g transform="translate(-46,-46) scale(1,1)"><path fill="none" stroke="#000000" d="M 88.661376953125 91.64 L 75.89774058948863 109" stroke-miterlimit="10"/></g><g transform="translate(-46,-46) scale(1,1)"><path fill="none" stroke="#000000" d="M 88.661376953125 91.64 L 101.42501331676137 109" stroke-miterlimit="10"/></g><g transform="translate(-46,-46) scale(1,1)"><g><path fill="none" stroke="none"/><text fill="#000000" stroke="none" font-family="Arial" font-size="13px" font-style="normal" font-weight="bold" text-decoration="none" x="60.5" y="127.7861328125">Anónimo</text></g></g><g transform="translate(-46,-46) scale(1,1)"><path fill="#ffffff" stroke="none" d="M 372.02116672585225 81.68 C 372.02116672585225 76.886167936 375.90700905079774 73 380.700439453125 73 C 385.49386985545226 73 389.37971218039775 76.886167936 389.37971218039775 81.68 C 389.37971218039775 86.473832064 385.49386985545226 90.36 380.700439453125 90.36 C 375.90700905079774 90.36 372.02116672585225 86.473832064 372.02116672585225 81.68 Z"/></g><g transform="translate(-46,-46) scale(1,1)"><path fill="none" stroke="#000000" d="M 372.02116672585225 81.68 C 372.02116672585225 76.886167936 375.90700905079774 73 380.700439453125 73 C 385.49386985545226 73 389.37971218039775 76.886167936 389.37971218039775 81.68 C 389.37971218039775 86.473832064 385.49386985545226 90.36 380.700439453125 90.36 C 375.90700905079774 90.36 372.02116672585225 86.473832064 372.02116672585225 81.68 Z" stroke-miterlimit="10"/></g><g transform="translate(-46,-46) scale(1,1)"><path fill="none" stroke="#000000" d="M 380.700439453125 90.36 L 380.700439453125 107.64" stroke-miterlimit="10"/></g><g transform="translate(-46,-46) scale(1,1)"><path fill="none" stroke="#000000" d="M 371.51062127130683 96.84 L 389.89025763494317 96.84" stroke-miterlimit="10"/></g><g transform="translate(-46,-46) scale(1,1)"><path fill="none" stroke="#000000" d="M 380.700439453125 107.64 L 367.93680308948865 125" stroke-miterlimit="10"/></g><g transform="translate(-46,-46) scale(1,1)"><path fill="none" stroke="#000000" d="M 380.700439453125 107.64 L 393.46407581676135 125" stroke-miterlimit="10"/></g><g transform="translate(-46,-46) scale(1,1)"><g><path fill="none" stroke="none"/><text fill="#000000" stroke="none" font-family="Arial" font-size="13px" font-style="normal" font-weight="bold" text-decoration="none" x="356.5" y="143.7099609375">Usuario</text></g></g><g transform="translate(-46,-46) scale(1,1)"><path fill="#C0C0C0" stroke="none" d="M 199 120 C 199 110.6111584 221.6096176 103 249.5 103 C 277.3903824 103 300 110.6111584 300 120 C 300 129.3888416 277.3903824 137 249.5 137 C 221.6096176 137 199 129.3888416 199 120 Z" opacity="0.2"/></g><g transform="translate(-46,-46) scale(1,1)"><path fill="#ffffff" stroke="none" d="M 192 113 C 192 103.6111584 214.6096176 96 242.5 96 C 270.3903824 96 293 103.6111584 293 113 C 293 122.3888416 270.3903824 130 242.5 130 C 214.6096176 130 192 122.3888416 192 113 Z"/></g><g transform="translate(-46,-46) scale(1,1)"><path fill="none" stroke="#000000" d="M 192 113 C 192 103.6111584 214.6096176 96 242.5 96 C 270.3903824 96 293 103.6111584 293 113 C 293 122.3888416 270.3903824 130 242.5 130 C 214.6096176 130 192 122.3888416 192 113 Z" stroke-miterlimit="10"/></g><g transform="translate(-46,-46) scale(1,1)"><g><path fill="none" stroke="none"/><text fill="#000000" stroke="none" font-family="Arial" font-size="13px" font-style="normal" font-weight="bold" text-decoration="none" x="224.812255859375" y="118.2099609375">Login</text></g></g><g transform="translate(-46,-46) scale(1,1)"><path fill="#C0C0C0" stroke="none" d="M 63 320 C 63 310.6111584 85.6096176 303 113.5 303 C 141.3903824 303 164 310.6111584 164 320 C 164 329.3888416 141.3903824 337 113.5 337 C 85.6096176 337 63 329.3888416 63 320 Z" opacity="0.2"/></g><g transform="translate(-46,-46) scale(1,1)"><path fill="#ffffff" stroke="none" d="M 56 313 C 56 303.6111584 78.6096176 296 106.5 296 C 134.3903824 296 157 303.6111584 157 313 C 157 322.3888416 134.3903824 330 106.5 330 C 78.6096176 330 56 322.3888416 56 313 Z"/></g><g transform="translate(-46,-46) scale(1,1)"><path fill="none" stroke="#000000" d="M 56 313 C 56 303.6111584 78.6096176 296 106.5 296 C 134.3903824 296 157 303.6111584 157 313 C 157 322.3888416 134.3903824 330 106.5 330 C 78.6096176 330 56 322.3888416 56 313 Z" stroke-miterlimit="10"/></g><g transform="translate(-46,-46) scale(1,1)"><g><path fill="none" stroke="none"/><text fill="#000000" stroke="none" font-family="Arial" font-size="13px" font-style="normal" font-weight="bold" text-decoration="none" x="84.483154296875" y="317.971923828125">Logout</text></g></g><g transform="translate(-46,-46) scale(1,1)"><path fill="none" stroke="#000000" d="M 271 254 L 156 295" stroke-miterlimit="10"/></g><g transform="translate(-46,-46) scale(1,1)"><path fill="#C0C0C0" stroke="none" d="M 198.32275390625 80 C 198.32275390625 70.6111584 223.84252030625 63 255.32275390625 63 C 286.80298750625 63 312.32275390625 70.6111584 312.32275390625 80 C 312.32275390625 89.3888416 286.80298750625 97 255.32275390625 97 C 223.84252030625 97 198.32275390625 89.3888416 198.32275390625 80 Z" opacity="0.2"/></g><g transform="translate(-46,-46) scale(1,1)"><path fill="#ffffff" stroke="none" d="M 191.32275390625 73 C 191.32275390625 63.6111584 216.84252030625 56 248.32275390625 56 C 279.80298750625 56 305.32275390625 63.6111584 305.32275390625 73 C 305.32275390625 82.3888416 279.80298750625 90 248.32275390625 90 C 216.84252030625 90 191.32275390625 82.3888416 191.32275390625 73 Z"/></g><g transform="translate(-46,-46) scale(1,1)"><path fill="none" stroke="#000000" d="M 191.32275390625 73 C 191.32275390625 63.6111584 216.84252030625 56 248.32275390625 56 C 279.80298750625 56 305.32275390625 63.6111584 305.32275390625 73 C 305.32275390625 82.3888416 279.80298750625 90 248.32275390625 90 C 216.84252030625 90 191.32275390625 82.3888416 191.32275390625 73 Z" stroke-miterlimit="10"/></g><g transform="translate(-46,-46) scale(1,1)"><g><path fill="none" stroke="none"/><text fill="#000000" stroke="none" font-family="Arial" font-size="13px" font-style="normal" font-weight="bold" text-decoration="none" x="212.5537109375" y="78.2099609375">Registrarse</text></g></g><g transform="translate(-46,-46) scale(1,1)"><path fill="none" stroke="#000000" d="M 122 90 L 190 81" stroke-miterlimit="10"/></g><g transform="translate(-46,-46) scale(1,1)"><path fill="none" stroke="#000000" d="M 122 99 L 191 107" stroke-miterlimit="10"/></g><g transform="translate(-46,-46) scale(1,1)"><path fill="#C0C0C0" stroke="none" d="M 175 320 C 175 310.6111584 213.055792 303 260 303 C 306.944208 303 345 310.6111584 345 320 C 345 329.3888416 306.944208 337 260 337 C 213.055792 337 175 329.3888416 175 320 Z" opacity="0.2"/></g><g transform="translate(-46,-46) scale(1,1)"><path fill="#ffffff" stroke="none" d="M 168 313 C 168 303.6111584 206.055792 296 253 296 C 299.944208 296 338 303.6111584 338 313 C 338 322.3888416 299.944208 330 253 330 C 206.055792 330 168 322.3888416 168 313 Z"/></g><g transform="translate(-46,-46) scale(1,1)"><path fill="none" stroke="#000000" d="M 168 313 C 168 303.6111584 206.055792 296 253 296 C 299.944208 296 338 303.6111584 338 313 C 338 322.3888416 299.944208 330 253 330 C 206.055792 330 168 322.3888416 168 313 Z" stroke-miterlimit="10"/></g><g transform="translate(-46,-46) scale(1,1)"><g><path fill="none" stroke="none"/><text fill="#000000" stroke="none" font-family="Arial" font-size="13px" font-style="normal" font-weight="bold" text-decoration="none" x="197.3818359375" y="318.2099609375">Consultar usuario</text></g></g><g transform="translate(-46,-46) scale(1,1)"><path fill="#C0C0C0" stroke="none" d="M 351 320 C 351 310.6111584 388.8319344 303 435.5 303 C 482.1680656 303 520 310.6111584 520 320 C 520 329.3888416 482.1680656 337 435.5 337 C 388.8319344 337 351 329.3888416 351 320 Z" opacity="0.2"/></g><g transform="translate(-46,-46) scale(1,1)"><path fill="#ffffff" stroke="none" d="M 344 313 C 344 303.6111584 381.8319344 296 428.5 296 C 475.1680656 296 513 303.6111584 513 313 C 513 322.3888416 475.1680656 330 428.5 330 C 381.8319344 330 344 322.3888416 344 313 Z"/></g><g transform="translate(-46,-46) scale(1,1)"><path fill="none" stroke="#000000" d="M 344 313 C 344 303.6111584 381.8319344 296 428.5 296 C 475.1680656 296 513 303.6111584 513 313 C 513 322.3888416 475.1680656 330 428.5 330 C 381.8319344 330 344 322.3888416 344 313 Z" stroke-miterlimit="10"/></g><g transform="translate(-46,-46) scale(1,1)"><g><path fill="none" stroke="none"/><text fill="#000000" stroke="none" font-family="Arial" font-size="13px" font-style="normal" font-weight="bold" text-decoration="none" x="374.325927734375" y="318.2099609375">Modificar usuario</text></g></g><g transform="translate(-46,-46) scale(1,1)"><path fill="#C0C0C0" stroke="none" d="M 527 320 C 527 310.6111584 564.6080768 303 611 303 C 657.3919232 303 695 310.6111584 695 320 C 695 329.3888416 657.3919232 337 611 337 C 564.6080768 337 527 329.3888416 527 320 Z" opacity="0.2"/></g><g transform="translate(-46,-46) scale(1,1)"><path fill="#ffffff" stroke="none" d="M 520 313 C 520 303.6111584 557.6080768 296 604 296 C 650.3919232 296 688 303.6111584 688 313 C 688 322.3888416 650.3919232 330 604 330 C 557.6080768 330 520 322.3888416 520 313 Z"/></g><g transform="translate(-46,-46) scale(1,1)"><path fill="none" stroke="#000000" d="M 520 313 C 520 303.6111584 557.6080768 296 604 296 C 650.3919232 296 688 303.6111584 688 313 C 688 322.3888416 650.3919232 330 604 330 C 557.6080768 330 520 322.3888416 520 313 Z" stroke-miterlimit="10"/></g><g transform="translate(-46,-46) scale(1,1)"><g><path fill="none" stroke="none"/><text fill="#000000" stroke="none" font-family="Arial" font-size="13px" font-style="normal" font-weight="bold" text-decoration="none" x="553.069580078125" y="318.2099609375">Eliminar usuario</text></g></g><g transform="translate(-46,-46) scale(1,1)"><path fill="#C0C0C0" stroke="none" d="M 439 80 C 439 70.6111584 489.8156752 63 552.5 63 C 615.1843248 63 666 70.6111584 666 80 C 666 89.3888416 615.1843248 97 552.5 97 C 489.8156752 97 439 89.3888416 439 80 Z" opacity="0.2"/></g><g transform="translate(-46,-46) scale(1,1)"><path fill="#ffffff" stroke="none" d="M 432 73 C 432 63.6111584 482.8156752 56 545.5 56 C 608.1843248 56 659 63.6111584 659 73 C 659 82.3888416 608.1843248 90 545.5 90 C 482.8156752 90 432 82.3888416 432 73 Z"/></g><g transform="translate(-46,-46) scale(1,1)"><path fill="none" stroke="#000000" d="M 432 73 C 432 63.6111584 482.8156752 56 545.5 56 C 608.1843248 56 659 63.6111584 659 73 C 659 82.3888416 608.1843248 90 545.5 90 C 482.8156752 90 432 82.3888416 432 73 Z" stroke-miterlimit="10"/></g><g transform="translate(-46,-46) scale(1,1)"><g><path fill="none" stroke="none"/><text fill="#000000" stroke="none" font-family="Arial" font-size="13px" font-style="normal" font-weight="bold" text-decoration="none" x="469.655029296875" y="78.2861328125">Asociar método de pago</text></g></g><g transform="translate(-46,-46) scale(1,1)"><path fill="none" stroke="#000000" d="M 410 104 L 467 91" stroke-miterlimit="10"/></g><g transform="translate(-46,-46) scale(1,1)"><path fill="#C0C0C0" stroke="none" d="M 439 144 C 439 134.6111584 496.7552608 127 568 127 C 639.2447392 127 697 134.6111584 697 144 C 697 153.3888416 639.2447392 161 568 161 C 496.7552608 161 439 153.3888416 439 144 Z" opacity="0.2"/></g><g transform="translate(-46,-46) scale(1,1)"><path fill="#ffffff" stroke="none" d="M 432 137 C 432 127.6111584 489.7552608 120 561 120 C 632.2447392 120 690 127.6111584 690 137 C 690 146.3888416 632.2447392 154 561 154 C 489.7552608 154 432 146.3888416 432 137 Z"/></g><g transform="translate(-46,-46) scale(1,1)"><path fill="none" stroke="#000000" d="M 432 137 C 432 127.6111584 489.7552608 120 561 120 C 632.2447392 120 690 127.6111584 690 137 C 690 146.3888416 632.2447392 154 561 154 C 489.7552608 154 432 146.3888416 432 137 Z" stroke-miterlimit="10"/></g><g transform="translate(-46,-46) scale(1,1)"><g><path fill="none" stroke="none"/><text fill="#000000" stroke="none" font-family="Arial" font-size="13px" font-style="normal" font-weight="bold" text-decoration="none" x="474.31005859375" y="142.2861328125">Desasociar método de pago</text></g></g><g transform="translate(-46,-46) scale(1,1)"><path fill="none" stroke="#000000" d="M 410 115 L 436 119" stroke-miterlimit="10"/></g><g transform="translate(-46,-46) scale(1,1)"><path fill="none" stroke="#000000" d="M 294 272 L 271 295" stroke-miterlimit="10"/></g><g transform="translate(-46,-46) scale(1,1)"><path fill="none" stroke="#000000" d="M 381 272 L 407 295" stroke-miterlimit="10"/></g><g transform="translate(-46,-46) scale(1,1)"><path fill="none" stroke="#000000" d="M 398 250 L 545 295" stroke-miterlimit="10"/></g><g transform="translate(-46,-46) scale(1,1)"><path fill="#ffffff" stroke="none" d="M 325.61296360085225 201.68 C 325.61296360085225 196.886167936 329.49880592579774 193 334.292236328125 193 C 339.08566673045226 193 342.97150905539775 196.886167936 342.97150905539775 201.68 C 342.97150905539775 206.47383206400002 339.08566673045226 210.36 334.292236328125 210.36 C 329.49880592579774 210.36 325.61296360085225 206.47383206400002 325.61296360085225 201.68 Z"/></g><g transform="translate(-46,-46) scale(1,1)"><path fill="none" stroke="#000000" d="M 325.61296360085225 201.68 C 325.61296360085225 196.886167936 329.49880592579774 193 334.292236328125 193 C 339.08566673045226 193 342.97150905539775 196.886167936 342.97150905539775 201.68 C 342.97150905539775 206.47383206400002 339.08566673045226 210.36 334.292236328125 210.36 C 329.49880592579774 210.36 325.61296360085225 206.47383206400002 325.61296360085225 201.68 Z" stroke-miterlimit="10"/></g><g transform="translate(-46,-46) scale(1,1)"><path fill="none" stroke="#000000" d="M 334.292236328125 210.36 L 334.292236328125 227.64" stroke-miterlimit="10"/></g><g transform="translate(-46,-46) scale(1,1)"><path fill="none" stroke="#000000" d="M 325.10241814630683 216.84 L 343.48205450994317 216.84" stroke-miterlimit="10"/></g><g transform="translate(-46,-46) scale(1,1)"><path fill="none" stroke="#000000" d="M 334.292236328125 227.64 L 321.52859996448865 245" stroke-miterlimit="10"/></g><g transform="translate(-46,-46) scale(1,1)"><path fill="none" stroke="#000000" d="M 334.292236328125 227.64 L 347.05587269176135 245" stroke-miterlimit="10"/></g><g transform="translate(-46,-46) scale(1,1)"><g><path fill="none" stroke="none"/><text fill="#000000" stroke="none" font-family="Arial" font-size="13px" font-style="normal" font-weight="bold" text-decoration="none" x="276.5" y="263.7099609375">Usuario registrado</text></g></g><g transform="translate(-46,-46) scale(1,1)"><path fill="none" stroke="#000000" d="M 364 152 L 349 191" stroke-miterlimit="10"/></g><g transform="translate(-46,-46) scale(1,1)"><path fill="#FFFFFF" stroke="none" d="M 348.438505523788 169.00716653195448 L 349 191 L 364.1542451310332 175.0516817655103"/></g><g transform="translate(-46,-46) scale(1,1)"><path fill="none" stroke="#000000" d="M 348.438505523788 169.00716653195448 L 349 191 L 364.1542451310332 175.0516817655103 L 348.438505523788 169.00716653195448" stroke-miterlimit="10"/></g></g></svg>