<svg version="1.1" xmlns="http://www.w3.org/2000/svg" xmlns:xlink="http://www.w3.org/1999/xlink" width="826.603515625" height="582"><defs/><g><text fill="#eeeeee" stroke="none" font-family="Arial" font-size="24px" font-style="normal" font-weight="normal" text-decoration="none" x="0" y="0">UNREGISTERED</text><text fill="#eeeeee" stroke="none" font-family="Arial" font-size="24px" font-style="normal" font-weight="normal" text-decoration="none" x="0" y="30">UNREGISTERED</text><text fill="#eeeeee" stroke="none" font-family="Arial" font-size="24px" font-style="normal" font-weight="normal" text-decoration="none" x="0" y="60">UNREGISTERED</text><text fill="#eeeeee" stroke="none" font-family="Arial" font-size="24px" font-style="normal" font-weight="normal" text-decoration="none" x="0" y="90">UNREGISTERED</text><text fill="#eeeeee" stroke="none" font-family="Arial" font-size="24px" font-style="normal" font-weight="normal" text-decoration="none" x="0" y="120">UNREGISTERED</text><text fill="#eeeeee" stroke="none" font-family="Arial" font-size="24px" font-style="normal" font-weight="normal" text-decoration="none" x="0" y="150">UNREGISTERED</text><text fill="#eeeeee" stroke="none" font-family="Arial" font-size="24px" font-style="normal" font-weight="normal" text-decoration="none" x="0" y="180">UNREGISTERED</text><text fill="#eeeeee" stroke="none" font-family="Arial" font-size="24px" font-style="normal" font-weight="normal" text-decoration="none" x="0" y="210">UNREGISTERED</text><text fill="#eeeeee" stroke="none" font-family="Arial" font-size="24px" font-style="normal" font-weight="normal" text-decoration="none" x="0" y="240">UNREGISTERED</text><text fill="#eeeeee" stroke="none" font-family="Arial" font-size="24px" font-style="normal" font-weight="normal" text-decoration="none" x="0" y="270">UNREGISTERED</text><text fill="#eeeeee" stroke="none" font-family="Arial" font-size="24px" font-style="normal" font-weight="normal" text-decoration="none" x="0" y="300">UNREGISTERED</text><text fill="#eeeeee" stroke="none" font-family="Arial" font-size="24px" font-style="normal" font-weight="normal" text-decoration="none" x="0" y="330">UNREGISTERED</text><text fill="#eeeeee" stroke="none" font-family="Arial" font-size="24px" font-style="normal" font-weight="normal" text-decoration="none" x="0" y="360">UNREGISTERED</text><text fill="#eeeeee" stroke="none" font-family="Arial" font-size="24px" font-style="normal" font-weight="normal" text-decoration="none" x="0" y="390">UNREGISTERED</text><text fill="#eeeeee" stroke="none" font-family="Arial" font-size="24px" font-style="normal" font-weight="normal" text-decoration="none" x="0" y="420">UNREGISTERED</text><text fill="#eeeeee" stroke="none" font-family="Arial" font-size="24px" font-style="normal" font-weight="normal" text-decoration="none" x="0" y="450">UNREGISTERED</text><text fill="#eeeeee" stroke="none" font-family="Arial" font-size="24px" font-style="normal" font-weight="normal" text-decoration="none" x="0" y="480">UNREGISTERED</text><text fill="#eeeeee" stroke="none" font-family="Arial" font-size="24px" font-style="normal" font-weight="normal" text-decoration="none" x="0" y="510">UNREGISTERED</text><text fill="#eeeeee" stroke="none" font-family="Arial" font-size="24px" font-style="normal" font-weight="normal" text-decoration="none" x="0" y="540">UNREGISTERED</text><text fill="#eeeeee" stroke="none" font-family="Arial" font-size="24px" font-style="normal" font-weight="normal" text-decoration="none" x="0" y="570">UNREGISTERED</text><text fill="#eeeeee" stroke="none" font-family="Arial" font-size="24px" font-style="normal" font-weight="normal" text-decoration="none" x="200" y="0">UNREGISTERED</text><text fill="#eeeeee" stroke="none" font-family="Arial" font-size="24px" font-style="normal" font-weight="normal" text-decoration="none" x="200" y="30">UNREGISTERED</text><text fill="#eeeeee" stroke="none" font-family="Arial" font-size="24px" font-style="normal" font-weight="normal" text-decoration="none" x="200" y="60">UNREGISTERED</text><text fill="#eeeeee" stroke="none" font-family="Arial" font-size="24px" font-style="normal" font-weight="normal" text-decoration="none" x="200" y="90">UNREGISTERED</text><text fill="#eeeeee" stroke="none" font-family="Arial" font-size="24px" font-style="normal" font-weight="normal" text-decoration="none" x="200" y="120">UNREGISTERED</text><text fill="#eeeeee" stroke="none" font-family="Arial" font-size="24px" font-style="normal" font-weight="normal" text-decoration="none" x="200" y="150">UNREGISTERED</text><text fill="#eeeeee" stroke="none" font-family="Arial" font-size="24px" font-style="normal" font-weight="normal" text-decoration="none" x="200" y="180">UNREGISTERED</text><text fill="#eeeeee" stroke="none" font-family="Arial" font-size="24px" font-style="normal" font-weight="normal" text-decoration="none" x="200" y="210">UNREGISTERED</text><text fill="#eeeeee" stroke="none" font-family="Arial" font-size="24px" font-style="normal" font-weight="normal" text-decoration="none" x="200" y="240">UNREGISTERED</text><text fill="#eeeeee" stroke="none" font-family="Arial" font-size="24px" font-style="normal" font-weight="normal" text-decoration="none" x="200" y="270">UNREGISTERED</text><text fill="#eeeeee" stroke="none" font-family="Arial" font-size="24px" font-style="normal" font-weight="normal" text-decoration="none" x="200" y="300">UNREGISTERED</text><text fill="#eeeeee" stroke="none" font-family="Arial" font-size="24px" font-style="normal" font-weight="normal" text-decoration="none" x="200" y="330">UNREGISTERED</text><text fill="#eeeeee" stroke="none" font-family="Arial" font-size="24px" font-style="normal" font-weight="normal" text-decoration="none" x="200" y="360">UNREGISTERED</text><text fill="#eeeeee" stroke="none" font-family="Arial" font-size="24px" font-style="normal" font-weight="normal" text-decoration="none" x="200" y="390">UNREGISTERED</text><text fill="#eeeeee" stroke="none" font-family="Arial" font-size="24px" font-style="normal" font-weight="normal" text-decoration="none" x="200" y="420">UNREGISTERED</text><text fill="#eeeeee" stroke="none" font-family="Arial" font-size="24px" font-style="normal" font-weight="normal" text-decoration="none" x="200" y="450">UNREGISTERED</text><text fill="#eeeeee" stroke="none" font-family="Arial" font-size="24px" font-style="normal" font-weight="normal" text-decoration="none" x="200" y="480">UNREGISTERED</text><text fill="#eeeeee" stroke="none" font-family="Arial" font-size="24px" font-style="normal" font-weight="normal" text-decoration="none" x="200" y="510">UNREGISTERED</text><text fill="#eeeeee" stroke="none" font-family="Arial" font-size="24px" font-style="normal" font-weight="normal" text-decoration="none" x="200" y="540">UNREGISTERED</text><text fill="#eeeeee" stroke="none" font-family="Arial" font-size="24px" font-style="normal" font-weight="normal" text-decoration="none" x="200" y="570">UNREGISTERED</text><text fill="#eeeeee" stroke="none" font-family="Arial" font-size="24px" font-style="normal" font-weight="normal" text-decoration="none" x="400" y="0">UNREGISTERED</text><text fill="#eeeeee" stroke="none" font-family="Arial" font-size="24px" font-style="normal" font-weight="normal" text-decoration="none" x="400" y="30">UNREGISTERED</text><text fill="#eeeeee" stroke="none" font-family="Arial" font-size="24px" font-style="normal" font-weight="normal" text-decoration="none" x="400" y="60">UNREGISTERED</text><text fill="#eeeeee" stroke="none" font-family="Arial" font-size="24px" font-style="normal" font-weight="normal" text-decoration="none" x="400" y="90">UNREGISTERED</text><text fill="#eeeeee" stroke="none" font-family="Arial" font-size="24px" font-style="normal" font-weight="normal" text-decoration="none" x="400" y="120">UNREGISTERED</text><text fill="#eeeeee" stroke="none" font-family="Arial" font-size="24px" font-style="normal" font-weight="normal" text-decoration="none" x="400" y="150">UNREGISTERED</text><text fill="#eeeeee" stroke="none" font-family="Arial" font-size="24px" font-style="normal" font-weight="normal" text-decoration="none" x="400" y="180">UNREGISTERED</text><text fill="#eeeeee" stroke="none" font-family="Arial" font-size="24px" font-style="normal" font-weight="normal" text-decoration="none" x="400" y="210">UNREGISTERED</text><text fill="#eeeeee" stroke="none" font-family="Arial" font-size="24px" font-style="normal" font-weight="normal" text-decoration="none" x="400" y="240">UNREGISTERED</text><text fill="#eeeeee" stroke="none" font-family="Arial" font-size="24px" font-style="normal" font-weight="normal" text-decoration="none" x="400" y="270">UNREGISTERED</text><text fill="#eeeeee" stroke="none" font-family="Arial" font-size="24px" font-style="normal" font-weight="normal" text-decoration="none" x="400" y="300">UNREGISTERED</text><text fill="#eeeeee" stroke="none" font-family="Arial" font-size="24px" font-style="normal" font-weight="normal" text-decoration="none" x="400" y="330">UNREGISTERED</text><text fill="#eeeeee" stroke="none" font-family="Arial" font-size="24px" font-style="normal" font-weight="normal" text-decoration="none" x="400" y="360">UNREGISTERED</text><text fill="#eeeeee" stroke="none" font-family="Arial" font-size="24px" font-style="normal" font-weight="normal" text-decoration="none" x="400" y="390">UNREGISTERED</text><text fill="#eeeeee" stroke="none" font-family="Arial" font-size="24px" font-style="normal" font-weight="normal" text-decoration="none" x="400" y="420">UNREGISTERED</text><text fill="#eeeeee" stroke="none" font-family="Arial" font-size="24px" font-style="normal" font-weight="normal" text-decoration="none" x="400" y="450">UNREGISTERED</text><text fill="#eeeeee" stroke="none" font-family="Arial" font-size="24px" font-style="normal" font-weight="normal" text-decoration="none" x="400" y="480">UNREGISTERED</text><text fill="#eeeeee" stroke="none" font-family="Arial" font-size="24px" font-style="normal" font-weight="normal" text-decoration="none" x="400" y="510">UNREGISTERED</text><text fill="#eeeeee" stroke="none" font-family="Arial" font-size="24px" font-style="normal" font-weight="normal" text-decoration="none" x="400" y="540">UNREGISTERED</text><text fill="#eeeeee" stroke="none" font-family="Arial" font-size="24px" font-style="normal" font-weight="normal" text-decoration="none" x="400" y="570">UNREGISTERED</text><text fill="#eeeeee" stroke="none" font-family="Arial" font-size="24px" font-style="normal" font-weight="normal" text-decoration="none" x="600" y="0">UNREGISTERED</text><text fill="#eeeeee" stroke="none" font-family="Arial" font-size="24px" font-style="normal" font-weight="normal" text-decoration="none" x="600" y="30">UNREGISTERED</text><text fill="#eeeeee" stroke="none" font-family="Arial" font-size="24px" font-style="normal" font-weight="normal" text-decoration="none" x="600" y="60">UNREGISTERED</text><text fill="#eeeeee" stroke="none" font-family="Arial" font-size="24px" font-style="normal" font-weight="normal" text-decoration="none" x="600" y="90">UNREGISTERED</text><text fill="#eeeeee" stroke="none" font-family="Arial" font-size="24px" font-style="normal" font-weight="normal" text-decoration="none" x="600" y="120">UNREGISTERED</text><text fill="#eeeeee" stroke="none" font-family="Arial" font-size="24px" font-style="normal" font-weight="normal" text-decoration="none" x="600" y="150">UNREGISTERED</text><text fill="#eeeeee" stroke="none" font-family="Arial" font-size="24px" font-style="normal" font-weight="normal" text-decoration="none" x="600" y="180">UNREGISTERED</text><text fill="#eeeeee" stroke="none" font-family="Arial" font-size="24px" font-style="normal" font-weight="normal" text-decoration="none" x="600" y="210">UNREGISTERED</text><text fill="#eeeeee" stroke="none" font-family="Arial" font-size="24px" font-style="normal" font-weight="normal" text-decoration="none" x="600" y="240">UNREGISTERED</text><text fill="#eeeeee" stroke="none" font-family="Arial" font-size="24px" font-style="normal" font-weight="normal" text-decoration="none" x="600" y="270">UNREGISTERED</text><text fill="#eeeeee" stroke="none" font-family="Arial" font-size="24px" font-style="normal" font-weight="normal" text-decoration="none" x="600" y="300">UNREGISTERED</text><text fill="#eeeeee" stroke="none" font-family="Arial" font-size="24px" font-style="normal" font-weight="normal" text-decoration="none" x="600" y="330">UNREGISTERED</text><text fill="#eeeeee" stroke="none" font-family="Arial" font-size="24px" font-style="normal" font-weight="normal" text-decoration="none" x="600" y="360">UNREGISTERED</text><text fill="#eeeeee" stroke="none" font-family="Arial" font-size="24px" font-style="normal" font-weight="normal" text-decoration="none" x="600" y="390">UNREGISTERED</text><text fill="#eeeeee" stroke="none" font-family="Arial" font-size="24px" font-style="normal" font-weight="normal" text-decoration="none" x="600" y="420">UNREGISTERED</text><text fill="#eeeeee" stroke="none" font-family="Arial" font-size="24px" font-style="normal" font-weight="normal" text-decoration="none" x="600" y="450">UNREGISTERED</text><text fill="#eeeeee" stroke="none" font-family="Arial" font-size="24px" font-style="normal" font-weight="normal" text-decoration="none" x="600" y="480">UNREGISTERED</text><text fill="#eeeeee" stroke="none" font-family="Arial" font-size="24px" font-style="normal" font-weight="normal" text-decoration="none" x="600" y="510">UNREGISTERED</text><text fill="#eeeeee" stroke="none" font-family="Arial" font-size="24px" font-style="normal" font-weight="normal" text-decoration="none" x="600" y="540">UNREGISTERED</text><text fill="#eeeeee" stroke="none" font-family="Arial" font-size="24px" font-style="normal" font-weight="normal" text-decoration="none" x="600" y="570">UNREGISTERED</text><text fill="#eeeeee" stroke="none" font-family="Arial" font-size="24px" font-style="normal" font-weight="normal" text-decoration="none" x="800" y="0">UNREGISTERED</text><text fill="#eeeeee" stroke="none" font-family="Arial" font-size="24px" font-style="normal" font-weight="normal" text-decoration="none" x="800" y="30">UNREGISTERED</text><text fill="#eeeeee" stroke="none" font-family="Arial" font-size="24px" font-style="normal" font-weight="normal" text-decoration="none" x="800" y="60">UNREGISTERED</text><text fill="#eeeeee" stroke="none" font-family="Arial" font-size="24px" font-style="normal" font-weight="normal" text-decoration="none" x="800" y="90">UNREGISTERED</text><text fill="#eeeeee" stroke="none" font-family="Arial" font-size="24px" font-style="normal" font-weight="normal" text-decoration="none" x="800" y="120">UNREGISTERED</text><text fill="#eeeeee" stroke="none" font-family="Arial" font-size="24px" font-style="normal" font-weight="normal" text-decoration="none" x="800" y="150">UNREGISTERED</text><text fill="#eeeeee" stroke="none" font-family="Arial" font-size="24px" font-style="normal" font-weight="normal" text-decoration="none" x="800" y="180">UNREGISTERED</text><text fill="#eeeeee" stroke="none" font-family="Arial" font-size="24px" font-style="normal" font-weight="normal" text-decoration="none" x="800" y="210">UNREGISTERED</text><text fill="#eeeeee" stroke="none" font-family="Arial" font-size="24px" font-style="normal" font-weight="normal" text-decoration="none" x="800" y="240">UNREGISTERED</text><text fill="#eeeeee" stroke="none" font-family="Arial" font-size="24px" font-style="normal" font-weight="normal" text-decoration="none" x="800" y="270">UNREGISTERED</text><text fill="#eeeeee" stroke="none" font-family="Arial" font-size="24px" font-style="normal" font-weight="normal" text-decoration="none" x="800" y="300">UNREGISTERED</text><text fill="#eeeeee" stroke="none" font-family="Arial" font-size="24px" font-style="normal" font-weight="normal" text-decoration="none" x="800" y="330">UNREGISTERED</text><text fill="#eeeeee" stroke="none" font-family="Arial" font-size="24px" font-style="normal" font-weight="normal" text-decoration="none" x="800" y="360">UNREGISTERED</text><text fill="#eeeeee" stroke="none" font-family="Arial" font-size="24px" font-style="normal" font-weight="normal" text-decoration="none" x="800" y="390">UNREGISTERED</text><text fill="#eeeeee" stroke="none" font-family="Arial" font-size="24px" font-style="normal" font-weight="normal" text-decoration="none" x="800" y="420">UNREGISTERED</text><text fill="#eeeeee" stroke="none" font-family="Arial" font-size="24px" font-style="normal" font-weight="normal" text-decoration="none" x="800" y="450">UNREGISTERED</text><text fill="#eeeeee" stroke="none" font-family="Arial" font-size="24px" font-style="normal" font-weight="normal" text-decoration="none" x="800" y="480">UNREGISTERED</text><text fill="#eeeeee" stroke="none" font-family="Arial" font-size="24px" font-style="normal" font-weight="normal" text-decoration="none" x="800" y="510">UNREGISTERED</text><text fill="#eeeeee" stroke="none" font-family="Arial" font-size="24px" font-style="normal" font-weight="normal" text-decoration="none" x="800" y="540">UNREGISTERED</text><text fill="#eeeeee" stroke="none" font-family="Arial" font-size="24px" font-style="normal" font-weight="normal" text-decoration="none" x="800" y="570">UNREGISTERED</text><g transform="translate(-22,-46) scale(1,1)"><path fill="#ffffff" stroke="none" d="M 568.2416257102273 65.68 C 568.2416257102273 60.88616793600001 572.1274680351727 57 576.9208984375 57 C 581.7143288398273 57 585.6001711647727 60.88616793600001 585.6001711647727 65.68 C 585.6001711647727 70.473832064 581.7143288398273 74.36 576.9208984375 74.36 C 572.1274680351727 74.36 568.2416257102273 70.473832064 568.2416257102273 65.68 Z"/></g><g transform="translate(-22,-46) scale(1,1)"><path fill="none" stroke="#000000" d="M 568.2416257102273 65.68 C 568.2416257102273 60.88616793600001 572.1274680351727 57 576.9208984375 57 C 581.7143288398273 57 585.6001711647727 60.88616793600001 585.6001711647727 65.68 C 585.6001711647727 70.473832064 581.7143288398273 74.36 576.9208984375 74.36 C 572.1274680351727 74.36 568.2416257102273 70.473832064 568.2416257102273 65.68 Z" stroke-miterlimit="10"/></g><g transform="translate(-22,-46) scale(1,1)"><path fill="none" stroke="#000000" d="M 576.9208984375 74.36 L 576.9208984375 91.64" stroke-miterlimit="10"/></g><g transform="translate(-22,-46) scale(1,1)"><path fill="none" stroke="#000000" d="M 567.7310802556818 80.84 L 586.1107166193182 80.84" stroke-miterlimit="10"/></g><g transform="translate(-22,-46) scale(1,1)"><path fill="none" stroke="#000000" d="M 576.9208984375 91.64 L 564.1572620738636 109" stroke-miterlimit="10"/></g><g transform="translate(-22,-46) scale(1,1)"><path fill="none" stroke="#000000" d="M 576.9208984375 91.64 L 589.6845348011364 109" stroke-miterlimit="10"/></g><g transform="translate(-22,-46) scale(1,1)"><g><path fill="none" stroke="none"/><text fill="#000000" stroke="none" font-family="Arial" font-size="13px" font-style="normal" font-weight="bold" text-decoration="none" x="532.5" y="127.7099609375">Administrador</text></g></g><g transform="translate(-22,-46) scale(1,1)"><path fill="#ffffff" stroke="none" d="M 754.6224850852273 169.68 C 754.6224850852273 164.886167936 758.5083274101727 161 763.3017578125 161 C 768.0951882148273 161 771.9810305397727 164.886167936 771.9810305397727 169.68 C 771.9810305397727 174.47383206400002 768.0951882148273 178.36 763.3017578125 178.36 C 758.5083274101727 178.36 754.6224850852273 174.47383206400002 754.6224850852273 169.68 Z"/></g><g transform="translate(-22,-46) scale(1,1)"><path fill="none" stroke="#000000" d="M 754.6224850852273 169.68 C 754.6224850852273 164.886167936 758.5083274101727 161 763.3017578125 161 C 768.0951882148273 161 771.9810305397727 164.886167936 771.9810305397727 169.68 C 771.9810305397727 174.47383206400002 768.0951882148273 178.36 763.3017578125 178.36 C 758.5083274101727 178.36 754.6224850852273 174.47383206400002 754.6224850852273 169.68 Z" stroke-miterlimit="10"/></g><g transform="translate(-22,-46) scale(1,1)"><path fill="none" stroke="#000000" d="M 763.3017578125 178.36 L 763.3017578125 195.64" stroke-miterlimit="10"/></g><g transform="translate(-22,-46) scale(1,1)"><path fill="none" stroke="#000000" d="M 754.1119396306818 184.84 L 772.4915759943182 184.84" stroke-miterlimit="10"/></g><g transform="translate(-22,-46) scale(1,1)"><path fill="none" stroke="#000000" d="M 763.3017578125 195.64 L 750.5381214488636 213" stroke-miterlimit="10"/></g><g transform="translate(-22,-46) scale(1,1)"><path fill="none" stroke="#000000" d="M 763.3017578125 195.64 L 776.0653941761364 213" stroke-miterlimit="10"/></g><g transform="translate(-22,-46) scale(1,1)"><g><path fill="none" stroke="none"/><text fill="#000000" stroke="none" font-family="Arial" font-size="13px" font-style="normal" font-weight="bold" text-decoration="none" x="692.5" y="231.7099609375">Empresa de transporte</text></g></g><g transform="translate(-22,-46) scale(1,1)"><path fill="#ffffff" stroke="none" d="M 52.02116672585227 305.68 C 52.02116672585227 300.886167936 55.907009050797726 297 60.700439453125 297 C 65.49386985545227 297 69.37971218039773 300.886167936 69.37971218039773 305.68 C 69.37971218039773 310.473832064 65.49386985545227 314.36 60.700439453125 314.36 C 55.907009050797726 314.36 52.02116672585227 310.473832064 52.02116672585227 305.68 Z"/></g><g transform="translate(-22,-46) scale(1,1)"><path fill="none" stroke="#000000" d="M 52.02116672585227 305.68 C 52.02116672585227 300.886167936 55.907009050797726 297 60.700439453125 297 C 65.49386985545227 297 69.37971218039773 300.886167936 69.37971218039773 305.68 C 69.37971218039773 310.473832064 65.49386985545227 314.36 60.700439453125 314.36 C 55.907009050797726 314.36 52.02116672585227 310.473832064 52.02116672585227 305.68 Z" stroke-miterlimit="10"/></g><g transform="translate(-22,-46) scale(1,1)"><path fill="none" stroke="#000000" d="M 60.700439453125 314.36 L 60.700439453125 331.64" stroke-miterlimit="10"/></g><g transform="translate(-22,-46) scale(1,1)"><path fill="none" stroke="#000000" d="M 51.51062127130682 320.84 L 69.89025763494318 320.84" stroke-miterlimit="10"/></g><g transform="translate(-22,-46) scale(1,1)"><path fill="none" stroke="#000000" d="M 60.700439453125 331.64 L 47.936803089488635 349" stroke-miterlimit="10"/></g><g transform="translate(-22,-46) scale(1,1)"><path fill="none" stroke="#000000" d="M 60.700439453125 331.64 L 73.46407581676137 349" stroke-miterlimit="10"/></g><g transform="translate(-22,-46) scale(1,1)"><g><path fill="none" stroke="none"/><text fill="#000000" stroke="none" font-family="Arial" font-size="13px" font-style="normal" font-weight="bold" text-decoration="none" x="36.5" y="367.7099609375">Usuario</text></g></g><g transform="translate(-22,-46) scale(1,1)"><path fill="#C0C0C0" stroke="none" d="M 287 352 C 287 342.6111584 312.5197664 335 344 335 C 375.4802336 335 401 342.6111584 401 352 C 401 361.3888416 375.4802336 369 344 369 C 312.5197664 369 287 361.3888416 287 352 Z" opacity="0.2"/></g><g transform="translate(-22,-46) scale(1,1)"><path fill="#ffffff" stroke="none" d="M 280 345 C 280 335.6111584 305.5197664 328 337 328 C 368.4802336 328 394 335.6111584 394 345 C 394 354.3888416 368.4802336 362 337 362 C 305.5197664 362 280 354.3888416 280 345 Z"/></g><g transform="translate(-22,-46) scale(1,1)"><path fill="none" stroke="#000000" d="M 280 345 C 280 335.6111584 305.5197664 328 337 328 C 368.4802336 328 394 335.6111584 394 345 C 394 354.3888416 368.4802336 362 337 362 C 305.5197664 362 280 354.3888416 280 345 Z" stroke-miterlimit="10"/></g><g transform="translate(-22,-46) scale(1,1)"><g><path fill="none" stroke="none"/><text fill="#000000" stroke="none" font-family="Arial" font-size="13px" font-style="normal" font-weight="bold" text-decoration="none" x="301.234130859375" y="350.2861328125">Crear envío</text></g></g><g transform="translate(-22,-46) scale(1,1)"><path fill="#C0C0C0" stroke="none" d="M 223 400 C 223 390.6111584 271.129384 383 330.5 383 C 389.870616 383 438 390.6111584 438 400 C 438 409.3888416 389.870616 417 330.5 417 C 271.129384 417 223 409.3888416 223 400 Z" opacity="0.2"/></g><g transform="translate(-22,-46) scale(1,1)"><path fill="#ffffff" stroke="none" d="M 216 393 C 216 383.6111584 264.129384 376 323.5 376 C 382.870616 376 431 383.6111584 431 393 C 431 402.3888416 382.870616 410 323.5 410 C 264.129384 410 216 402.3888416 216 393 Z"/></g><g transform="translate(-22,-46) scale(1,1)"><path fill="none" stroke="#000000" d="M 216 393 C 216 383.6111584 264.129384 376 323.5 376 C 382.870616 376 431 383.6111584 431 393 C 431 402.3888416 382.870616 410 323.5 410 C 264.129384 410 216 402.3888416 216 393 Z" stroke-miterlimit="10"/></g><g transform="translate(-22,-46) scale(1,1)"><g><path fill="none" stroke="none"/><text fill="#000000" stroke="none" font-family="Arial" font-size="13px" font-style="normal" font-weight="bold" text-decoration="none" x="251.984130859375" y="398.2861328125">Añadir paquete a envío</text></g></g><g transform="translate(-22,-46) scale(1,1)"><path fill="#C0C0C0" stroke="none" d="M 191 456 C 191 446.6111584 244.725824 439 311 439 C 377.274176 439 431 446.6111584 431 456 C 431 465.3888416 377.274176 473 311 473 C 244.725824 473 191 465.3888416 191 456 Z" opacity="0.2"/></g><g transform="translate(-22,-46) scale(1,1)"><path fill="#ffffff" stroke="none" d="M 184 449 C 184 439.6111584 237.725824 432 304 432 C 370.274176 432 424 439.6111584 424 449 C 424 458.3888416 370.274176 466 304 466 C 237.725824 466 184 458.3888416 184 449 Z"/></g><g transform="translate(-22,-46) scale(1,1)"><path fill="none" stroke="#000000" d="M 184 449 C 184 439.6111584 237.725824 432 304 432 C 370.274176 432 424 439.6111584 424 449 C 424 458.3888416 370.274176 466 304 466 C 237.725824 466 184 458.3888416 184 449 Z" stroke-miterlimit="10"/></g><g transform="translate(-22,-46) scale(1,1)"><g><path fill="none" stroke="none"/><text fill="#000000" stroke="none" font-family="Arial" font-size="13px" font-style="normal" font-weight="bold" text-decoration="none" x="223.451416015625" y="454.2861328125">Eliminar paquete de envío</text></g></g><g transform="translate(-22,-46) scale(1,1)"><path fill="none" stroke="#000000" d="M 90 336 L 279 343" stroke-miterlimit="10"/></g><g transform="translate(-22,-46) scale(1,1)"><path fill="none" stroke="#000000" d="M 90 342 L 241 375" stroke-miterlimit="10"/></g><g transform="translate(-22,-46) scale(1,1)"><path fill="none" stroke="#000000" d="M 90 349 L 265 431" stroke-miterlimit="10"/></g><g transform="translate(-22,-46) scale(1,1)"><path fill="#C0C0C0" stroke="none" d="M 239 144 C 239 134.6111584 271.90706720000003 127 312.5 127 C 353.09293279999997 127 386 134.6111584 386 144 C 386 153.3888416 353.09293279999997 161 312.5 161 C 271.90706720000003 161 239 153.3888416 239 144 Z" opacity="0.2"/></g><g transform="translate(-22,-46) scale(1,1)"><path fill="#ffffff" stroke="none" d="M 232 137 C 232 127.6111584 264.90706720000003 120 305.5 120 C 346.09293279999997 120 379 127.6111584 379 137 C 379 146.3888416 346.09293279999997 154 305.5 154 C 264.90706720000003 154 232 146.3888416 232 137 Z"/></g><g transform="translate(-22,-46) scale(1,1)"><path fill="none" stroke="#000000" d="M 232 137 C 232 127.6111584 264.90706720000003 120 305.5 120 C 346.09293279999997 120 379 127.6111584 379 137 C 379 146.3888416 346.09293279999997 154 305.5 154 C 264.90706720000003 154 232 146.3888416 232 137 Z" stroke-miterlimit="10"/></g><g transform="translate(-22,-46) scale(1,1)"><g><path fill="none" stroke="none"/><text fill="#000000" stroke="none" font-family="Arial" font-size="13px" font-style="normal" font-weight="bold" text-decoration="none" x="257.825927734375" y="142.2861328125">Modificar envío</text></g></g><g transform="translate(-22,-46) scale(1,1)"><path fill="#C0C0C0" stroke="none" d="M 191 96 C 191 86.6111584 221.8923488 79 260 79 C 298.1076512 79 329 86.6111584 329 96 C 329 105.3888416 298.1076512 113 260 113 C 221.8923488 113 191 105.3888416 191 96 Z" opacity="0.2"/></g><g transform="translate(-22,-46) scale(1,1)"><path fill="#ffffff" stroke="none" d="M 184 89 C 184 79.6111584 214.8923488 72 253 72 C 291.1076512 72 322 79.6111584 322 89 C 322 98.3888416 291.1076512 106 253 106 C 214.8923488 106 184 98.3888416 184 89 Z"/></g><g transform="translate(-22,-46) scale(1,1)"><path fill="none" stroke="#000000" d="M 184 89 C 184 79.6111584 214.8923488 72 253 72 C 291.1076512 72 322 79.6111584 322 89 C 322 98.3888416 291.1076512 106 253 106 C 214.8923488 106 184 98.3888416 184 89 Z" stroke-miterlimit="10"/></g><g transform="translate(-22,-46) scale(1,1)"><g><path fill="none" stroke="none"/><text fill="#000000" stroke="none" font-family="Arial" font-size="13px" font-style="normal" font-weight="bold" text-decoration="none" x="208.569580078125" y="94.2861328125">Eliminar envío</text></g></g><g transform="translate(-22,-46) scale(1,1)"><path fill="#C0C0C0" stroke="none" d="M 271 192 C 271 182.6111584 305.0263552 175 347 175 C 388.9736448 175 423 182.6111584 423 192 C 423 201.3888416 388.9736448 209 347 209 C 305.0263552 209 271 201.3888416 271 192 Z" opacity="0.2"/></g><g transform="translate(-22,-46) scale(1,1)"><path fill="#ffffff" stroke="none" d="M 264 185 C 264 175.6111584 298.0263552 168 340 168 C 381.9736448 168 416 175.6111584 416 185 C 416 194.3888416 381.9736448 202 340 202 C 298.0263552 202 264 194.3888416 264 185 Z"/></g><g transform="translate(-22,-46) scale(1,1)"><path fill="none" stroke="#000000" d="M 264 185 C 264 175.6111584 298.0263552 168 340 168 C 381.9736448 168 416 175.6111584 416 185 C 416 194.3888416 381.9736448 202 340 202 C 298.0263552 202 264 194.3888416 264 185 Z" stroke-miterlimit="10"/></g><g transform="translate(-22,-46) scale(1,1)"><g><path fill="none" stroke="none"/><text fill="#000000" stroke="none" font-family="Arial" font-size="13px" font-style="normal" font-weight="bold" text-decoration="none" x="290.8818359375" y="190.2861328125">Consultar envío</text></g></g><g transform="translate(-22,-46) scale(1,1)"><path fill="none" stroke="#000000" d="M 90 310 L 283 155" stroke-miterlimit="10"/></g><g transform="translate(-22,-46) scale(1,1)"><path fill="none" stroke="#000000" d="M 90 296 L 239 107" stroke-miterlimit="10"/></g><g transform="translate(-22,-46) scale(1,1)"><path fill="none" stroke="#000000" d="M 90 319 L 306 203" stroke-miterlimit="10"/></g><g transform="translate(-22,-46) scale(1,1)"><path fill="none" stroke="#000000" d="M 527 114 L 387 167" stroke-miterlimit="10"/></g><g transform="translate(-22,-46) scale(1,1)"><path fill="none" stroke="#000000" d="M 687 196 L 417 188" stroke-miterlimit="10"/></g><g transform="translate(-22,-46) scale(1,1)"><path fill="none" stroke="#000000" d="M 323 90 L 527 94" stroke-miterlimit="10"/></g><g transform="translate(-22,-46) scale(1,1)"><path fill="none" stroke="#000000" d="M 380 125 L 527 103" stroke-miterlimit="10"/></g><g transform="translate(-22,-46) scale(1,1)"><path fill="#C0C0C0" stroke="none" d="M 151 517.5 C 151 509.4918704 191.5182256 503 241.5 503 C 291.4817744 503 332 509.4918704 332 517.5 C 332 525.5081296 291.4817744 532 241.5 532 C 191.5182256 532 151 525.5081296 151 517.5 Z" opacity="0.2"/></g><g transform="translate(-22,-46) scale(1,1)"><path fill="#ffffff" stroke="none" d="M 144 510.5 C 144 502.4918704 184.5182256 496 234.5 496 C 284.4817744 496 325 502.4918704 325 510.5 C 325 518.5081296 284.4817744 525 234.5 525 C 184.5182256 525 144 518.5081296 144 510.5 Z"/></g><g transform="translate(-22,-46) scale(1,1)"><path fill="none" stroke="#000000" d="M 144 510.5 C 144 502.4918704 184.5182256 496 234.5 496 C 284.4817744 496 325 502.4918704 325 510.5 C 325 518.5081296 284.4817744 525 234.5 525 C 184.5182256 525 144 518.5081296 144 510.5 Z" stroke-miterlimit="10"/></g><g transform="translate(-22,-46) scale(1,1)"><path fill="none" stroke="#000000" d="M 144 530 L 325 530" stroke-miterlimit="10"/></g><g transform="translate(-22,-46) scale(1,1)"><g><path fill="none" stroke="none"/><text fill="#000000" stroke="none" font-family="Arial" font-size="13px" font-style="normal" font-weight="bold" text-decoration="none" x="174.905029296875" y="518.2861328125">Checkout del envío</text></g></g><g transform="translate(-22,-46) scale(1,1)"><g><path fill="none" stroke="none"/><text fill="#000000" stroke="none" font-family="Arial" font-size="13px" font-style="normal" font-weight="normal" text-decoration="none" x="149" y="545.7861328125">cupón</text></g></g><g transform="translate(-22,-46) scale(1,1)"><path fill="#C0C0C0" stroke="none" d="M 439 512 C 439 502.6111584 469.220776 495 506.5 495 C 543.779224 495 574 502.6111584 574 512 C 574 521.3888416 543.779224 529 506.5 529 C 469.220776 529 439 521.3888416 439 512 Z" opacity="0.2"/></g><g transform="translate(-22,-46) scale(1,1)"><path fill="#ffffff" stroke="none" d="M 432 505 C 432 495.6111584 462.220776 488 499.5 488 C 536.779224 488 567 495.6111584 567 505 C 567 514.3888416 536.779224 522 499.5 522 C 462.220776 522 432 514.3888416 432 505 Z"/></g><g transform="translate(-22,-46) scale(1,1)"><path fill="none" stroke="#000000" d="M 432 505 C 432 495.6111584 462.220776 488 499.5 488 C 536.779224 488 567 495.6111584 567 505 C 567 514.3888416 536.779224 522 499.5 522 C 462.220776 522 432 514.3888416 432 505 Z" stroke-miterlimit="10"/></g><g transform="translate(-22,-46) scale(1,1)"><g><path fill="none" stroke="none"/><text fill="#000000" stroke="none" font-family="Arial" font-size="13px" font-style="normal" font-weight="bold" text-decoration="none" x="456.161376953125" y="510.2861328125">Aplicar cupón</text></g></g><g transform="translate(-22,-46) scale(1,1)"><path fill="none" stroke="#000000" d="M 431 510 L 326 517" stroke-miterlimit="10" stroke-dasharray="3"/></g><g transform="translate(-22,-46) scale(1,1)"><path fill="none" stroke="#000000" d="M 335.86015318114744 512.1237945855094 L 326 517 L 336.4201790929724 520.5241832628826" stroke-miterlimit="10"/></g><g transform="translate(-22,-46) scale(1,1)"><g><path fill="none" stroke="none"/><text fill="#000000" stroke="none" font-family="Arial" font-size="13px" font-style="normal" font-weight="normal" text-decoration="none" x="355.5" y="502.7099609375">«extend»</text></g></g><g transform="translate(-22,-46) scale(1,1)"><path fill="#C0C0C0" stroke="none" d="M 399 592 C 399 582.6111584 421.6096176 575 449.5 575 C 477.3903824 575 500 582.6111584 500 592 C 500 601.3888416 477.3903824 609 449.5 609 C 421.6096176 609 399 601.3888416 399 592 Z" opacity="0.2"/></g><g transform="translate(-22,-46) scale(1,1)"><path fill="#ffffff" stroke="none" d="M 392 585 C 392 575.6111584 414.6096176 568 442.5 568 C 470.3903824 568 493 575.6111584 493 585 C 493 594.3888416 470.3903824 602 442.5 602 C 414.6096176 602 392 594.3888416 392 585 Z"/></g><g transform="translate(-22,-46) scale(1,1)"><path fill="none" stroke="#000000" d="M 392 585 C 392 575.6111584 414.6096176 568 442.5 568 C 470.3903824 568 493 575.6111584 493 585 C 493 594.3888416 470.3903824 602 442.5 602 C 414.6096176 602 392 594.3888416 392 585 Z" stroke-miterlimit="10"/></g><g transform="translate(-22,-46) scale(1,1)"><g><path fill="none" stroke="none"/><text fill="#000000" stroke="none" font-family="Arial" font-size="13px" font-style="normal" font-weight="bold" text-decoration="none" x="424.4345703125" y="589.971923828125">Pagar</text></g></g><g transform="translate(-22,-46) scale(1,1)"><path fill="none" stroke="#000000" d="M 326 551 L 391 570" stroke-miterlimit="10" stroke-dasharray="3"/></g><g transform="translate(-22,-46) scale(1,1)"><path fill="none" stroke="#000000" d="M 380.06446287766437 571.1891290283312 L 391 570 L 382.42656634524053 563.1082487445179" stroke-miterlimit="10"/></g><g transform="translate(-22,-46) scale(1,1)"><g><path fill="none" stroke="none"/><text fill="#000000" stroke="none" font-family="Arial" font-size="13px" font-style="normal" font-weight="normal" text-decoration="none" x="329.5" y="580.7099609375">«include»</text></g></g><g transform="translate(-22,-46) scale(1,1)"><path fill="none" stroke="#000000" d="M 90 368 L 207 495" stroke-miterlimit="10"/></g><g transform="translate(-22,-46) scale(1,1)"><path fill="#C0C0C0" stroke="none" d="M 223 608 C 223 598.6111584 253.4446336 591 291 591 C 328.5553664 591 359 598.6111584 359 608 C 359 617.3888416 328.5553664 625 291 625 C 253.4446336 625 223 617.3888416 223 608 Z" opacity="0.2"/></g><g transform="translate(-22,-46) scale(1,1)"><path fill="#ffffff" stroke="none" d="M 216 601 C 216 591.6111584 246.4446336 584 284 584 C 321.5553664 584 352 591.6111584 352 601 C 352 610.3888416 321.5553664 618 284 618 C 246.4446336 618 216 610.3888416 216 601 Z"/></g><g transform="translate(-22,-46) scale(1,1)"><path fill="none" stroke="#000000" d="M 216 601 C 216 591.6111584 246.4446336 584 284 584 C 321.5553664 584 352 591.6111584 352 601 C 352 610.3888416 321.5553664 618 284 618 C 246.4446336 618 216 610.3888416 216 601 Z" stroke-miterlimit="10"/></g><g transform="translate(-22,-46) scale(1,1)"><g><path fill="none" stroke="none"/><text fill="#000000" stroke="none" font-family="Arial" font-size="13px" font-style="normal" font-weight="bold" text-decoration="none" x="240.28369140625" y="606.2099609375">Generar ticket</text></g></g><g transform="translate(-22,-46) scale(1,1)"><path fill="none" stroke="#000000" d="M 253 554 L 272 583" stroke-miterlimit="10" stroke-dasharray="3"/></g><g transform="translate(-22,-46) scale(1,1)"><path fill="none" stroke="#000000" d="M 262.90948935632576 576.8062437699531 L 272 583 L 269.9516853106921 572.1923912481268" stroke-miterlimit="10"/></g><g transform="translate(-22,-46) scale(1,1)"><g><path fill="none" stroke="none"/><text fill="#000000" stroke="none" font-family="Arial" font-size="13px" font-style="normal" font-weight="normal" text-decoration="none" x="191.5" y="569.7099609375">«include»</text></g></g><g transform="translate(-22,-46) scale(1,1)"><path fill="#C0C0C0" stroke="none" d="M 255 256 C 255 246.6111584 314.0984064 239 387 239 C 459.9015936 239 519 246.6111584 519 256 C 519 265.3888416 459.9015936 273 387 273 C 314.0984064 273 255 265.3888416 255 256 Z" opacity="0.2"/></g><g transform="translate(-22,-46) scale(1,1)"><path fill="#ffffff" stroke="none" d="M 248 249 C 248 239.6111584 307.0984064 232 380 232 C 452.9015936 232 512 239.6111584 512 249 C 512 258.3888416 452.9015936 266 380 266 C 307.0984064 266 248 258.3888416 248 249 Z"/></g><g transform="translate(-22,-46) scale(1,1)"><path fill="none" stroke="#000000" d="M 248 249 C 248 239.6111584 307.0984064 232 380 232 C 452.9015936 232 512 239.6111584 512 249 C 512 258.3888416 452.9015936 266 380 266 C 307.0984064 266 248 258.3888416 248 249 Z" stroke-miterlimit="10"/></g><g transform="translate(-22,-46) scale(1,1)"><g><path fill="none" stroke="none"/><text fill="#000000" stroke="none" font-family="Arial" font-size="13px" font-style="normal" font-weight="bold" text-decoration="none" x="291.148681640625" y="254.2861328125">Consultar envíos pendientes</text></g></g><g transform="translate(-22,-46) scale(1,1)"><path fill="none" stroke="#000000" d="M 90 327 L 313 267" stroke-miterlimit="10"/></g><g transform="translate(-22,-46) scale(1,1)"><path fill="#C0C0C0" stroke="none" d="M 255 304 C 255 294.6111584 312.083688 287 382.5 287 C 452.916312 287 510 294.6111584 510 304 C 510 313.3888416 452.916312 321 382.5 321 C 312.083688 321 255 313.3888416 255 304 Z" opacity="0.2"/></g><g transform="translate(-22,-46) scale(1,1)"><path fill="#ffffff" stroke="none" d="M 248 297 C 248 287.6111584 305.083688 280 375.5 280 C 445.916312 280 503 287.6111584 503 297 C 503 306.3888416 445.916312 314 375.5 314 C 305.083688 314 248 306.3888416 248 297 Z"/></g><g transform="translate(-22,-46) scale(1,1)"><path fill="none" stroke="#000000" d="M 248 297 C 248 287.6111584 305.083688 280 375.5 280 C 445.916312 280 503 287.6111584 503 297 C 503 306.3888416 445.916312 314 375.5 314 C 305.083688 314 248 306.3888416 248 297 Z" stroke-miterlimit="10"/></g><g transform="translate(-22,-46) scale(1,1)"><g><path fill="none" stroke="none"/><text fill="#000000" stroke="none" font-family="Arial" font-size="13px" font-style="normal" font-weight="bold" text-decoration="none" x="289.898681640625" y="302.2861328125">Consultar envíos históricos</text></g></g><g transform="translate(-22,-46) scale(1,1)"><path fill="none" stroke="#000000" d="M 247 312 L 90 331" stroke-miterlimit="10"/></g><g transform="translate(-22,-46) scale(1,1)"><path fill="#C0C0C0" stroke="none" d="M 455 352 C 455 342.6111584 509.845112 335 577.5 335 C 645.154888 335 700 342.6111584 700 352 C 700 361.3888416 645.154888 369 577.5 369 C 509.845112 369 455 361.3888416 455 352 Z" opacity="0.2"/></g><g transform="translate(-22,-46) scale(1,1)"><path fill="#ffffff" stroke="none" d="M 448 345 C 448 335.6111584 502.845112 328 570.5 328 C 638.154888 328 693 335.6111584 693 345 C 693 354.3888416 638.154888 362 570.5 362 C 502.845112 362 448 354.3888416 448 345 Z"/></g><g transform="translate(-22,-46) scale(1,1)"><path fill="none" stroke="#000000" d="M 448 345 C 448 335.6111584 502.845112 328 570.5 328 C 638.154888 328 693 335.6111584 693 345 C 693 354.3888416 638.154888 362 570.5 362 C 502.845112 362 448 354.3888416 448 345 Z" stroke-miterlimit="10"/></g><g transform="translate(-22,-46) scale(1,1)"><g><path fill="none" stroke="none"/><text fill="#000000" stroke="none" font-family="Arial" font-size="13px" font-style="normal" font-weight="bold" text-decoration="none" x="488.52001953125" y="350.2099609375">Recoger paquete de punto</text></g></g><g transform="translate(-22,-46) scale(1,1)"><path fill="none" stroke="#000000" d="M 687 209 L 513 232" stroke-miterlimit="10"/></g><g transform="translate(-22,-46) scale(1,1)"><path fill="#C0C0C0" stroke="none" d="M 567 424 C 567 414.6111584 622.2928272 407 690.5 407 C 758.7071728 407 814 414.6111584 814 424 C 814 433.3888416 758.7071728 441 690.5 441 C 622.2928272 441 567 433.3888416 567 424 Z" opacity="0.2"/></g><g transform="translate(-22,-46) scale(1,1)"><path fill="#ffffff" stroke="none" d="M 560 417 C 560 407.6111584 615.2928272 400 683.5 400 C 751.7071728 400 807 407.6111584 807 417 C 807 426.3888416 751.7071728 434 683.5 434 C 615.2928272 434 560 426.3888416 560 417 Z"/></g><g transform="translate(-22,-46) scale(1,1)"><path fill="none" stroke="#000000" d="M 560 417 C 560 407.6111584 615.2928272 400 683.5 400 C 751.7071728 400 807 407.6111584 807 417 C 807 426.3888416 751.7071728 434 683.5 434 C 615.2928272 434 560 426.3888416 560 417 Z" stroke-miterlimit="10"/></g><g transform="translate(-22,-46) scale(1,1)"><g><path fill="none" stroke="none"/><text fill="#000000" stroke="none" font-family="Arial" font-size="13px" font-style="normal" font-weight="bold" text-decoration="none" x="600.799560546875" y="421.971923828125">Entregar paquete en punto</text></g></g><g transform="translate(-22,-46) scale(1,1)"><path fill="none" stroke="#000000" d="M 594 327 L 709 240" stroke-miterlimit="10"/></g><g transform="translate(-22,-46) scale(1,1)"><path fill="none" stroke="#000000" d="M 690 399 L 748 240" stroke-miterlimit="10"/></g></g></svg>