<svg version="1.1" xmlns="http://www.w3.org/2000/svg" xmlns:xlink="http://www.w3.org/1999/xlink" width="683" height="435"><defs/><g><text fill="#eeeeee" stroke="none" font-family="Arial" font-size="24px" font-style="normal" font-weight="normal" text-decoration="none" x="0" y="0">UNREGISTERED</text><text fill="#eeeeee" stroke="none" font-family="Arial" font-size="24px" font-style="normal" font-weight="normal" text-decoration="none" x="0" y="30">UNREGISTERED</text><text fill="#eeeeee" stroke="none" font-family="Arial" font-size="24px" font-style="normal" font-weight="normal" text-decoration="none" x="0" y="60">UNREGISTERED</text><text fill="#eeeeee" stroke="none" font-family="Arial" font-size="24px" font-style="normal" font-weight="normal" text-decoration="none" x="0" y="90">UNREGISTERED</text><text fill="#eeeeee" stroke="none" font-family="Arial" font-size="24px" font-style="normal" font-weight="normal" text-decoration="none" x="0" y="120">UNREGISTERED</text><text fill="#eeeeee" stroke="none" font-family="Arial" font-size="24px" font-style="normal" font-weight="normal" text-decoration="none" x="0" y="150">UNREGISTERED</text><text fill="#eeeeee" stroke="none" font-family="Arial" font-size="24px" font-style="normal" font-weight="normal" text-decoration="none" x="0" y="180">UNREGISTERED</text><text fill="#eeeeee" stroke="none" font-family="Arial" font-size="24px" font-style="normal" font-weight="normal" text-decoration="none" x="0" y="210">UNREGISTERED</text><text fill="#eeeeee" stroke="none" font-family="Arial" font-size="24px" font-style="normal" font-weight="normal" text-decoration="none" x="0" y="240">UNREGISTERED</text><text fill="#eeeeee" stroke="none" font-family="Arial" font-size="24px" font-style="normal" font-weight="normal" text-decoration="none" x="0" y="270">UNREGISTERED</text><text fill="#eeeeee" stroke="none" font-family="Arial" font-size="24px" font-style="normal" font-weight="normal" text-decoration="none" x="0" y="300">UNREGISTERED</text><text fill="#eeeeee" stroke="none" font-family="Arial" font-size="24px" font-style="normal" font-weight="normal" text-decoration="none" x="0" y="330">UNREGISTERED</text><text fill="#eeeeee" stroke="none" font-family="Arial" font-size="24px" font-style="normal" font-weight="normal" text-decoration="none" x="0" y="360">UNREGISTERED</text><text fill="#eeeeee" stroke="none" font-family="Arial" font-size="24px" font-style="normal" font-weight="normal" text-decoration="none" x="0" y="390">UNREGISTERED</text><text fill="#eeeeee" stroke="none" font-family="Arial" font-size="24px" font-style="normal" font-weight="normal" text-decoration="none" x="0" y="420">UNREGISTERED</text><text fill="#eeeeee" stroke="none" font-family="Arial" font-size="24px" font-style="normal" font-weight="normal" text-decoration="none" x="200" y="0">UNREGISTERED</text><text fill="#eeeeee" stroke="none" font-family="Arial" font-size="24px" font-style="normal" font-weight="normal" text-decoration="none" x="200" y="30">UNREGISTERED</text><text fill="#eeeeee" stroke="none" font-family="Arial" font-size="24px" font-style="normal" font-weight="normal" text-decoration="none" x="200" y="60">UNREGISTERED</text><text fill="#eeeeee" stroke="none" font-family="Arial" font-size="24px" font-style="normal" font-weight="normal" text-decoration="none" x="200" y="90">UNREGISTERED</text><text fill="#eeeeee" stroke="none" font-family="Arial" font-size="24px" font-style="normal" font-weight="normal" text-decoration="none" x="200" y="120">UNREGISTERED</text><text fill="#eeeeee" stroke="none" font-family="Arial" font-size="24px" font-style="normal" font-weight="normal" text-decoration="none" x="200" y="150">UNREGISTERED</text><text fill="#eeeeee" stroke="none" font-family="Arial" font-size="24px" font-style="normal" font-weight="normal" text-decoration="none" x="200" y="180">UNREGISTERED</text><text fill="#eeeeee" stroke="none" font-family="Arial" font-size="24px" font-style="normal" font-weight="normal" text-decoration="none" x="200" y="210">UNREGISTERED</text><text fill="#eeeeee" stroke="none" font-family="Arial" font-size="24px" font-style="normal" font-weight="normal" text-decoration="none" x="200" y="240">UNREGISTERED</text><text fill="#eeeeee" stroke="none" font-family="Arial" font-size="24px" font-style="normal" font-weight="normal" text-decoration="none" x="200" y="270">UNREGISTERED</text><text fill="#eeeeee" stroke="none" font-family="Arial" font-size="24px" font-style="normal" font-weight="normal" text-decoration="none" x="200" y="300">UNREGISTERED</text><text fill="#eeeeee" stroke="none" font-family="Arial" font-size="24px" font-style="normal" font-weight="normal" text-decoration="none" x="200" y="330">UNREGISTERED</text><text fill="#eeeeee" stroke="none" font-family="Arial" font-size="24px" font-style="normal" font-weight="normal" text-decoration="none" x="200" y="360">UNREGISTERED</text><text fill="#eeeeee" stroke="none" font-family="Arial" font-size="24px" font-style="normal" font-weight="normal" text-decoration="none" x="200" y="390">UNREGISTERED</text><text fill="#eeeeee" stroke="none" font-family="Arial" font-size="24px" font-style="normal" font-weight="normal" text-decoration="none" x="200" y="420">UNREGISTERED</text><text fill="#eeeeee" stroke="none" font-family="Arial" font-size="24px" font-style="normal" font-weight="normal" text-decoration="none" x="400" y="0">UNREGISTERED</text><text fill="#eeeeee" stroke="none" font-family="Arial" font-size="24px" font-style="normal" font-weight="normal" text-decoration="none" x="400" y="30">UNREGISTERED</text><text fill="#eeeeee" stroke="none" font-family="Arial" font-size="24px" font-style="normal" font-weight="normal" text-decoration="none" x="400" y="60">UNREGISTERED</text><text fill="#eeeeee" stroke="none" font-family="Arial" font-size="24px" font-style="normal" font-weight="normal" text-decoration="none" x="400" y="90">UNREGISTERED</text><text fill="#eeeeee" stroke="none" font-family="Arial" font-size="24px" font-style="normal" font-weight="normal" text-decoration="none" x="400" y="120">UNREGISTERED</text><text fill="#eeeeee" stroke="none" font-family="Arial" font-size="24px" font-style="normal" font-weight="normal" text-decoration="none" x="400" y="150">UNREGISTERED</text><text fill="#eeeeee" stroke="none" font-family="Arial" font-size="24px" font-style="normal" font-weight="normal" text-decoration="none" x="400" y="180">UNREGISTERED</text><text fill="#eeeeee" stroke="none" font-family="Arial" font-size="24px" font-style="normal" font-weight="normal" text-decoration="none" x="400" y="210">UNREGISTERED</text><text fill="#eeeeee" stroke="none" font-family="Arial" font-size="24px" font-style="normal" font-weight="normal" text-decoration="none" x="400" y="240">UNREGISTERED</text><text fill="#eeeeee" stroke="none" font-family="Arial" font-size="24px" font-style="normal" font-weight="normal" text-decoration="none" x="400" y="270">UNREGISTERED</text><text fill="#eeeeee" stroke="none" font-family="Arial" font-size="24px" font-style="normal" font-weight="normal" text-decoration="none" x="400" y="300">UNREGISTERED</text><text fill="#eeeeee" stroke="none" font-family="Arial" font-size="24px" font-style="normal" font-weight="normal" text-decoration="none" x="400" y="330">UNREGISTERED</text><text fill="#eeeeee" stroke="none" font-family="Arial" font-size="24px" font-style="normal" font-weight="normal" text-decoration="none" x="400" y="360">UNREGISTERED</text><text fill="#eeeeee" stroke="none" font-family="Arial" font-size="24px" font-style="normal" font-weight="normal" text-decoration="none" x="400" y="390">UNREGISTERED</text><text fill="#eeeeee" stroke="none" font-family="Arial" font-size="24px" font-style="normal" font-weight="normal" text-decoration="none" x="400" y="420">UNREGISTERED</text><text fill="#eeeeee" stroke="none" font-family="Arial" font-size="24px" font-style="normal" font-weight="normal" text-decoration="none" x="600" y="0">UNREGISTERED</text><text fill="#eeeeee" stroke="none" font-family="Arial" font-size="24px" font-style="normal" font-weight="normal" text-decoration="none" x="600" y="30">UNREGISTERED</text><text fill="#eeeeee" stroke="none" font-family="Arial" font-size="24px" font-style="normal" font-weight="normal" text-decoration="none" x="600" y="60">UNREGISTERED</text><text fill="#eeeeee" stroke="none" font-family="Arial" font-size="24px" font-style="normal" font-weight="normal" text-decoration="none" x="600" y="90">UNREGISTERED</text><text fill="#eeeeee" stroke="none" font-family="Arial" font-size="24px" font-style="normal" font-weight="normal" text-decoration="none" x="600" y="120">UNREGISTERED</text><text fill="#eeeeee" stroke="none" font-family="Arial" font-size="24px" font-style="normal" font-weight="normal" text-decoration="none" x="600" y="150">UNREGISTERED</text><text fill="#eeeeee" stroke="none" font-family="Arial" font-size="24px" font-style="normal" font-weight="normal" text-decoration="none" x="600" y="180">UNREGISTERED</text><text fill="#eeeeee" stroke="none" font-family="Arial" font-size="24px" font-style="normal" font-weight="normal" text-decoration="none" x="600" y="210">UNREGISTERED</text><text fill="#eeeeee" stroke="none" font-family="Arial" font-size="24px" font-style="normal" font-weight="normal" text-decoration="none" x="600" y="240">UNREGISTERED</text><text fill="#eeeeee" stroke="none" font-family="Arial" font-size="24px" font-style="normal" font-weight="normal" text-decoration="none" x="600" y="270">UNREGISTERED</text><text fill="#eeeeee" stroke="none" font-family="Arial" font-size="24px" font-style="normal" font-weight="normal" text-decoration="none" x="600" y="300">UNREGISTERED</text><text fill="#eeeeee" stroke="none" font-family="Arial" font-size="24px" font-style="normal" font-weight="normal" text-decoration="none" x="600" y="330">UNREGISTERED</text><text fill="#eeeeee" stroke="none" font-family="Arial" font-size="24px" font-style="normal" font-weight="normal" text-decoration="none" x="600" y="360">UNREGISTERED</text><text fill="#eeeeee" stroke="none" font-family="Arial" font-size="24px" font-style="normal" font-weight="normal" text-decoration="none" x="600" y="390">UNREGISTERED</text><text fill="#eeeeee" stroke="none" font-family="Arial" font-size="24px" font-style="normal" font-weight="normal" text-decoration="none" x="600" y="420">UNREGISTERED</text><g transform="translate(-54,-118) scale(1,1)"><rect fill="#C0C0C0" stroke="none" x="367" y="143" width="367" height="391" opacity="0.2"/></g><g transform="translate(-54,-118) scale(1,1)"><rect fill="#ffffff" stroke="none" x="360" y="136" width="367" height="391"/></g><g transform="translate(-54,-118) scale(1,1)"><path fill="none" stroke="#000000" d="M 360 136 L 727 136 L 727 527 L 360 527 L 360 136 Z Z" stroke-miterlimit="10"/></g><g transform="translate(-54,-118) scale(1,1)"><g><path fill="none" stroke="none"/><text fill="#000000" stroke="none" font-family="Arial" font-size="13px" font-style="normal" font-weight="bold" text-decoration="none" x="516.398681640625" y="153.7099609375">EcoPack</text></g></g><g transform="translate(-54,-118) scale(1,1)"><path fill="#C0C0C0" stroke="none" d="M 464 216 C 464 206.6111584 506.3090864 199 558.5 199 C 610.6909136 199 653 206.6111584 653 216 C 653 225.3888416 610.6909136 233 558.5 233 C 506.3090864 233 464 225.3888416 464 216 Z" opacity="0.2"/></g><g transform="translate(-54,-118) scale(1,1)"><path fill="#ffffff" stroke="none" d="M 457 209 C 457 199.6111584 499.3090864 192 551.5 192 C 603.6909136 192 646 199.6111584 646 209 C 646 218.3888416 603.6909136 226 551.5 226 C 499.3090864 226 457 218.3888416 457 209 Z"/></g><g transform="translate(-54,-118) scale(1,1)"><path fill="none" stroke="#000000" d="M 457 209 C 457 199.6111584 499.3090864 192 551.5 192 C 603.6909136 192 646 199.6111584 646 209 C 646 218.3888416 603.6909136 226 551.5 226 C 499.3090864 226 457 218.3888416 457 209 Z" stroke-miterlimit="10"/></g><g transform="translate(-54,-118) scale(1,1)"><g><path fill="none" stroke="none"/><text fill="#000000" stroke="none" font-family="Arial" font-size="13px" font-style="normal" font-weight="bold" text-decoration="none" x="489.013671875" y="214.2861328125">Gestión de usuarios</text></g></g><g transform="translate(-54,-118) scale(1,1)"><path fill="#C0C0C0" stroke="none" d="M 473 392 C 473 382.6111584 511.27964959999997 375 558.5 375 C 605.7203504 375 644 382.6111584 644 392 C 644 401.3888416 605.7203504 409 558.5 409 C 511.27964959999997 409 473 401.3888416 473 392 Z" opacity="0.2"/></g><g transform="translate(-54,-118) scale(1,1)"><path fill="#ffffff" stroke="none" d="M 466 385 C 466 375.6111584 504.27964959999997 368 551.5 368 C 598.7203504 368 637 375.6111584 637 385 C 637 394.3888416 598.7203504 402 551.5 402 C 504.27964959999997 402 466 394.3888416 466 385 Z"/></g><g transform="translate(-54,-118) scale(1,1)"><path fill="none" stroke="#000000" d="M 466 385 C 466 375.6111584 504.27964959999997 368 551.5 368 C 598.7203504 368 637 375.6111584 637 385 C 637 394.3888416 598.7203504 402 551.5 402 C 504.27964959999997 402 466 394.3888416 466 385 Z" stroke-miterlimit="10"/></g><g transform="translate(-54,-118) scale(1,1)"><g><path fill="none" stroke="none"/><text fill="#000000" stroke="none" font-family="Arial" font-size="13px" font-style="normal" font-weight="bold" text-decoration="none" x="495.513671875" y="390.2861328125">Gestión de envíos</text></g></g><g transform="translate(-54,-118) scale(1,1)"><path fill="#C0C0C0" stroke="none" d="M 474 480 C 474 470.6111584 511.8319344 463 558.5 463 C 605.1680656 463 643 470.6111584 643 480 C 643 489.3888416 605.1680656 497 558.5 497 C 511.8319344 497 474 489.3888416 474 480 Z" opacity="0.2"/></g><g transform="translate(-54,-118) scale(1,1)"><path fill="#ffffff" stroke="none" d="M 467 473 C 467 463.6111584 504.8319344 456 551.5 456 C 598.1680656 456 636 463.6111584 636 473 C 636 482.3888416 598.1680656 490 551.5 490 C 504.8319344 490 467 482.3888416 467 473 Z"/></g><g transform="translate(-54,-118) scale(1,1)"><path fill="none" stroke="#000000" d="M 467 473 C 467 463.6111584 504.8319344 456 551.5 456 C 598.1680656 456 636 463.6111584 636 473 C 636 482.3888416 598.1680656 490 551.5 490 C 504.8319344 490 467 482.3888416 467 473 Z" stroke-miterlimit="10"/></g><g transform="translate(-54,-118) scale(1,1)"><g><path fill="none" stroke="none"/><text fill="#000000" stroke="none" font-family="Arial" font-size="13px" font-style="normal" font-weight="bold" text-decoration="none" x="496.24365234375" y="478.2861328125">Gestión de logros</text></g></g><g transform="translate(-54,-118) scale(1,1)"><path fill="#C0C0C0" stroke="none" d="M 430 304 C 430 294.6111584 487.3075456 287 558 287 C 628.6924544 287 686 294.6111584 686 304 C 686 313.3888416 628.6924544 321 558 321 C 487.3075456 321 430 313.3888416 430 304 Z" opacity="0.2"/></g><g transform="translate(-54,-118) scale(1,1)"><path fill="#ffffff" stroke="none" d="M 423 297 C 423 287.6111584 480.3075456 280 551 280 C 621.6924544 280 679 287.6111584 679 297 C 679 306.3888416 621.6924544 314 551 314 C 480.3075456 314 423 306.3888416 423 297 Z"/></g><g transform="translate(-54,-118) scale(1,1)"><path fill="none" stroke="#000000" d="M 423 297 C 423 287.6111584 480.3075456 280 551 280 C 621.6924544 280 679 287.6111584 679 297 C 679 306.3888416 621.6924544 314 551 314 C 480.3075456 314 423 306.3888416 423 297 Z" stroke-miterlimit="10"/></g><g transform="translate(-54,-118) scale(1,1)"><g><path fill="none" stroke="none"/><text fill="#000000" stroke="none" font-family="Arial" font-size="13px" font-style="normal" font-weight="bold" text-decoration="none" x="465.036865234375" y="302.2861328125">Gestión de puntos EcoPack</text></g></g><g transform="translate(-54,-118) scale(1,1)"><path fill="#ffffff" stroke="none" d="M 231.98210422585228 137.68 C 231.98210422585228 132.886167936 235.86794655079774 129 240.661376953125 129 C 245.45480735545226 129 249.34064968039772 132.886167936 249.34064968039772 137.68 C 249.34064968039772 142.47383206400002 245.45480735545226 146.36 240.661376953125 146.36 C 235.86794655079774 146.36 231.98210422585228 142.47383206400002 231.98210422585228 137.68 Z"/></g><g transform="translate(-54,-118) scale(1,1)"><path fill="none" stroke="#000000" d="M 231.98210422585228 137.68 C 231.98210422585228 132.886167936 235.86794655079774 129 240.661376953125 129 C 245.45480735545226 129 249.34064968039772 132.886167936 249.34064968039772 137.68 C 249.34064968039772 142.47383206400002 245.45480735545226 146.36 240.661376953125 146.36 C 235.86794655079774 146.36 231.98210422585228 142.47383206400002 231.98210422585228 137.68 Z" stroke-miterlimit="10"/></g><g transform="translate(-54,-118) scale(1,1)"><path fill="none" stroke="#000000" d="M 240.661376953125 146.36 L 240.661376953125 163.64" stroke-miterlimit="10"/></g><g transform="translate(-54,-118) scale(1,1)"><path fill="none" stroke="#000000" d="M 231.47155877130683 152.84 L 249.85119513494317 152.84" stroke-miterlimit="10"/></g><g transform="translate(-54,-118) scale(1,1)"><path fill="none" stroke="#000000" d="M 240.661376953125 163.64 L 227.89774058948865 181" stroke-miterlimit="10"/></g><g transform="translate(-54,-118) scale(1,1)"><path fill="none" stroke="#000000" d="M 240.661376953125 163.64 L 253.42501331676135 181" stroke-miterlimit="10"/></g><g transform="translate(-54,-118) scale(1,1)"><g><path fill="none" stroke="none"/><text fill="#000000" stroke="none" font-family="Arial" font-size="13px" font-style="normal" font-weight="bold" text-decoration="none" x="212.5" y="199.7861328125">Anónimo</text></g></g><g transform="translate(-54,-118) scale(1,1)"><path fill="#ffffff" stroke="none" d="M 288.24162571022725 385.68 C 288.24162571022725 380.886167936 292.12746803517274 377 296.9208984375 377 C 301.71432883982726 377 305.60017116477275 380.886167936 305.60017116477275 385.68 C 305.60017116477275 390.473832064 301.71432883982726 394.36 296.9208984375 394.36 C 292.12746803517274 394.36 288.24162571022725 390.473832064 288.24162571022725 385.68 Z"/></g><g transform="translate(-54,-118) scale(1,1)"><path fill="none" stroke="#000000" d="M 288.24162571022725 385.68 C 288.24162571022725 380.886167936 292.12746803517274 377 296.9208984375 377 C 301.71432883982726 377 305.60017116477275 380.886167936 305.60017116477275 385.68 C 305.60017116477275 390.473832064 301.71432883982726 394.36 296.9208984375 394.36 C 292.12746803517274 394.36 288.24162571022725 390.473832064 288.24162571022725 385.68 Z" stroke-miterlimit="10"/></g><g transform="translate(-54,-118) scale(1,1)"><path fill="none" stroke="#000000" d="M 296.9208984375 394.36 L 296.9208984375 411.64" stroke-miterlimit="10"/></g><g transform="translate(-54,-118) scale(1,1)"><path fill="none" stroke="#000000" d="M 287.73108025568183 400.84 L 306.11071661931817 400.84" stroke-miterlimit="10"/></g><g transform="translate(-54,-118) scale(1,1)"><path fill="none" stroke="#000000" d="M 296.9208984375 411.64 L 284.15726207386365 429" stroke-miterlimit="10"/></g><g transform="translate(-54,-118) scale(1,1)"><path fill="none" stroke="#000000" d="M 296.9208984375 411.64 L 309.68453480113635 429" stroke-miterlimit="10"/></g><g transform="translate(-54,-118) scale(1,1)"><g><path fill="none" stroke="none"/><text fill="#000000" stroke="none" font-family="Arial" font-size="13px" font-style="normal" font-weight="bold" text-decoration="none" x="252.5" y="447.7099609375">Administrador</text></g></g><g transform="translate(-54,-118) scale(1,1)"><path fill="#ffffff" stroke="none" d="M 130.62248508522728 377.68 C 130.62248508522728 372.886167936 134.50832741017274 369 139.3017578125 369 C 144.09518821482726 369 147.98103053977272 372.886167936 147.98103053977272 377.68 C 147.98103053977272 382.473832064 144.09518821482726 386.36 139.3017578125 386.36 C 134.50832741017274 386.36 130.62248508522728 382.473832064 130.62248508522728 377.68 Z"/></g><g transform="translate(-54,-118) scale(1,1)"><path fill="none" stroke="#000000" d="M 130.62248508522728 377.68 C 130.62248508522728 372.886167936 134.50832741017274 369 139.3017578125 369 C 144.09518821482726 369 147.98103053977272 372.886167936 147.98103053977272 377.68 C 147.98103053977272 382.473832064 144.09518821482726 386.36 139.3017578125 386.36 C 134.50832741017274 386.36 130.62248508522728 382.473832064 130.62248508522728 377.68 Z" stroke-miterlimit="10"/></g><g transform="translate(-54,-118) scale(1,1)"><path fill="none" stroke="#000000" d="M 139.3017578125 386.36 L 139.3017578125 403.64" stroke-miterlimit="10"/></g><g transform="translate(-54,-118) scale(1,1)"><path fill="none" stroke="#000000" d="M 130.11193963068183 392.84 L 148.49157599431817 392.84" stroke-miterlimit="10"/></g><g transform="translate(-54,-118) scale(1,1)"><path fill="none" stroke="#000000" d="M 139.3017578125 403.64 L 126.53812144886365 421" stroke-miterlimit="10"/></g><g transform="translate(-54,-118) scale(1,1)"><path fill="none" stroke="#000000" d="M 139.3017578125 403.64 L 152.06539417613635 421" stroke-miterlimit="10"/></g><g transform="translate(-54,-118) scale(1,1)"><g><path fill="none" stroke="none"/><text fill="#000000" stroke="none" font-family="Arial" font-size="13px" font-style="normal" font-weight="bold" text-decoration="none" x="68.5" y="439.7099609375">Empresa de transporte</text></g></g><g transform="translate(-54,-118) scale(1,1)"><path fill="#ffffff" stroke="none" d="M 220.02116672585228 473.68 C 220.02116672585228 468.886167936 223.90700905079774 465 228.700439453125 465 C 233.49386985545226 465 237.37971218039772 468.886167936 237.37971218039772 473.68 C 237.37971218039772 478.473832064 233.49386985545226 482.36 228.700439453125 482.36 C 223.90700905079774 482.36 220.02116672585228 478.473832064 220.02116672585228 473.68 Z"/></g><g transform="translate(-54,-118) scale(1,1)"><path fill="none" stroke="#000000" d="M 220.02116672585228 473.68 C 220.02116672585228 468.886167936 223.90700905079774 465 228.700439453125 465 C 233.49386985545226 465 237.37971218039772 468.886167936 237.37971218039772 473.68 C 237.37971218039772 478.473832064 233.49386985545226 482.36 228.700439453125 482.36 C 223.90700905079774 482.36 220.02116672585228 478.473832064 220.02116672585228 473.68 Z" stroke-miterlimit="10"/></g><g transform="translate(-54,-118) scale(1,1)"><path fill="none" stroke="#000000" d="M 228.700439453125 482.36 L 228.700439453125 499.64" stroke-miterlimit="10"/></g><g transform="translate(-54,-118) scale(1,1)"><path fill="none" stroke="#000000" d="M 219.51062127130683 488.84 L 237.89025763494317 488.84" stroke-miterlimit="10"/></g><g transform="translate(-54,-118) scale(1,1)"><path fill="none" stroke="#000000" d="M 228.700439453125 499.64 L 215.93680308948865 517" stroke-miterlimit="10"/></g><g transform="translate(-54,-118) scale(1,1)"><path fill="none" stroke="#000000" d="M 228.700439453125 499.64 L 241.46407581676135 517" stroke-miterlimit="10"/></g><g transform="translate(-54,-118) scale(1,1)"><g><path fill="none" stroke="none"/><text fill="#000000" stroke="none" font-family="Arial" font-size="13px" font-style="normal" font-weight="bold" text-decoration="none" x="204.5" y="535.7099609375">Usuario</text></g></g><g transform="translate(-54,-118) scale(1,1)"><path fill="none" stroke="#000000" d="M 274 172 L 456 196" stroke-miterlimit="10"/></g><g transform="translate(-54,-118) scale(1,1)"><path fill="none" stroke="#000000" d="M 294 259 L 458 227" stroke-miterlimit="10"/></g><g transform="translate(-54,-118) scale(1,1)"><path fill="none" stroke="#000000" d="M 294 276 L 422 287" stroke-miterlimit="10"/></g><g transform="translate(-54,-118) scale(1,1)"><path fill="none" stroke="#000000" d="M 347 427 L 472 455" stroke-miterlimit="10"/></g><g transform="translate(-54,-118) scale(1,1)"><path fill="none" stroke="#000000" d="M 258 500 L 466 481" stroke-miterlimit="10"/></g><g transform="translate(-54,-118) scale(1,1)"><path fill="none" stroke="#000000" d="M 294 294 L 500 367" stroke-miterlimit="10"/></g><g transform="translate(-54,-118) scale(1,1)"><path fill="#ffffff" stroke="none" d="M 221.61296360085228 241.68 C 221.61296360085228 236.886167936 225.49880592579774 233 230.292236328125 233 C 235.08566673045226 233 238.97150905539772 236.886167936 238.97150905539772 241.68 C 238.97150905539772 246.47383206400002 235.08566673045226 250.36 230.292236328125 250.36 C 225.49880592579774 250.36 221.61296360085228 246.47383206400002 221.61296360085228 241.68 Z"/></g><g transform="translate(-54,-118) scale(1,1)"><path fill="none" stroke="#000000" d="M 221.61296360085228 241.68 C 221.61296360085228 236.886167936 225.49880592579774 233 230.292236328125 233 C 235.08566673045226 233 238.97150905539772 236.886167936 238.97150905539772 241.68 C 238.97150905539772 246.47383206400002 235.08566673045226 250.36 230.292236328125 250.36 C 225.49880592579774 250.36 221.61296360085228 246.47383206400002 221.61296360085228 241.68 Z" stroke-miterlimit="10"/></g><g transform="translate(-54,-118) scale(1,1)"><path fill="none" stroke="#000000" d="M 230.292236328125 250.36 L 230.292236328125 267.64" stroke-miterlimit="10"/></g><g transform="translate(-54,-118) scale(1,1)"><path fill="none" stroke="#000000" d="M 221.10241814630683 256.84 L 239.48205450994317 256.84" stroke-miterlimit="10"/></g><g transform="translate(-54,-118) scale(1,1)"><path fill="none" stroke="#000000" d="M 230.292236328125 267.64 L 217.52859996448865 285" stroke-miterlimit="10"/></g><g transform="translate(-54,-118) scale(1,1)"><path fill="none" stroke="#000000" d="M 230.292236328125 267.64 L 243.05587269176135 285" stroke-miterlimit="10"/></g><g transform="translate(-54,-118) scale(1,1)"><g><path fill="none" stroke="none"/><text fill="#000000" stroke="none" font-family="Arial" font-size="13px" font-style="normal" font-weight="bold" text-decoration="none" x="172.5" y="303.7099609375">Usuario registrado</text></g></g><g transform="translate(-54,-118) scale(1,1)"><path fill="none" stroke="#000000" d="M 228 463 L 230 312" stroke-miterlimit="10"/></g><g transform="translate(-54,-118) scale(1,1)"><path fill="#FFFFFF" stroke="none" d="M 238.14911081044497 332.43506772680456 L 230 312 L 221.31251655107636 332.2120664783361"/></g><g transform="translate(-54,-118) scale(1,1)"><path fill="none" stroke="#000000" d="M 238.14911081044497 332.43506772680456 L 230 312 L 221.31251655107636 332.2120664783361 L 238.14911081044497 332.43506772680456" stroke-miterlimit="10"/></g><g transform="translate(-54,-118) scale(1,1)"><path fill="none" stroke="#000000" d="M 166 367 L 203 312" stroke-miterlimit="10"/></g><g transform="translate(-54,-118) scale(1,1)"><path fill="#FFFFFF" stroke="none" d="M 198.64032343666122 333.563701450889 L 203 312 L 184.66940361487724 324.1650826616889"/></g><g transform="translate(-54,-118) scale(1,1)"><path fill="none" stroke="#000000" d="M 198.64032343666122 333.563701450889 L 203 312 L 184.66940361487724 324.1650826616889 L 198.64032343666122 333.563701450889" stroke-miterlimit="10"/></g><g transform="translate(-54,-118) scale(1,1)"><path fill="none" stroke="#000000" d="M 278 375 L 249 312" stroke-miterlimit="10"/></g><g transform="translate(-54,-118) scale(1,1)"><path fill="#FFFFFF" stroke="none" d="M 265.14660637343167 326.9427943377889 L 249 312 L 249.85122365367698 333.98352606592994"/></g><g transform="translate(-54,-118) scale(1,1)"><path fill="none" stroke="#000000" d="M 265.14660637343167 326.9427943377889 L 249 312 L 249.85122365367698 333.98352606592994 L 265.14660637343167 326.9427943377889" stroke-miterlimit="10"/></g></g></svg>