<svg version="1.1" xmlns="http://www.w3.org/2000/svg" xmlns:xlink="http://www.w3.org/1999/xlink" width="685.841796875" height="326"><defs/><g><text fill="#eeeeee" stroke="none" font-family="Arial" font-size="24px" font-style="normal" font-weight="normal" text-decoration="none" x="0" y="0">UNREGISTERED</text><text fill="#eeeeee" stroke="none" font-family="Arial" font-size="24px" font-style="normal" font-weight="normal" text-decoration="none" x="0" y="30">UNREGISTERED</text><text fill="#eeeeee" stroke="none" font-family="Arial" font-size="24px" font-style="normal" font-weight="normal" text-decoration="none" x="0" y="60">UNREGISTERED</text><text fill="#eeeeee" stroke="none" font-family="Arial" font-size="24px" font-style="normal" font-weight="normal" text-decoration="none" x="0" y="90">UNREGISTERED</text><text fill="#eeeeee" stroke="none" font-family="Arial" font-size="24px" font-style="normal" font-weight="normal" text-decoration="none" x="0" y="120">UNREGISTERED</text><text fill="#eeeeee" stroke="none" font-family="Arial" font-size="24px" font-style="normal" font-weight="normal" text-decoration="none" x="0" y="150">UNREGISTERED</text><text fill="#eeeeee" stroke="none" font-family="Arial" font-size="24px" font-style="normal" font-weight="normal" text-decoration="none" x="0" y="180">UNREGISTERED</text><text fill="#eeeeee" stroke="none" font-family="Arial" font-size="24px" font-style="normal" font-weight="normal" text-decoration="none" x="0" y="210">UNREGISTERED</text><text fill="#eeeeee" stroke="none" font-family="Arial" font-size="24px" font-style="normal" font-weight="normal" text-decoration="none" x="0" y="240">UNREGISTERED</text><text fill="#eeeeee" stroke="none" font-family="Arial" font-size="24px" font-style="normal" font-weight="normal" text-decoration="none" x="0" y="270">UNREGISTERED</text><text fill="#eeeeee" stroke="none" font-family="Arial" font-size="24px" font-style="normal" font-weight="normal" text-decoration="none" x="0" y="300">UNREGISTERED</text><text fill="#eeeeee" stroke="none" font-family="Arial" font-size="24px" font-style="normal" font-weight="normal" text-decoration="none" x="200" y="0">UNREGISTERED</text><text fill="#eeeeee" stroke="none" font-family="Arial" font-size="24px" font-style="normal" font-weight="normal" text-decoration="none" x="200" y="30">UNREGISTERED</text><text fill="#eeeeee" stroke="none" font-family="Arial" font-size="24px" font-style="normal" font-weight="normal" text-decoration="none" x="200" y="60">UNREGISTERED</text><text fill="#eeeeee" stroke="none" font-family="Arial" font-size="24px" font-style="normal" font-weight="normal" text-decoration="none" x="200" y="90">UNREGISTERED</text><text fill="#eeeeee" stroke="none" font-family="Arial" font-size="24px" font-style="normal" font-weight="normal" text-decoration="none" x="200" y="120">UNREGISTERED</text><text fill="#eeeeee" stroke="none" font-family="Arial" font-size="24px" font-style="normal" font-weight="normal" text-decoration="none" x="200" y="150">UNREGISTERED</text><text fill="#eeeeee" stroke="none" font-family="Arial" font-size="24px" font-style="normal" font-weight="normal" text-decoration="none" x="200" y="180">UNREGISTERED</text><text fill="#eeeeee" stroke="none" font-family="Arial" font-size="24px" font-style="normal" font-weight="normal" text-decoration="none" x="200" y="210">UNREGISTERED</text><text fill="#eeeeee" stroke="none" font-family="Arial" font-size="24px" font-style="normal" font-weight="normal" text-decoration="none" x="200" y="240">UNREGISTERED</text><text fill="#eeeeee" stroke="none" font-family="Arial" font-size="24px" font-style="normal" font-weight="normal" text-decoration="none" x="200" y="270">UNREGISTERED</text><text fill="#eeeeee" stroke="none" font-family="Arial" font-size="24px" font-style="normal" font-weight="normal" text-decoration="none" x="200" y="300">UNREGISTERED</text><text fill="#eeeeee" stroke="none" font-family="Arial" font-size="24px" font-style="normal" font-weight="normal" text-decoration="none" x="400" y="0">UNREGISTERED</text><text fill="#eeeeee" stroke="none" font-family="Arial" font-size="24px" font-style="normal" font-weight="normal" text-decoration="none" x="400" y="30">UNREGISTERED</text><text fill="#eeeeee" stroke="none" font-family="Arial" font-size="24px" font-style="normal" font-weight="normal" text-decoration="none" x="400" y="60">UNREGISTERED</text><text fill="#eeeeee" stroke="none" font-family="Arial" font-size="24px" font-style="normal" font-weight="normal" text-decoration="none" x="400" y="90">UNREGISTERED</text><text fill="#eeeeee" stroke="none" font-family="Arial" font-size="24px" font-style="normal" font-weight="normal" text-decoration="none" x="400" y="120">UNREGISTERED</text><text fill="#eeeeee" stroke="none" font-family="Arial" font-size="24px" font-style="normal" font-weight="normal" text-decoration="none" x="400" y="150">UNREGISTERED</text><text fill="#eeeeee" stroke="none" font-family="Arial" font-size="24px" font-style="normal" font-weight="normal" text-decoration="none" x="400" y="180">UNREGISTERED</text><text fill="#eeeeee" stroke="none" font-family="Arial" font-size="24px" font-style="normal" font-weight="normal" text-decoration="none" x="400" y="210">UNREGISTERED</text><text fill="#eeeeee" stroke="none" font-family="Arial" font-size="24px" font-style="normal" font-weight="normal" text-decoration="none" x="400" y="240">UNREGISTERED</text><text fill="#eeeeee" stroke="none" font-family="Arial" font-size="24px" font-style="normal" font-weight="normal" text-decoration="none" x="400" y="270">UNREGISTERED</text><text fill="#eeeeee" stroke="none" font-family="Arial" font-size="24px" font-style="normal" font-weight="normal" text-decoration="none" x="400" y="300">UNREGISTERED</text><text fill="#eeeeee" stroke="none" font-family="Arial" font-size="24px" font-style="normal" font-weight="normal" text-decoration="none" x="600" y="0">UNREGISTERED</text><text fill="#eeeeee" stroke="none" font-family="Arial" font-size="24px" font-style="normal" font-weight="normal" text-decoration="none" x="600" y="30">UNREGISTERED</text><text fill="#eeeeee" stroke="none" font-family="Arial" font-size="24px" font-style="normal" font-weight="normal" text-decoration="none" x="600" y="60">UNREGISTERED</text><text fill="#eeeeee" stroke="none" font-family="Arial" font-size="24px" font-style="normal" font-weight="normal" text-decoration="none" x="600" y="90">UNREGISTERED</text><text fill="#eeeeee" stroke="none" font-family="Arial" font-size="24px" font-style="normal" font-weight="normal" text-decoration="none" x="600" y="120">UNREGISTERED</text><text fill="#eeeeee" stroke="none" font-family="Arial" font-size="24px" font-style="normal" font-weight="normal" text-decoration="none" x="600" y="150">UNREGISTERED</text><text fill="#eeeeee" stroke="none" font-family="Arial" font-size="24px" font-style="normal" font-weight="normal" text-decoration="none" x="600" y="180">UNREGISTERED</text><text fill="#eeeeee" stroke="none" font-family="Arial" font-size="24px" font-style="normal" font-weight="normal" text-decoration="none" x="600" y="210">UNREGISTERED</text><text fill="#eeeeee" stroke="none" font-family="Arial" font-size="24px" font-style="normal" font-weight="normal" text-decoration="none" x="600" y="240">UNREGISTERED</text><text fill="#eeeeee" stroke="none" font-family="Arial" font-size="24px" font-style="normal" font-weight="normal" text-decoration="none" x="600" y="270">UNREGISTERED</text><text fill="#eeeeee" stroke="none" font-family="Arial" font-size="24px" font-style="normal" font-weight="normal" text-decoration="none" x="600" y="300">UNREGISTERED</text><g transform="translate(-30,-62) scale(1,1)"><path fill="#ffffff" stroke="none" d="M 648.2416257102273 161.68 C 648.2416257102273 156.886167936 652.1274680351727 153 656.9208984375 153 C 661.7143288398273 153 665.6001711647727 156.886167936 665.6001711647727 161.68 C 665.6001711647727 166.47383206400002 661.7143288398273 170.36 656.9208984375 170.36 C 652.1274680351727 170.36 648.2416257102273 166.47383206400002 648.2416257102273 161.68 Z"/></g><g transform="translate(-30,-62) scale(1,1)"><path fill="none" stroke="#000000" d="M 648.2416257102273 161.68 C 648.2416257102273 156.886167936 652.1274680351727 153 656.9208984375 153 C 661.7143288398273 153 665.6001711647727 156.886167936 665.6001711647727 161.68 C 665.6001711647727 166.47383206400002 661.7143288398273 170.36 656.9208984375 170.36 C 652.1274680351727 170.36 648.2416257102273 166.47383206400002 648.2416257102273 161.68 Z" stroke-miterlimit="10"/></g><g transform="translate(-30,-62) scale(1,1)"><path fill="none" stroke="#000000" d="M 656.9208984375 170.36 L 656.9208984375 187.64" stroke-miterlimit="10"/></g><g transform="translate(-30,-62) scale(1,1)"><path fill="none" stroke="#000000" d="M 647.7310802556818 176.84 L 666.1107166193182 176.84" stroke-miterlimit="10"/></g><g transform="translate(-30,-62) scale(1,1)"><path fill="none" stroke="#000000" d="M 656.9208984375 187.64 L 644.1572620738636 205" stroke-miterlimit="10"/></g><g transform="translate(-30,-62) scale(1,1)"><path fill="none" stroke="#000000" d="M 656.9208984375 187.64 L 669.6845348011364 205" stroke-miterlimit="10"/></g><g transform="translate(-30,-62) scale(1,1)"><g><path fill="none" stroke="none"/><text fill="#000000" stroke="none" font-family="Arial" font-size="13px" font-style="normal" font-weight="bold" text-decoration="none" x="612.5" y="223.7099609375">Administrador</text></g></g><g transform="translate(-30,-62) scale(1,1)"><path fill="#ffffff" stroke="none" d="M 60.02116672585227 81.68 C 60.02116672585227 76.886167936 63.907009050797726 73 68.700439453125 73 C 73.49386985545227 73 77.37971218039773 76.886167936 77.37971218039773 81.68 C 77.37971218039773 86.473832064 73.49386985545227 90.36 68.700439453125 90.36 C 63.907009050797726 90.36 60.02116672585227 86.473832064 60.02116672585227 81.68 Z"/></g><g transform="translate(-30,-62) scale(1,1)"><path fill="none" stroke="#000000" d="M 60.02116672585227 81.68 C 60.02116672585227 76.886167936 63.907009050797726 73 68.700439453125 73 C 73.49386985545227 73 77.37971218039773 76.886167936 77.37971218039773 81.68 C 77.37971218039773 86.473832064 73.49386985545227 90.36 68.700439453125 90.36 C 63.907009050797726 90.36 60.02116672585227 86.473832064 60.02116672585227 81.68 Z" stroke-miterlimit="10"/></g><g transform="translate(-30,-62) scale(1,1)"><path fill="none" stroke="#000000" d="M 68.700439453125 90.36 L 68.700439453125 107.64" stroke-miterlimit="10"/></g><g transform="translate(-30,-62) scale(1,1)"><path fill="none" stroke="#000000" d="M 59.51062127130682 96.84 L 77.89025763494318 96.84" stroke-miterlimit="10"/></g><g transform="translate(-30,-62) scale(1,1)"><path fill="none" stroke="#000000" d="M 68.700439453125 107.64 L 55.936803089488635 125" stroke-miterlimit="10"/></g><g transform="translate(-30,-62) scale(1,1)"><path fill="none" stroke="#000000" d="M 68.700439453125 107.64 L 81.46407581676137 125" stroke-miterlimit="10"/></g><g transform="translate(-30,-62) scale(1,1)"><g><path fill="none" stroke="none"/><text fill="#000000" stroke="none" font-family="Arial" font-size="13px" font-style="normal" font-weight="bold" text-decoration="none" x="44.5" y="143.7099609375">Usuario</text></g></g><g transform="translate(-30,-62) scale(1,1)"><path fill="#C0C0C0" stroke="none" d="M 443 184 C 443 174.6111584 468.0720512 167 499 167 C 529.9279488 167 555 174.6111584 555 184 C 555 193.3888416 529.9279488 201 499 201 C 468.0720512 201 443 193.3888416 443 184 Z" opacity="0.2"/></g><g transform="translate(-30,-62) scale(1,1)"><path fill="#ffffff" stroke="none" d="M 436 177 C 436 167.6111584 461.0720512 160 492 160 C 522.9279488 160 548 167.6111584 548 177 C 548 186.3888416 522.9279488 194 492 194 C 461.0720512 194 436 186.3888416 436 177 Z"/></g><g transform="translate(-30,-62) scale(1,1)"><path fill="none" stroke="#000000" d="M 436 177 C 436 167.6111584 461.0720512 160 492 160 C 522.9279488 160 548 167.6111584 548 177 C 548 186.3888416 522.9279488 194 492 194 C 461.0720512 194 436 186.3888416 436 177 Z" stroke-miterlimit="10"/></g><g transform="translate(-30,-62) scale(1,1)"><g><path fill="none" stroke="none"/><text fill="#000000" stroke="none" font-family="Arial" font-size="13px" font-style="normal" font-weight="bold" text-decoration="none" x="456.964111328125" y="182.2099609375">Crear logro</text></g></g><g transform="translate(-30,-62) scale(1,1)"><path fill="#C0C0C0" stroke="none" d="M 427 256 C 427 246.6111584 459.45935199999997 239 499.5 239 C 539.540648 239 572 246.6111584 572 256 C 572 265.3888416 539.540648 273 499.5 273 C 459.45935199999997 273 427 265.3888416 427 256 Z" opacity="0.2"/></g><g transform="translate(-30,-62) scale(1,1)"><path fill="#ffffff" stroke="none" d="M 420 249 C 420 239.6111584 452.45935199999997 232 492.5 232 C 532.540648 232 565 239.6111584 565 249 C 565 258.3888416 532.540648 266 492.5 266 C 452.45935199999997 266 420 258.3888416 420 249 Z"/></g><g transform="translate(-30,-62) scale(1,1)"><path fill="none" stroke="#000000" d="M 420 249 C 420 239.6111584 452.45935199999997 232 492.5 232 C 532.540648 232 565 239.6111584 565 249 C 565 258.3888416 532.540648 266 492.5 266 C 452.45935199999997 266 420 258.3888416 420 249 Z" stroke-miterlimit="10"/></g><g transform="translate(-30,-62) scale(1,1)"><g><path fill="none" stroke="none"/><text fill="#000000" stroke="none" font-family="Arial" font-size="13px" font-style="normal" font-weight="bold" text-decoration="none" x="445.555908203125" y="254.2099609375">Modificar logro</text></g></g><g transform="translate(-30,-62) scale(1,1)"><path fill="#C0C0C0" stroke="none" d="M 431 344 C 431 334.6111584 461.4446336 327 499 327 C 536.5553664 327 567 334.6111584 567 344 C 567 353.3888416 536.5553664 361 499 361 C 461.4446336 361 431 353.3888416 431 344 Z" opacity="0.2"/></g><g transform="translate(-30,-62) scale(1,1)"><path fill="#ffffff" stroke="none" d="M 424 337 C 424 327.6111584 454.4446336 320 492 320 C 529.5553664 320 560 327.6111584 560 337 C 560 346.3888416 529.5553664 354 492 354 C 454.4446336 354 424 346.3888416 424 337 Z"/></g><g transform="translate(-30,-62) scale(1,1)"><path fill="none" stroke="#000000" d="M 424 337 C 424 327.6111584 454.4446336 320 492 320 C 529.5553664 320 560 327.6111584 560 337 C 560 346.3888416 529.5553664 354 492 354 C 454.4446336 354 424 346.3888416 424 337 Z" stroke-miterlimit="10"/></g><g transform="translate(-30,-62) scale(1,1)"><g><path fill="none" stroke="none"/><text fill="#000000" stroke="none" font-family="Arial" font-size="13px" font-style="normal" font-weight="bold" text-decoration="none" x="448.299560546875" y="342.2099609375">Eliminar logro</text></g></g><g transform="translate(-30,-62) scale(1,1)"><path fill="#C0C0C0" stroke="none" d="M 424 112 C 424 102.6111584 457.57864 95 499 95 C 540.42136 95 574 102.6111584 574 112 C 574 121.3888416 540.42136 129 499 129 C 457.57864 129 424 121.3888416 424 112 Z" opacity="0.2"/></g><g transform="translate(-30,-62) scale(1,1)"><path fill="#ffffff" stroke="none" d="M 417 105 C 417 95.6111584 450.57864 88 492 88 C 533.42136 88 567 95.6111584 567 105 C 567 114.3888416 533.42136 122 492 122 C 450.57864 122 417 114.3888416 417 105 Z"/></g><g transform="translate(-30,-62) scale(1,1)"><path fill="none" stroke="#000000" d="M 417 105 C 417 95.6111584 450.57864 88 492 88 C 533.42136 88 567 95.6111584 567 105 C 567 114.3888416 533.42136 122 492 122 C 450.57864 122 417 114.3888416 417 105 Z" stroke-miterlimit="10"/></g><g transform="translate(-30,-62) scale(1,1)"><g><path fill="none" stroke="none"/><text fill="#000000" stroke="none" font-family="Arial" font-size="13px" font-style="normal" font-weight="bold" text-decoration="none" x="443.61181640625" y="110.2099609375">Consultar logro</text></g></g><g transform="translate(-30,-62) scale(1,1)"><path fill="#C0C0C0" stroke="none" d="M 135 112 C 135 102.6111584 192.083688 95 262.5 95 C 332.916312 95 390 102.6111584 390 112 C 390 121.3888416 332.916312 129 262.5 129 C 192.083688 129 135 121.3888416 135 112 Z" opacity="0.2"/></g><g transform="translate(-30,-62) scale(1,1)"><path fill="#ffffff" stroke="none" d="M 128 105 C 128 95.6111584 185.083688 88 255.5 88 C 325.916312 88 383 95.6111584 383 105 C 383 114.3888416 325.916312 122 255.5 122 C 185.083688 122 128 114.3888416 128 105 Z"/></g><g transform="translate(-30,-62) scale(1,1)"><path fill="none" stroke="#000000" d="M 128 105 C 128 95.6111584 185.083688 88 255.5 88 C 325.916312 88 383 95.6111584 383 105 C 383 114.3888416 325.916312 122 255.5 122 C 185.083688 122 128 114.3888416 128 105 Z" stroke-miterlimit="10"/></g><g transform="translate(-30,-62) scale(1,1)"><g><path fill="none" stroke="none"/><text fill="#000000" stroke="none" font-family="Arial" font-size="13px" font-style="normal" font-weight="bold" text-decoration="none" x="169.898681640625" y="110.2099609375">Consultar logros asociados</text></g></g><g transform="translate(-30,-62) scale(1,1)"><path fill="#C0C0C0" stroke="none" d="M 119 296 C 119 286.6111584 168.0248144 279 228.5 279 C 288.97518560000003 279 338 286.6111584 338 296 C 338 305.3888416 288.97518560000003 313 228.5 313 C 168.0248144 313 119 305.3888416 119 296 Z" opacity="0.2"/></g><g transform="translate(-30,-62) scale(1,1)"><path fill="#ffffff" stroke="none" d="M 112 289 C 112 279.6111584 161.0248144 272 221.5 272 C 281.97518560000003 272 331 279.6111584 331 289 C 331 298.3888416 281.97518560000003 306 221.5 306 C 161.0248144 306 112 298.3888416 112 289 Z"/></g><g transform="translate(-30,-62) scale(1,1)"><path fill="none" stroke="#000000" d="M 112 289 C 112 279.6111584 161.0248144 272 221.5 272 C 281.97518560000003 272 331 279.6111584 331 289 C 331 298.3888416 281.97518560000003 306 221.5 306 C 161.0248144 306 112 298.3888416 112 289 Z" stroke-miterlimit="10"/></g><g transform="translate(-30,-62) scale(1,1)"><g><path fill="none" stroke="none"/><text fill="#000000" stroke="none" font-family="Arial" font-size="13px" font-style="normal" font-weight="bold" text-decoration="none" x="148.543212890625" y="294.2099609375">Asignar logro a usuario</text></g></g><g transform="translate(-30,-62) scale(1,1)"><path fill="none" stroke="#000000" d="M 98 110 L 127 109" stroke-miterlimit="10"/></g><g transform="translate(-30,-62) scale(1,1)"><path fill="none" stroke="#000000" d="M 526 123 L 607 165" stroke-miterlimit="10"/></g><g transform="translate(-30,-62) scale(1,1)"><path fill="none" stroke="#000000" d="M 549 182 L 607 187" stroke-miterlimit="10"/></g><g transform="translate(-30,-62) scale(1,1)"><path fill="none" stroke="#000000" d="M 543 231 L 607 208" stroke-miterlimit="10"/></g><g transform="translate(-30,-62) scale(1,1)"><path fill="none" stroke="#000000" d="M 512 319 L 610 232" stroke-miterlimit="10"/></g><g transform="translate(-30,-62) scale(1,1)"><path fill="#C0C0C0" stroke="none" d="M 135 184.5 C 135 170.4167376 175.5182256 159 225.5 159 C 275.4817744 159 316 170.4167376 316 184.5 C 316 198.5832624 275.4817744 210 225.5 210 C 175.5182256 210 135 198.5832624 135 184.5 Z" opacity="0.2"/></g><g transform="translate(-30,-62) scale(1,1)"><path fill="#ffffff" stroke="none" d="M 128 177.5 C 128 163.4167376 168.5182256 152 218.5 152 C 268.4817744 152 309 163.4167376 309 177.5 C 309 191.5832624 268.4817744 203 218.5 203 C 168.5182256 203 128 191.5832624 128 177.5 Z"/></g><g transform="translate(-30,-62) scale(1,1)"><path fill="none" stroke="#000000" d="M 128 177.5 C 128 163.4167376 168.5182256 152 218.5 152 C 268.4817744 152 309 163.4167376 309 177.5 C 309 191.5832624 268.4817744 203 218.5 203 C 168.5182256 203 128 191.5832624 128 177.5 Z" stroke-miterlimit="10"/></g><g transform="translate(-30,-62) scale(1,1)"><path fill="none" stroke="#000000" d="M 128 208 L 309 208" stroke-miterlimit="10"/></g><g transform="translate(-30,-62) scale(1,1)"><g><path fill="none" stroke="none"/><text fill="#000000" stroke="none" font-family="Arial" font-size="13px" font-style="normal" font-weight="bold" text-decoration="none" x="158.905029296875" y="185.2861328125">Checkout del envío</text></g></g><g transform="translate(-30,-62) scale(1,1)"><g><path fill="none" stroke="none"/><text fill="#000000" stroke="none" font-family="Arial" font-size="13px" font-style="normal" font-weight="normal" text-decoration="none" x="133" y="223.7861328125">cupón</text></g></g><g transform="translate(-30,-62) scale(1,1)"><path fill="none" stroke="#000000" d="M 98 127 L 143 151" stroke-miterlimit="10"/></g><g transform="translate(-30,-62) scale(1,1)"><path fill="none" stroke="#000000" d="M 219 232 L 220 271" stroke-miterlimit="10" stroke-dasharray="3"/></g><g transform="translate(-30,-62) scale(1,1)"><path fill="none" stroke="#000000" d="M 215.53136957379465 260.94856517138015 L 220 271 L 223.94763885098538 260.73276339504196" stroke-miterlimit="10"/></g><g transform="translate(-30,-62) scale(1,1)"><g><path fill="none" stroke="none"/><text fill="#000000" stroke="none" font-family="Arial" font-size="13px" font-style="normal" font-weight="normal" text-decoration="none" x="220.5" y="253.7099609375">«include»</text></g></g><g transform="translate(-30,-62) scale(1,1)"><path fill="#ffffff" stroke="none" d="M 80 328 L 350.92626953125 328 L 360.92626953125 338 L 360.92626953125 377 L 80 377 L 80 328"/></g><g transform="translate(-30,-62) scale(1,1)"><path fill="none" stroke="#000000" d="M 80 328 L 350.92626953125 328 L 360.92626953125 338 L 360.92626953125 377 L 80 377 L 80 328 L 80 328" stroke-miterlimit="10"/></g><g transform="translate(-30,-62) scale(1,1)"><path fill="none" stroke="#000000" d="M 350.92626953125 328 L 350.92626953125 338 L 360.92626953125 338 L 350.92626953125 328" stroke-miterlimit="10"/></g><g transform="translate(-30,-62) scale(1,1)"><g><path fill="none" stroke="none"/><text fill="#000000" stroke="none" font-family="Arial" font-size="13px" font-style="normal" font-weight="normal" text-decoration="none" x="85" y="342.572265625">Se asignaría al ejecutar acciones del sistema.</text><text fill="#000000" stroke="none" font-family="Arial" font-size="13px" font-style="normal" font-weight="normal" text-decoration="none" x="85" y="355.419921875">O siempre (include) o si se cumple alguna</text><text fill="#000000" stroke="none" font-family="Arial" font-size="13px" font-style="normal" font-weight="normal" text-decoration="none" x="85" y="368.572265625">condición (extend)</text></g></g><g transform="translate(-30,-62) scale(1,1)"><path fill="none" stroke="#000000" d="M 220 327 L 221 307" stroke-miterlimit="10" stroke-dasharray="3"/></g></g></svg>