<svg version="1.1" xmlns="http://www.w3.org/2000/svg" xmlns:xlink="http://www.w3.org/1999/xlink" width="684" height="438"><defs/><g><text fill="#eeeeee" stroke="none" font-family="Arial" font-size="24px" font-style="normal" font-weight="normal" text-decoration="none" x="0" y="0">UNREGISTERED</text><text fill="#eeeeee" stroke="none" font-family="Arial" font-size="24px" font-style="normal" font-weight="normal" text-decoration="none" x="0" y="30">UNREGISTERED</text><text fill="#eeeeee" stroke="none" font-family="Arial" font-size="24px" font-style="normal" font-weight="normal" text-decoration="none" x="0" y="60">UNREGISTERED</text><text fill="#eeeeee" stroke="none" font-family="Arial" font-size="24px" font-style="normal" font-weight="normal" text-decoration="none" x="0" y="90">UNREGISTERED</text><text fill="#eeeeee" stroke="none" font-family="Arial" font-size="24px" font-style="normal" font-weight="normal" text-decoration="none" x="0" y="120">UNREGISTERED</text><text fill="#eeeeee" stroke="none" font-family="Arial" font-size="24px" font-style="normal" font-weight="normal" text-decoration="none" x="0" y="150">UNREGISTERED</text><text fill="#eeeeee" stroke="none" font-family="Arial" font-size="24px" font-style="normal" font-weight="normal" text-decoration="none" x="0" y="180">UNREGISTERED</text><text fill="#eeeeee" stroke="none" font-family="Arial" font-size="24px" font-style="normal" font-weight="normal" text-decoration="none" x="0" y="210">UNREGISTERED</text><text fill="#eeeeee" stroke="none" font-family="Arial" font-size="24px" font-style="normal" font-weight="normal" text-decoration="none" x="0" y="240">UNREGISTERED</text><text fill="#eeeeee" stroke="none" font-family="Arial" font-size="24px" font-style="normal" font-weight="normal" text-decoration="none" x="0" y="270">UNREGISTERED</text><text fill="#eeeeee" stroke="none" font-family="Arial" font-size="24px" font-style="normal" font-weight="normal" text-decoration="none" x="0" y="300">UNREGISTERED</text><text fill="#eeeeee" stroke="none" font-family="Arial" font-size="24px" font-style="normal" font-weight="normal" text-decoration="none" x="0" y="330">UNREGISTERED</text><text fill="#eeeeee" stroke="none" font-family="Arial" font-size="24px" font-style="normal" font-weight="normal" text-decoration="none" x="0" y="360">UNREGISTERED</text><text fill="#eeeeee" stroke="none" font-family="Arial" font-size="24px" font-style="normal" font-weight="normal" text-decoration="none" x="0" y="390">UNREGISTERED</text><text fill="#eeeeee" stroke="none" font-family="Arial" font-size="24px" font-style="normal" font-weight="normal" text-decoration="none" x="0" y="420">UNREGISTERED</text><text fill="#eeeeee" stroke="none" font-family="Arial" font-size="24px" font-style="normal" font-weight="normal" text-decoration="none" x="200" y="0">UNREGISTERED</text><text fill="#eeeeee" stroke="none" font-family="Arial" font-size="24px" font-style="normal" font-weight="normal" text-decoration="none" x="200" y="30">UNREGISTERED</text><text fill="#eeeeee" stroke="none" font-family="Arial" font-size="24px" font-style="normal" font-weight="normal" text-decoration="none" x="200" y="60">UNREGISTERED</text><text fill="#eeeeee" stroke="none" font-family="Arial" font-size="24px" font-style="normal" font-weight="normal" text-decoration="none" x="200" y="90">UNREGISTERED</text><text fill="#eeeeee" stroke="none" font-family="Arial" font-size="24px" font-style="normal" font-weight="normal" text-decoration="none" x="200" y="120">UNREGISTERED</text><text fill="#eeeeee" stroke="none" font-family="Arial" font-size="24px" font-style="normal" font-weight="normal" text-decoration="none" x="200" y="150">UNREGISTERED</text><text fill="#eeeeee" stroke="none" font-family="Arial" font-size="24px" font-style="normal" font-weight="normal" text-decoration="none" x="200" y="180">UNREGISTERED</text><text fill="#eeeeee" stroke="none" font-family="Arial" font-size="24px" font-style="normal" font-weight="normal" text-decoration="none" x="200" y="210">UNREGISTERED</text><text fill="#eeeeee" stroke="none" font-family="Arial" font-size="24px" font-style="normal" font-weight="normal" text-decoration="none" x="200" y="240">UNREGISTERED</text><text fill="#eeeeee" stroke="none" font-family="Arial" font-size="24px" font-style="normal" font-weight="normal" text-decoration="none" x="200" y="270">UNREGISTERED</text><text fill="#eeeeee" stroke="none" font-family="Arial" font-size="24px" font-style="normal" font-weight="normal" text-decoration="none" x="200" y="300">UNREGISTERED</text><text fill="#eeeeee" stroke="none" font-family="Arial" font-size="24px" font-style="normal" font-weight="normal" text-decoration="none" x="200" y="330">UNREGISTERED</text><text fill="#eeeeee" stroke="none" font-family="Arial" font-size="24px" font-style="normal" font-weight="normal" text-decoration="none" x="200" y="360">UNREGISTERED</text><text fill="#eeeeee" stroke="none" font-family="Arial" font-size="24px" font-style="normal" font-weight="normal" text-decoration="none" x="200" y="390">UNREGISTERED</text><text fill="#eeeeee" stroke="none" font-family="Arial" font-size="24px" font-style="normal" font-weight="normal" text-decoration="none" x="200" y="420">UNREGISTERED</text><text fill="#eeeeee" stroke="none" font-family="Arial" font-size="24px" font-style="normal" font-weight="normal" text-decoration="none" x="400" y="0">UNREGISTERED</text><text fill="#eeeeee" stroke="none" font-family="Arial" font-size="24px" font-style="normal" font-weight="normal" text-decoration="none" x="400" y="30">UNREGISTERED</text><text fill="#eeeeee" stroke="none" font-family="Arial" font-size="24px" font-style="normal" font-weight="normal" text-decoration="none" x="400" y="60">UNREGISTERED</text><text fill="#eeeeee" stroke="none" font-family="Arial" font-size="24px" font-style="normal" font-weight="normal" text-decoration="none" x="400" y="90">UNREGISTERED</text><text fill="#eeeeee" stroke="none" font-family="Arial" font-size="24px" font-style="normal" font-weight="normal" text-decoration="none" x="400" y="120">UNREGISTERED</text><text fill="#eeeeee" stroke="none" font-family="Arial" font-size="24px" font-style="normal" font-weight="normal" text-decoration="none" x="400" y="150">UNREGISTERED</text><text fill="#eeeeee" stroke="none" font-family="Arial" font-size="24px" font-style="normal" font-weight="normal" text-decoration="none" x="400" y="180">UNREGISTERED</text><text fill="#eeeeee" stroke="none" font-family="Arial" font-size="24px" font-style="normal" font-weight="normal" text-decoration="none" x="400" y="210">UNREGISTERED</text><text fill="#eeeeee" stroke="none" font-family="Arial" font-size="24px" font-style="normal" font-weight="normal" text-decoration="none" x="400" y="240">UNREGISTERED</text><text fill="#eeeeee" stroke="none" font-family="Arial" font-size="24px" font-style="normal" font-weight="normal" text-decoration="none" x="400" y="270">UNREGISTERED</text><text fill="#eeeeee" stroke="none" font-family="Arial" font-size="24px" font-style="normal" font-weight="normal" text-decoration="none" x="400" y="300">UNREGISTERED</text><text fill="#eeeeee" stroke="none" font-family="Arial" font-size="24px" font-style="normal" font-weight="normal" text-decoration="none" x="400" y="330">UNREGISTERED</text><text fill="#eeeeee" stroke="none" font-family="Arial" font-size="24px" font-style="normal" font-weight="normal" text-decoration="none" x="400" y="360">UNREGISTERED</text><text fill="#eeeeee" stroke="none" font-family="Arial" font-size="24px" font-style="normal" font-weight="normal" text-decoration="none" x="400" y="390">UNREGISTERED</text><text fill="#eeeeee" stroke="none" font-family="Arial" font-size="24px" font-style="normal" font-weight="normal" text-decoration="none" x="400" y="420">UNREGISTERED</text><text fill="#eeeeee" stroke="none" font-family="Arial" font-size="24px" font-style="normal" font-weight="normal" text-decoration="none" x="600" y="0">UNREGISTERED</text><text fill="#eeeeee" stroke="none" font-family="Arial" font-size="24px" font-style="normal" font-weight="normal" text-decoration="none" x="600" y="30">UNREGISTERED</text><text fill="#eeeeee" stroke="none" font-family="Arial" font-size="24px" font-style="normal" font-weight="normal" text-decoration="none" x="600" y="60">UNREGISTERED</text><text fill="#eeeeee" stroke="none" font-family="Arial" font-size="24px" font-style="normal" font-weight="normal" text-decoration="none" x="600" y="90">UNREGISTERED</text><text fill="#eeeeee" stroke="none" font-family="Arial" font-size="24px" font-style="normal" font-weight="normal" text-decoration="none" x="600" y="120">UNREGISTERED</text><text fill="#eeeeee" stroke="none" font-family="Arial" font-size="24px" font-style="normal" font-weight="normal" text-decoration="none" x="600" y="150">UNREGISTERED</text><text fill="#eeeeee" stroke="none" font-family="Arial" font-size="24px" font-style="normal" font-weight="normal" text-decoration="none" x="600" y="180">UNREGISTERED</text><text fill="#eeeeee" stroke="none" font-family="Arial" font-size="24px" font-style="normal" font-weight="normal" text-decoration="none" x="600" y="210">UNREGISTERED</text><text fill="#eeeeee" stroke="none" font-family="Arial" font-size="24px" font-style="normal" font-weight="normal" text-decoration="none" x="600" y="240">UNREGISTERED</text><text fill="#eeeeee" stroke="none" font-family="Arial" font-size="24px" font-style="normal" font-weight="normal" text-decoration="none" x="600" y="270">UNREGISTERED</text><text fill="#eeeeee" stroke="none" font-family="Arial" font-size="24px" font-style="normal" font-weight="normal" text-decoration="none" x="600" y="300">UNREGISTERED</text><text fill="#eeeeee" stroke="none" font-family="Arial" font-size="24px" font-style="normal" font-weight="normal" text-decoration="none" x="600" y="330">UNREGISTERED</text><text fill="#eeeeee" stroke="none" font-family="Arial" font-size="24px" font-style="normal" font-weight="normal" text-decoration="none" x="600" y="360">UNREGISTERED</text><text fill="#eeeeee" stroke="none" font-family="Arial" font-size="24px" font-style="normal" font-weight="normal" text-decoration="none" x="600" y="390">UNREGISTERED</text><text fill="#eeeeee" stroke="none" font-family="Arial" font-size="24px" font-style="normal" font-weight="normal" text-decoration="none" x="600" y="420">UNREGISTERED</text><g transform="translate(-30,-46) scale(1,1)"><path fill="#ffffff" stroke="none" d="M 104.24162571022727 65.68 C 104.24162571022727 60.88616793600001 108.12746803517273 57 112.9208984375 57 C 117.71432883982727 57 121.60017116477273 60.88616793600001 121.60017116477273 65.68 C 121.60017116477273 70.473832064 117.71432883982727 74.36 112.9208984375 74.36 C 108.12746803517273 74.36 104.24162571022727 70.473832064 104.24162571022727 65.68 Z"/></g><g transform="translate(-30,-46) scale(1,1)"><path fill="none" stroke="#000000" d="M 104.24162571022727 65.68 C 104.24162571022727 60.88616793600001 108.12746803517273 57 112.9208984375 57 C 117.71432883982727 57 121.60017116477273 60.88616793600001 121.60017116477273 65.68 C 121.60017116477273 70.473832064 117.71432883982727 74.36 112.9208984375 74.36 C 108.12746803517273 74.36 104.24162571022727 70.473832064 104.24162571022727 65.68 Z" stroke-miterlimit="10"/></g><g transform="translate(-30,-46) scale(1,1)"><path fill="none" stroke="#000000" d="M 112.9208984375 74.36 L 112.9208984375 91.64" stroke-miterlimit="10"/></g><g transform="translate(-30,-46) scale(1,1)"><path fill="none" stroke="#000000" d="M 103.73108025568182 80.84 L 122.11071661931818 80.84" stroke-miterlimit="10"/></g><g transform="translate(-30,-46) scale(1,1)"><path fill="none" stroke="#000000" d="M 112.9208984375 91.64 L 100.15726207386363 109" stroke-miterlimit="10"/></g><g transform="translate(-30,-46) scale(1,1)"><path fill="none" stroke="#000000" d="M 112.9208984375 91.64 L 125.68453480113637 109" stroke-miterlimit="10"/></g><g transform="translate(-30,-46) scale(1,1)"><g><path fill="none" stroke="none"/><text fill="#000000" stroke="none" font-family="Arial" font-size="13px" font-style="normal" font-weight="bold" text-decoration="none" x="68.5" y="127.7099609375">Administrador</text></g></g><g transform="translate(-30,-46) scale(1,1)"><path fill="#ffffff" stroke="none" d="M 106.62248508522728 313.68 C 106.62248508522728 308.886167936 110.50832741017274 305 115.3017578125 305 C 120.09518821482726 305 123.98103053977272 308.886167936 123.98103053977272 313.68 C 123.98103053977272 318.473832064 120.09518821482726 322.36 115.3017578125 322.36 C 110.50832741017274 322.36 106.62248508522728 318.473832064 106.62248508522728 313.68 Z"/></g><g transform="translate(-30,-46) scale(1,1)"><path fill="none" stroke="#000000" d="M 106.62248508522728 313.68 C 106.62248508522728 308.886167936 110.50832741017274 305 115.3017578125 305 C 120.09518821482726 305 123.98103053977272 308.886167936 123.98103053977272 313.68 C 123.98103053977272 318.473832064 120.09518821482726 322.36 115.3017578125 322.36 C 110.50832741017274 322.36 106.62248508522728 318.473832064 106.62248508522728 313.68 Z" stroke-miterlimit="10"/></g><g transform="translate(-30,-46) scale(1,1)"><path fill="none" stroke="#000000" d="M 115.3017578125 322.36 L 115.3017578125 339.64" stroke-miterlimit="10"/></g><g transform="translate(-30,-46) scale(1,1)"><path fill="none" stroke="#000000" d="M 106.11193963068183 328.84 L 124.49157599431817 328.84" stroke-miterlimit="10"/></g><g transform="translate(-30,-46) scale(1,1)"><path fill="none" stroke="#000000" d="M 115.3017578125 339.64 L 102.53812144886365 357" stroke-miterlimit="10"/></g><g transform="translate(-30,-46) scale(1,1)"><path fill="none" stroke="#000000" d="M 115.3017578125 339.64 L 128.06539417613635 357" stroke-miterlimit="10"/></g><g transform="translate(-30,-46) scale(1,1)"><g><path fill="none" stroke="none"/><text fill="#000000" stroke="none" font-family="Arial" font-size="13px" font-style="normal" font-weight="bold" text-decoration="none" x="44.5" y="375.7099609375">Empresa de transporte</text></g></g><g transform="translate(-30,-46) scale(1,1)"><path fill="#C0C0C0" stroke="none" d="M 351 80 C 351 70.6111584 377.1913392 63 409.5 63 C 441.8086608 63 468 70.6111584 468 80 C 468 89.3888416 441.8086608 97 409.5 97 C 377.1913392 97 351 89.3888416 351 80 Z" opacity="0.2"/></g><g transform="translate(-30,-46) scale(1,1)"><path fill="#ffffff" stroke="none" d="M 344 73 C 344 63.6111584 370.1913392 56 402.5 56 C 434.8086608 56 461 63.6111584 461 73 C 461 82.3888416 434.8086608 90 402.5 90 C 370.1913392 90 344 82.3888416 344 73 Z"/></g><g transform="translate(-30,-46) scale(1,1)"><path fill="none" stroke="#000000" d="M 344 73 C 344 63.6111584 370.1913392 56 402.5 56 C 434.8086608 56 461 63.6111584 461 73 C 461 82.3888416 434.8086608 90 402.5 90 C 370.1913392 90 344 82.3888416 344 73 Z" stroke-miterlimit="10"/></g><g transform="translate(-30,-46) scale(1,1)"><g><path fill="none" stroke="none"/><text fill="#000000" stroke="none" font-family="Arial" font-size="13px" font-style="normal" font-weight="bold" text-decoration="none" x="365.66455078125" y="78.03857421875">Crear punto</text></g></g><g transform="translate(-30,-46) scale(1,1)"><path fill="#C0C0C0" stroke="none" d="M 334 128 C 334 118.6111584 367.8024976 111 409.5 111 C 451.1975024 111 485 118.6111584 485 128 C 485 137.3888416 451.1975024 145 409.5 145 C 367.8024976 145 334 137.3888416 334 128 Z" opacity="0.2"/></g><g transform="translate(-30,-46) scale(1,1)"><path fill="#ffffff" stroke="none" d="M 327 121 C 327 111.6111584 360.8024976 104 402.5 104 C 444.1975024 104 478 111.6111584 478 121 C 478 130.3888416 444.1975024 138 402.5 138 C 360.8024976 138 327 130.3888416 327 121 Z"/></g><g transform="translate(-30,-46) scale(1,1)"><path fill="none" stroke="#000000" d="M 327 121 C 327 111.6111584 360.8024976 104 402.5 104 C 444.1975024 104 478 111.6111584 478 121 C 478 130.3888416 444.1975024 138 402.5 138 C 360.8024976 138 327 130.3888416 327 121 Z" stroke-miterlimit="10"/></g><g transform="translate(-30,-46) scale(1,1)"><g><path fill="none" stroke="none"/><text fill="#000000" stroke="none" font-family="Arial" font-size="13px" font-style="normal" font-weight="bold" text-decoration="none" x="353.75634765625" y="126.2099609375">Modificar punto</text></g></g><g transform="translate(-30,-46) scale(1,1)"><path fill="#C0C0C0" stroke="none" d="M 327 243.5 C 327 227.7598832 363.9563975953125 215 409.54443359375 215 C 455.1324695921875 215 492.0888671875 227.7598832 492.0888671875 243.5 C 492.0888671875 259.2401168 455.1324695921875 272 409.54443359375 272 C 363.9563975953125 272 327 259.2401168 327 243.5 Z" opacity="0.2"/></g><g transform="translate(-30,-46) scale(1,1)"><path fill="#ffffff" stroke="none" d="M 320 236.5 C 320 220.7598832 356.9563975953125 208 402.54443359375 208 C 448.1324695921875 208 485.0888671875 220.7598832 485.0888671875 236.5 C 485.0888671875 252.2401168 448.1324695921875 265 402.54443359375 265 C 356.9563975953125 265 320 252.2401168 320 236.5 Z"/></g><g transform="translate(-30,-46) scale(1,1)"><path fill="none" stroke="#000000" d="M 320 236.5 C 320 220.7598832 356.9563975953125 208 402.54443359375 208 C 448.1324695921875 208 485.0888671875 220.7598832 485.0888671875 236.5 C 485.0888671875 252.2401168 448.1324695921875 265 402.54443359375 265 C 356.9563975953125 265 320 252.2401168 320 236.5 Z" stroke-miterlimit="10"/></g><g transform="translate(-30,-46) scale(1,1)"><g><path fill="none" stroke="none"/><text fill="#000000" stroke="none" font-family="Arial" font-size="13px" font-style="normal" font-weight="bold" text-decoration="none" x="352.356689453125" y="241.7099609375">Consultar punto</text></g></g><g transform="translate(-30,-46) scale(1,1)"><path fill="#C0C0C0" stroke="none" d="M 339 176 C 339 166.6111584 370.5639216 159 409.5 159 C 448.4360784 159 480 166.6111584 480 176 C 480 185.3888416 448.4360784 193 409.5 193 C 370.5639216 193 339 185.3888416 339 176 Z" opacity="0.2"/></g><g transform="translate(-30,-46) scale(1,1)"><path fill="#ffffff" stroke="none" d="M 332 169 C 332 159.6111584 363.5639216 152 402.5 152 C 441.4360784 152 473 159.6111584 473 169 C 473 178.3888416 441.4360784 186 402.5 186 C 363.5639216 186 332 178.3888416 332 169 Z"/></g><g transform="translate(-30,-46) scale(1,1)"><path fill="none" stroke="#000000" d="M 332 169 C 332 159.6111584 363.5639216 152 402.5 152 C 441.4360784 152 473 159.6111584 473 169 C 473 178.3888416 441.4360784 186 402.5 186 C 363.5639216 186 332 178.3888416 332 169 Z" stroke-miterlimit="10"/></g><g transform="translate(-30,-46) scale(1,1)"><g><path fill="none" stroke="none"/><text fill="#000000" stroke="none" font-family="Arial" font-size="13px" font-style="normal" font-weight="bold" text-decoration="none" x="357" y="174.2099609375">Eliminar punto</text></g></g><g transform="translate(-30,-46) scale(1,1)"><path fill="none" stroke="#000000" d="M 174 226 L 319 232" stroke-miterlimit="10"/></g><g transform="translate(-30,-46) scale(1,1)"><path fill="none" stroke="#000000" d="M 163 91 L 343 77" stroke-miterlimit="10"/></g><g transform="translate(-30,-46) scale(1,1)"><path fill="none" stroke="#000000" d="M 163 100 L 326 114" stroke-miterlimit="10"/></g><g transform="translate(-30,-46) scale(1,1)"><path fill="none" stroke="#000000" d="M 163 108 L 331 151" stroke-miterlimit="10"/></g><g transform="translate(-30,-46) scale(1,1)"><path fill="#C0C0C0" stroke="none" d="M 279 336 C 279 326.6111584 345.9334224 319 428.5 319 C 511.0665776 319 578 326.6111584 578 336 C 578 345.3888416 511.0665776 353 428.5 353 C 345.9334224 353 279 345.3888416 279 336 Z" opacity="0.2"/></g><g transform="translate(-30,-46) scale(1,1)"><path fill="#ffffff" stroke="none" d="M 272 329 C 272 319.6111584 338.9334224 312 421.5 312 C 504.0665776 312 571 319.6111584 571 329 C 571 338.3888416 504.0665776 346 421.5 346 C 338.9334224 346 272 338.3888416 272 329 Z"/></g><g transform="translate(-30,-46) scale(1,1)"><path fill="none" stroke="#000000" d="M 272 329 C 272 319.6111584 338.9334224 312 421.5 312 C 504.0665776 312 571 319.6111584 571 329 C 571 338.3888416 504.0665776 346 421.5 346 C 338.9334224 346 272 338.3888416 272 329 Z" stroke-miterlimit="10"/></g><g transform="translate(-30,-46) scale(1,1)"><g><path fill="none" stroke="none"/><text fill="#000000" stroke="none" font-family="Arial" font-size="13px" font-style="italic" font-weight="bold" text-decoration="none" x="320.245361328125" y="333.93701171875">Ver envíos asociados a un punto</text></g></g><g transform="translate(-30,-46) scale(1,1)"><path fill="none" stroke="#000000" d="M 163 134 L 397 311" stroke-miterlimit="10"/></g><g transform="translate(-30,-46) scale(1,1)"><path fill="none" stroke="#000000" d="M 192 339 L 271 336" stroke-miterlimit="10"/></g><g transform="translate(-30,-46) scale(1,1)"><path fill="none" stroke="#000000" d="M 417 311 L 408 266" stroke-miterlimit="10" stroke-dasharray="3"/></g><g transform="translate(-30,-46) scale(1,1)"><path fill="none" stroke="#000000" d="M 414.12083628127033 275.1397682256108 L 408 266 L 405.86529275021616 276.79087693182163" stroke-miterlimit="10"/></g><g transform="translate(-30,-46) scale(1,1)"><g><path fill="none" stroke="none"/><text fill="#000000" stroke="none" font-family="Arial" font-size="13px" font-style="normal" font-weight="normal" text-decoration="none" x="422.5" y="289.7099609375">«include»</text></g></g><g transform="translate(-30,-46) scale(1,1)"><path fill="#C0C0C0" stroke="none" d="M 95 416 C 95 406.6111584 179.3943152 399 283.5 399 C 387.6056848 399 472 406.6111584 472 416 C 472 425.3888416 387.6056848 433 283.5 433 C 179.3943152 433 95 425.3888416 95 416 Z" opacity="0.2"/></g><g transform="translate(-30,-46) scale(1,1)"><path fill="#ffffff" stroke="none" d="M 88 409 C 88 399.6111584 172.3943152 392 276.5 392 C 380.6056848 392 465 399.6111584 465 409 C 465 418.3888416 380.6056848 426 276.5 426 C 172.3943152 426 88 418.3888416 88 409 Z"/></g><g transform="translate(-30,-46) scale(1,1)"><path fill="none" stroke="#000000" d="M 88 409 C 88 399.6111584 172.3943152 392 276.5 392 C 380.6056848 392 465 399.6111584 465 409 C 465 418.3888416 380.6056848 426 276.5 426 C 172.3943152 426 88 418.3888416 88 409 Z" stroke-miterlimit="10"/></g><g transform="translate(-30,-46) scale(1,1)"><g><path fill="none" stroke="none"/><text fill="#000000" stroke="none" font-family="Arial" font-size="13px" font-style="normal" font-weight="bold" text-decoration="none" x="147.541015625" y="414.2861328125">Ver envíos actuales asociados a un punto</text></g></g><g transform="translate(-30,-46) scale(1,1)"><path fill="#C0C0C0" stroke="none" d="M 319 464 C 319 454.6111584 406.7521792 447 515 447 C 623.2478208 447 711 454.6111584 711 464 C 711 473.3888416 623.2478208 481 515 481 C 406.7521792 481 319 473.3888416 319 464 Z" opacity="0.2"/></g><g transform="translate(-30,-46) scale(1,1)"><path fill="#ffffff" stroke="none" d="M 312 457 C 312 447.6111584 399.7521792 440 508 440 C 616.2478208 440 704 447.6111584 704 457 C 704 466.3888416 616.2478208 474 508 474 C 399.7521792 474 312 466.3888416 312 457 Z"/></g><g transform="translate(-30,-46) scale(1,1)"><path fill="none" stroke="#000000" d="M 312 457 C 312 447.6111584 399.7521792 440 508 440 C 616.2478208 440 704 447.6111584 704 457 C 704 466.3888416 616.2478208 474 508 474 C 399.7521792 474 312 466.3888416 312 457 Z" stroke-miterlimit="10"/></g><g transform="translate(-30,-46) scale(1,1)"><g><path fill="none" stroke="none"/><text fill="#000000" stroke="none" font-family="Arial" font-size="13px" font-style="normal" font-weight="bold" text-decoration="none" x="373.99462890625" y="462.2861328125">Ver envíos históricos asociados a un punto</text></g></g><g transform="translate(-30,-46) scale(1,1)"><path fill="none" stroke="#000000" d="M 309 391 L 388 347" stroke-miterlimit="10"/></g><g transform="translate(-30,-46) scale(1,1)"><path fill="#FFFFFF" stroke="none" d="M 374.33960805729214 364.24510631952154 L 388 347 L 366.1465126028285 349.5347758444619"/></g><g transform="translate(-30,-46) scale(1,1)"><path fill="none" stroke="#000000" d="M 374.33960805729214 364.24510631952154 L 388 347 L 366.1465126028285 349.5347758444619 L 374.33960805729214 364.24510631952154" stroke-miterlimit="10"/></g><g transform="translate(-30,-46) scale(1,1)"><path fill="none" stroke="#000000" d="M 496 439 L 433 347" stroke-miterlimit="10"/></g><g transform="translate(-30,-46) scale(1,1)"><path fill="#FFFFFF" stroke="none" d="M 451.4303705340922 359.013385949684 L 433 347 L 437.53749331440457 368.5269866544701"/></g><g transform="translate(-30,-46) scale(1,1)"><path fill="none" stroke="#000000" d="M 451.4303705340922 359.013385949684 L 433 347 L 437.53749331440457 368.5269866544701 L 451.4303705340922 359.013385949684" stroke-miterlimit="10"/></g><g transform="translate(-30,-46) scale(1,1)"><path fill="#ffffff" stroke="none" d="M 101.61296360085227 193.68 C 101.61296360085227 188.886167936 105.49880592579773 185 110.292236328125 185 C 115.08566673045227 185 118.97150905539773 188.886167936 118.97150905539773 193.68 C 118.97150905539773 198.47383206400002 115.08566673045227 202.36 110.292236328125 202.36 C 105.49880592579773 202.36 101.61296360085227 198.47383206400002 101.61296360085227 193.68 Z"/></g><g transform="translate(-30,-46) scale(1,1)"><path fill="none" stroke="#000000" d="M 101.61296360085227 193.68 C 101.61296360085227 188.886167936 105.49880592579773 185 110.292236328125 185 C 115.08566673045227 185 118.97150905539773 188.886167936 118.97150905539773 193.68 C 118.97150905539773 198.47383206400002 115.08566673045227 202.36 110.292236328125 202.36 C 105.49880592579773 202.36 101.61296360085227 198.47383206400002 101.61296360085227 193.68 Z" stroke-miterlimit="10"/></g><g transform="translate(-30,-46) scale(1,1)"><path fill="none" stroke="#000000" d="M 110.292236328125 202.36 L 110.292236328125 219.64" stroke-miterlimit="10"/></g><g transform="translate(-30,-46) scale(1,1)"><path fill="none" stroke="#000000" d="M 101.10241814630682 208.84 L 119.48205450994318 208.84" stroke-miterlimit="10"/></g><g transform="translate(-30,-46) scale(1,1)"><path fill="none" stroke="#000000" d="M 110.292236328125 219.64 L 97.52859996448863 237" stroke-miterlimit="10"/></g><g transform="translate(-30,-46) scale(1,1)"><path fill="none" stroke="#000000" d="M 110.292236328125 219.64 L 123.05587269176137 237" stroke-miterlimit="10"/></g><g transform="translate(-30,-46) scale(1,1)"><g><path fill="none" stroke="none"/><text fill="#000000" stroke="none" font-family="Arial" font-size="13px" font-style="normal" font-weight="bold" text-decoration="none" x="52.5" y="255.7099609375">Usuario registrado</text></g></g><g transform="translate(-30,-46) scale(1,1)"><path fill="none" stroke="#000000" d="M 113 303 L 112 264" stroke-miterlimit="10"/></g><g transform="translate(-30,-46) scale(1,1)"><path fill="#FFFFFF" stroke="none" d="M 120.93726085241069 284.1028696572397 L 112 264 L 104.1047222980292 284.53447320991614"/></g><g transform="translate(-30,-46) scale(1,1)"><path fill="none" stroke="#000000" d="M 120.93726085241069 284.1028696572397 L 112 264 L 104.1047222980292 284.53447320991614 L 120.93726085241069 284.1028696572397" stroke-miterlimit="10"/></g><g transform="translate(-30,-46) scale(1,1)"><path fill="none" stroke="#000000" d="M 111 136 L 111 183" stroke-miterlimit="10"/></g><g transform="translate(-30,-46) scale(1,1)"><path fill="#FFFFFF" stroke="none" d="M 102.58096448796803 162.6746502847517 L 111 183 L 119.41903551203198 162.6746502847517"/></g><g transform="translate(-30,-46) scale(1,1)"><path fill="none" stroke="#000000" d="M 102.58096448796803 162.6746502847517 L 111 183 L 119.41903551203198 162.6746502847517 L 102.58096448796803 162.6746502847517" stroke-miterlimit="10"/></g></g></svg>